<?xml version="1.0" encoding="UTF-8"?>
<svg xmlns="http://www.w3.org/2000/svg" width="4096" height="2048" viewBox="0 0 4096 2048">
  <rect width="4096" height="2048" fill="#1a6b8a"/>
  <line x1="341.3" y1="0" x2="341.3" y2="2048" stroke="#1e7ba0" stroke-width="1" opacity="0.25"/><line x1="682.7" y1="0" x2="682.7" y2="2048" stroke="#1e7ba0" stroke-width="1" opacity="0.25"/><line x1="1024.0" y1="0" x2="1024.0" y2="2048" stroke="#1e7ba0" stroke-width="1" opacity="0.25"/><line x1="1365.3" y1="0" x2="1365.3" y2="2048" stroke="#1e7ba0" stroke-width="1" opacity="0.25"/><line x1="1706.7" y1="0" x2="1706.7" y2="2048" stroke="#1e7ba0" stroke-width="1" opacity="0.25"/><line x1="2048.0" y1="0" x2="2048.0" y2="2048" stroke="#1e7ba0" stroke-width="1" opacity="0.25"/><line x1="2389.3" y1="0" x2="2389.3" y2="2048" stroke="#1e7ba0" stroke-width="1" opacity="0.25"/><line x1="2730.7" y1="0" x2="2730.7" y2="2048" stroke="#1e7ba0" stroke-width="1" opacity="0.25"/><line x1="3072.0" y1="0" x2="3072.0" y2="2048" stroke="#1e7ba0" stroke-width="1" opacity="0.25"/><line x1="3413.3" y1="0" x2="3413.3" y2="2048" stroke="#1e7ba0" stroke-width="1" opacity="0.25"/><line x1="3754.7" y1="0" x2="3754.7" y2="2048" stroke="#1e7ba0" stroke-width="1" opacity="0.25"/><line x1="0" y1="1706.7" x2="4096" y2="1706.7" stroke="#1e7ba0" stroke-width="1" opacity="0.25"/><line x1="0" y1="1365.3" x2="4096" y2="1365.3" stroke="#1e7ba0" stroke-width="1" opacity="0.25"/><line x1="0" y1="1024.0" x2="4096" y2="1024.0" stroke="#1e7ba0" stroke-width="1" opacity="0.25"/><line x1="0" y1="682.7" x2="4096" y2="682.7" stroke="#1e7ba0" stroke-width="1" opacity="0.25"/><line x1="0" y1="341.3" x2="4096" y2="341.3" stroke="#1e7ba0" stroke-width="1" opacity="0.25"/>
  <g fill="#7ab648" stroke="#5a8a32" stroke-width="0.8" stroke-opacity="0.6">
  <path d="M1370.2,1934.7L1366.8,1940.5L1363.5,1945.6L1339.7,1944.0L1314.3,1944.7L1300.0,1940.9L1300.0,1940.5L1293.8,1937.1L1319.4,1937.6L1343.9,1938.7L1352.4,1934.0L1358.4,1930.0L1370.2,1934.7ZM236.5,1928.5L214.7,1930.1L199.8,1926.1L193.1,1922.0L192.7,1921.4L185.3,1918.2L192.2,1914.0L213.4,1915.8L224.7,1919.4L233.4,1923.4L236.5,1928.5ZM1534.3,1912.0L1548.3,1916.9L1553.2,1923.8L1554.5,1928.7L1555.0,1934.5L1537.4,1938.1L1518.9,1941.0L1497.5,1943.7L1473.6,1945.9L1446.7,1945.2L1431.7,1941.4L1433.7,1936.7L1458.0,1933.6L1467.8,1929.8L1474.9,1924.9L1480.1,1920.7L1487.0,1916.7L1494.4,1912.0L1500.1,1912.0L1517.1,1909.6L1534.3,1912.0ZM668.9,1860.3L683.6,1862.1L697.2,1860.1L690.7,1864.1L680.0,1867.0L664.2,1866.1L652.8,1862.1L655.3,1858.3L668.9,1860.3ZM619.4,1860.1L636.8,1864.5L630.1,1864.1L615.4,1862.9L599.8,1859.8L608.1,1857.4L619.4,1860.1ZM921.8,1842.4L934.3,1844.0L946.8,1842.7L953.4,1849.1L944.5,1848.2L930.7,1848.7L916.7,1848.2L901.3,1848.9L889.7,1846.7L883.7,1842.0L890.8,1840.0L905.3,1841.6L921.8,1842.4ZM1269.2,1831.3L1270.5,1836.5L1268.5,1840.9L1265.4,1845.1L1252.0,1846.7L1239.3,1848.9L1224.4,1848.7L1230.0,1844.2L1216.6,1845.8L1203.9,1847.4L1195.2,1844.0L1194.5,1839.3L1207.0,1834.9L1214.8,1833.5L1228.0,1834.0L1231.3,1828.2L1232.0,1824.0L1231.7,1814.8L1238.2,1809.5L1248.7,1807.7L1254.7,1811.9L1257.4,1816.2L1262.3,1821.3L1266.0,1826.2L1269.2,1831.3ZM0.0,1987.9L0.7,1987.9L10.7,1981.3L31.2,1984.9L32.5,1984.5L35.7,1983.5L39.6,1982.4L42.9,1981.4L44.6,1980.9L46.2,1980.9L47.4,1981.1L63.9,1985.8L78.3,1981.1L80.9,1980.4L114.3,1978.4L125.2,1981.1L130.5,1982.4L147.7,1986.2L180.0,1989.1L205.6,1992.7L249.5,1995.4L282.3,1992.2L330.6,1994.5L358.0,1998.0L388.1,1994.7L419.8,1991.6L422.2,1986.2L377.4,1985.8L340.6,1983.1L331.0,1978.6L300.5,1976.2L302.5,1971.1L306.8,1966.4L311.0,1962.1L308.8,1957.5L289.8,1954.3L281.2,1950.3L263.5,1946.8L291.2,1947.4L317.5,1945.6L334.0,1949.4L354.2,1946.1L372.9,1941.9L382.1,1938.1L378.1,1933.4L363.4,1930.3L346.6,1926.9L323.3,1926.2L302.8,1924.7L280.7,1923.6L273.3,1919.3L258.6,1915.8L249.7,1911.8L246.2,1898.8L251.7,1899.9L262.0,1903.5L280.7,1902.4L298.8,1900.8L308.1,1905.7L326.2,1904.6L341.3,1902.2L355.6,1899.1L368.5,1895.3L385.6,1894.1L385.2,1889.9L381.2,1885.7L384.5,1881.7L399.2,1879.7L405.9,1883.4L423.3,1881.2L436.5,1878.3L452.7,1878.1L468.1,1877.0L483.5,1874.3L495.7,1871.8L509.5,1869.4L518.5,1870.1L526.3,1871.0L543.2,1869.4L558.4,1871.4L574.0,1871.2L588.9,1869.6L604.2,1870.7L621.2,1871.8L637.0,1871.4L653.5,1871.6L670.4,1871.8L686.0,1871.4L697.6,1868.1L711.4,1866.3L725.7,1868.7L739.3,1866.7L751.6,1862.7L758.9,1866.3L762.9,1870.3L770.3,1874.1L782.1,1870.7L795.7,1875.0L811.1,1876.3L824.2,1879.4L840.3,1878.8L854.8,1876.8L871.9,1877.2L887.3,1878.8L902.9,1880.8L908.9,1875.9L901.5,1872.1L896.0,1868.1L881.3,1867.2L874.8,1862.9L872.3,1858.7L868.3,1850.2L877.0,1851.8L892.0,1852.5L906.7,1851.8L920.1,1853.6L931.6,1856.9L936.5,1860.9L951.9,1861.6L966.6,1860.0L982.2,1857.8L996.2,1856.5L1007.8,1859.1L1023.0,1858.3L1032.8,1849.6L1042.0,1854.7L1055.1,1856.7L1069.4,1855.6L1078.7,1860.0L1093.6,1860.5L1107.4,1861.8L1121.0,1864.3L1130.0,1860.0L1134.4,1856.0L1145.8,1860.5L1161.4,1859.4L1173.0,1861.8L1180.8,1865.6L1195.9,1864.5L1207.7,1862.0L1219.3,1859.1L1233.1,1857.6L1249.2,1856.2L1263.7,1854.7L1274.8,1852.2L1281.5,1848.7L1284.1,1843.8L1282.8,1839.1L1279.3,1834.6L1275.3,1830.2L1271.7,1825.7L1268.8,1821.7L1268.1,1817.2L1269.2,1812.8L1274.6,1808.5L1279.0,1803.8L1280.8,1799.4L1278.6,1794.5L1277.3,1790.0L1282.8,1784.9L1289.1,1781.6L1296.4,1777.3L1304.2,1773.7L1313.4,1770.4L1317.8,1765.5L1324.0,1762.4L1331.2,1759.5L1342.1,1758.8L1349.2,1755.2L1357.3,1753.0L1366.6,1751.7L1374.9,1748.8L1381.3,1745.2L1390.2,1743.9L1396.9,1746.8L1392.7,1750.6L1381.1,1753.9L1376.2,1756.4L1367.7,1754.6L1358.4,1755.7L1350.6,1758.4L1342.3,1761.3L1336.7,1764.6L1335.2,1769.1L1335.9,1773.3L1341.2,1777.1L1333.4,1779.8L1322.7,1780.7L1316.5,1784.5L1309.8,1788.0L1302.7,1792.9L1300.9,1797.2L1304.9,1801.8L1310.9,1805.4L1320.3,1808.1L1329.0,1811.6L1333.6,1816.1L1336.1,1820.4L1339.4,1824.8L1344.8,1828.6L1348.1,1832.8L1349.7,1843.3L1353.0,1847.5L1353.9,1852.0L1357.5,1856.5L1355.9,1862.5L1349.7,1867.2L1343.0,1871.0L1327.9,1872.5L1322.7,1876.5L1315.8,1880.3L1298.6,1884.6L1283.5,1886.3L1269.2,1888.8L1253.8,1891.3L1244.7,1895.9L1226.4,1896.4L1206.4,1895.9L1188.3,1896.8L1169.2,1896.8L1172.7,1901.3L1190.1,1903.3L1202.8,1906.4L1210.0,1910.4L1197.3,1914.0L1177.7,1912.9L1161.4,1915.8L1160.7,1920.5L1160.2,1924.9L1173.6,1928.7L1176.1,1932.9L1190.6,1937.2L1214.6,1939.0L1235.1,1942.1L1251.4,1945.6L1272.1,1949.2L1300.4,1951.0L1328.3,1954.1L1347.7,1957.5L1368.9,1961.3L1380.0,1966.6L1385.6,1970.8L1399.4,1966.8L1418.1,1963.5L1437.9,1959.9L1461.5,1957.0L1481.8,1953.9L1510.1,1953.7L1538.0,1955.2L1560.9,1957.9L1568.3,1953.0L1584.1,1949.7L1612.9,1949.4L1635.4,1947.0L1656.8,1944.5L1680.4,1943.0L1705.6,1941.0L1723.2,1938.1L1715.1,1934.0L1710.3,1930.0L1710.3,1925.8L1688.2,1926.2L1664.8,1928.0L1642.5,1928.0L1639.4,1923.8L1641.0,1915.3L1646.1,1912.9L1662.3,1910.2L1681.5,1907.5L1695.3,1904.2L1709.1,1900.8L1719.4,1896.4L1735.0,1894.4L1750.4,1892.8L1758.1,1891.9L1775.8,1891.5L1792.5,1889.9L1806.5,1887.7L1820.3,1885.0L1832.8,1882.3L1848.6,1878.8L1858.7,1875.0L1869.4,1871.6L1872.7,1867.2L1860.7,1864.5L1864.7,1859.8L1872.3,1856.2L1884.1,1854.0L1896.5,1851.3L1908.1,1847.8L1917.0,1843.3L1922.6,1838.0L1930.9,1834.8L1944.4,1835.5L1950.0,1839.3L1963.6,1839.7L1964.1,1835.5L1969.9,1831.1L1982.1,1832.2L1985.0,1836.4L1998.6,1837.1L2013.3,1835.1L2027.6,1833.7L2040.5,1834.4L2045.4,1839.1L2057.9,1835.3L2069.5,1833.3L2082.4,1831.7L2095.1,1830.2L2106.7,1827.5L2119.4,1825.7L2129.2,1823.2L2136.1,1819.2L2144.6,1822.1L2156.4,1820.6L2164.6,1825.9L2171.1,1829.9L2184.0,1827.7L2189.1,1823.2L2200.7,1820.1L2215.7,1820.8L2220.1,1825.0L2229.5,1820.8L2241.7,1819.5L2255.1,1819.0L2267.1,1819.2L2279.8,1820.6L2292.1,1821.2L2297.4,1825.0L2304.8,1828.4L2317.3,1826.4L2330.6,1825.9L2343.5,1825.9L2356.2,1825.7L2367.6,1824.1L2379.7,1822.8L2389.7,1819.7L2400.4,1817.7L2412.0,1816.6L2420.7,1813.4L2426.9,1807.2L2433.4,1803.4L2445.2,1805.2L2449.6,1809.2L2459.4,1811.9L2471.3,1811.0L2479.3,1815.0L2487.7,1817.9L2499.3,1815.2L2503.3,1810.3L2513.6,1808.3L2525.4,1804.5L2536.6,1803.0L2549.9,1800.7L2558.8,1798.3L2568.2,1795.6L2577.1,1793.2L2587.8,1794.5L2598.0,1790.5L2605.4,1787.4L2616.1,1787.6L2625.5,1784.9L2627.7,1780.9L2637.3,1777.8L2646.6,1775.5L2658.0,1773.7L2668.5,1772.9L2678.5,1773.5L2689.2,1774.7L2698.3,1777.8L2699.5,1782.7L2709.5,1786.5L2716.4,1789.6L2730.0,1790.9L2737.5,1794.0L2746.9,1797.2L2757.8,1797.8L2767.0,1795.6L2776.8,1790.9L2787.5,1793.4L2798.6,1794.7L2809.3,1796.0L2820.5,1796.9L2831.8,1796.9L2841.2,1808.8L2840.7,1811.6L2839.4,1816.8L2828.5,1819.7L2819.6,1823.9L2821.1,1828.4L2833.8,1828.2L2832.2,1832.6L2826.5,1836.9L2821.1,1841.5L2829.8,1845.1L2842.9,1846.2L2856.1,1844.2L2862.4,1839.7L2866.1,1835.5L2872.4,1831.9L2879.5,1828.6L2882.4,1824.6L2888.4,1819.0L2895.5,1817.9L2908.5,1817.4L2919.8,1816.1L2931.4,1814.3L2937.0,1809.9L2940.3,1805.6L2948.1,1801.4L2959.3,1798.5L2968.9,1796.3L2975.1,1792.5L2981.5,1790.5L2989.8,1788.7L3001.2,1789.8L3011.4,1788.7L3022.6,1787.4L3035.0,1788.0L3043.3,1784.9L3049.1,1777.3L3053.3,1780.4L3058.7,1785.8L3068.3,1788.0L3079.2,1788.9L3090.1,1787.6L3101.7,1788.5L3112.4,1788.7L3119.5,1787.6L3129.1,1788.2L3137.8,1790.7L3148.0,1789.1L3160.3,1789.1L3170.7,1787.6L3182.6,1789.1L3190.2,1785.3L3195.9,1781.6L3203.8,1778.4L3218.0,1770.0L3225.3,1771.5L3234.0,1774.7L3241.6,1778.7L3256.1,1785.6L3267.2,1785.8L3277.7,1785.8L3290.0,1784.5L3302.2,1782.9L3311.6,1779.8L3319.4,1776.4L3332.1,1776.0L3340.6,1773.5L3349.5,1775.8L3355.3,1779.3L3363.3,1782.9L3375.8,1782.5L3383.6,1785.3L3397.2,1788.2L3411.4,1789.4L3423.2,1788.5L3432.2,1784.9L3439.7,1781.3L3450.0,1780.4L3460.3,1782.0L3472.1,1783.1L3482.7,1781.3L3493.0,1781.3L3503.0,1782.5L3513.5,1783.6L3523.7,1781.6L3536.0,1779.8L3547.6,1779.3L3560.5,1779.3L3571.0,1778.2L3581.3,1777.3L3584.4,1771.7L3584.8,1767.1L3591.9,1770.2L3593.9,1775.3L3597.7,1780.0L3602.4,1783.8L3612.0,1785.8L3624.9,1785.1L3639.9,1784.9L3650.1,1784.2L3665.0,1784.2L3675.7,1784.0L3690.7,1784.5L3703.4,1785.3L3711.4,1788.9L3709.2,1793.2L3716.5,1796.5L3728.7,1799.2L3741.4,1802.1L3756.2,1804.1L3771.6,1805.9L3783.1,1807.6L3796.0,1807.9L3803.4,1804.1L3813.5,1807.2L3822.1,1810.8L3832.2,1813.4L3846.0,1814.6L3859.1,1815.9L3864.7,1820.4L3877.6,1823.0L3886.3,1827.0L3899.0,1828.8L3912.2,1828.6L3924.4,1829.3L3938.0,1829.0L3951.6,1829.9L3964.3,1831.5L3976.1,1834.2L3987.9,1836.4L3995.9,1839.7L3994.6,1844.2L3988.6,1848.2L3983.5,1853.3L3979.5,1857.4L3974.1,1862.0L3959.2,1863.8L3952.5,1867.8L3937.8,1870.3L3932.6,1874.8L3924.9,1879.0L3916.6,1882.6L3911.9,1887.2L3909.1,1891.5L3907.9,1896.6L3908.2,1900.8L3914.6,1905.3L3917.1,1909.5L3922.4,1913.5L3943.6,1915.1L3948.1,1920.0L3927.5,1921.8L3910.2,1924.2L3888.5,1924.7L3879.0,1931.2L3876.9,1936.5L3872.1,1940.7L3866.0,1945.0L3881.2,1948.8L3887.0,1953.5L3896.8,1957.7L3910.6,1961.5L3926.4,1965.1L3943.6,1968.6L3969.6,1972.2L3975.5,1977.7L4008.2,1980.2L4010.4,1981.1L4018.9,1984.4L4050.3,1981.5L4076.4,1985.1L0.0,1987.9ZM1277.1,1636.7L1291.9,1643.5L1307.9,1646.4L1302.7,1652.1L1291.9,1652.6L1286.2,1648.6L1282.4,1653.2L1272.6,1656.7L1260.3,1655.4L1252.0,1652.0L1240.1,1650.4L1225.8,1644.0L1214.2,1637.9L1198.5,1625.2L1207.9,1627.6L1223.9,1635.2L1239.0,1639.3L1244.8,1634.0L1248.5,1626.2L1259.0,1621.5L1267.1,1622.9L1271.5,1628.2L1277.1,1636.7ZM1381.8,1605.4L1390.9,1610.5L1387.5,1614.5L1372.2,1617.9L1367.1,1613.9L1357.4,1619.1L1351.7,1613.9L1365.3,1607.1L1375.0,1610.0L1381.8,1605.4ZM2847.6,1589.6L2830.2,1590.3L2829.9,1584.3L2831.6,1579.6L2832.3,1577.2L2839.7,1580.8L2850.4,1582.3L2850.8,1584.4L2847.6,1589.6ZM3702.3,1488.1L3713.3,1492.0L3719.5,1490.5L3728.4,1488.3L3735.2,1489.1L3736.0,1502.6L3732.1,1506.5L3730.9,1515.7L3726.9,1512.5L3719.0,1520.5L3716.7,1519.9L3709.7,1519.5L3702.7,1509.8L3701.1,1502.3L3694.6,1492.3L3694.9,1487.1L3702.3,1488.1ZM4016.6,1489.6L4019.2,1494.3L4027.3,1489.7L4030.5,1494.5L4030.5,1499.3L4026.3,1504.5L4018.9,1512.9L4013.1,1517.5L4017.3,1523.0L4008.5,1523.1L3998.8,1527.4L3995.7,1534.8L3989.3,1546.3L3980.3,1551.4L3974.6,1554.7L3964.1,1554.4L3956.8,1550.7L3944.4,1549.9L3942.5,1545.7L3948.6,1537.3L3962.9,1526.0L3970.3,1523.9L3978.4,1519.6L3988.2,1513.6L3995.0,1507.7L4000.1,1499.2L4004.4,1496.3L4006.1,1490.0L4014.1,1484.7L4016.6,1489.6ZM4034.7,1435.4L4043.0,1447.4L4043.2,1439.6L4048.3,1442.7L4050.0,1451.3L4059.2,1455.0L4066.9,1455.9L4073.3,1451.6L4079.1,1452.9L4076.4,1463.0L4072.9,1469.6L4064.2,1469.4L4061.2,1472.8L4062.2,1477.7L4060.6,1479.9L4056.3,1486.0L4050.6,1493.8L4041.9,1498.3L4039.9,1495.3L4035.1,1493.7L4041.7,1484.3L4038.0,1478.1L4025.7,1473.5L4026.0,1469.4L4034.3,1465.4L4036.2,1456.7L4035.7,1449.3L4031.0,1441.7L4031.4,1439.7L4025.9,1435.0L4017.0,1424.9L4012.2,1416.9L4016.5,1416.0L4022.6,1422.3L4031.5,1425.2L4034.7,1435.4ZM3949.4,1276.1L3945.1,1278.9L3938.9,1275.8L3930.7,1270.7L3923.4,1264.6L3915.9,1256.6L3914.3,1252.8L3919.2,1252.9L3925.6,1256.8L3930.6,1260.6L3934.2,1263.8L3943.5,1270.9L3949.4,1276.1ZM4077.5,1221.3L4081.4,1224.6L4079.5,1230.5L4072.5,1232.1L4066.2,1230.7L4065.1,1225.7L4069.5,1221.7L4074.7,1223.2L4077.5,1221.3ZM0.0,1212.4L4088.8,1215.2L4081.5,1217.6L4080.0,1213.3L4085.7,1211.0L4089.3,1210.3L0.0,1206.8L2.3,1206.3L0.9,1211.8L0.0,1212.4ZM3957.7,1211.4L3953.9,1212.9L3950.1,1207.9L3950.5,1204.8L3957.7,1211.4ZM3949.3,1193.9L3951.2,1203.1L3948.1,1201.7L3945.7,1202.3L3944.1,1199.1L3943.9,1190.4L3949.3,1193.9ZM2617.5,1178.2L2619.4,1191.9L2622.3,1197.2L2621.2,1202.7L2619.2,1206.1L2615.3,1199.4L2613.2,1202.7L2615.3,1211.2L2614.3,1216.0L2611.2,1218.6L2610.4,1228.3L2606.0,1241.5L2600.4,1257.2L2593.3,1278.8L2589.0,1294.6L2583.9,1307.8L2574.6,1310.5L2564.7,1315.3L2558.1,1312.4L2549.1,1308.3L2545.9,1302.3L2545.2,1292.2L2541.2,1283.1L2540.1,1275.0L2542.2,1266.8L2547.4,1264.8L2547.5,1261.0L2552.9,1252.4L2553.9,1245.1L2551.3,1239.7L2549.1,1232.6L2548.2,1222.1L2552.2,1215.7L2553.7,1208.5L2559.4,1208.1L2565.7,1205.7L2569.9,1203.7L2574.9,1203.6L2581.4,1197.1L2590.8,1190.1L2594.2,1184.3L2592.6,1179.5L2597.5,1180.8L2603.7,1172.9L2604.0,1166.1L2607.7,1161.0L2611.7,1165.9L2614.7,1170.7L2617.5,1178.2ZM3681.4,1180.6L3685.5,1189.5L3692.8,1185.2L3696.6,1190.1L3702.0,1194.5L3700.9,1199.5L3703.3,1209.3L3705.0,1215.0L3707.9,1216.4L3711.0,1226.1L3709.9,1232.0L3713.6,1239.7L3725.9,1245.6L3734.0,1251.1L3741.6,1256.0L3740.1,1258.8L3746.6,1265.9L3751.0,1278.2L3755.5,1275.7L3760.2,1280.6L3763.0,1278.9L3764.9,1290.9L3773.0,1297.9L3778.3,1302.3L3787.2,1311.5L3790.4,1320.6L3790.6,1327.1L3789.9,1334.2L3795.3,1343.8L3794.6,1353.9L3792.6,1359.2L3789.6,1369.3L3789.8,1375.8L3787.6,1384.0L3782.5,1394.4L3774.1,1399.9L3770.0,1408.8L3766.1,1414.4L3762.8,1424.2L3758.4,1429.9L3755.5,1438.4L3754.1,1446.2L3754.6,1449.8L3748.1,1453.8L3735.4,1454.2L3724.9,1458.8L3719.7,1463.3L3712.8,1468.1L3703.4,1463.1L3696.4,1461.1L3698.2,1455.2L3691.9,1457.3L3682.0,1465.6L3672.1,1462.5L3665.7,1460.7L3659.2,1459.9L3648.1,1456.6L3640.8,1449.6L3638.7,1440.9L3636.1,1435.2L3630.4,1430.6L3619.5,1429.2L3623.2,1423.7L3620.5,1415.2L3614.9,1423.1L3604.8,1425.2L3610.8,1418.9L3612.5,1412.3L3616.9,1406.8L3616.0,1398.3L3606.7,1408.0L3599.6,1411.9L3595.3,1421.0L3586.4,1416.3L3586.7,1410.3L3579.6,1402.0L3573.6,1397.7L3575.7,1395.1L3561.1,1388.2L3553.2,1387.9L3542.2,1382.4L3521.8,1383.4L3507.1,1387.5L3494.1,1391.3L3483.3,1390.5L3471.2,1396.4L3461.4,1399.0L3459.2,1405.0L3455.0,1409.6L3445.3,1409.9L3438.2,1410.9L3428.1,1408.8L3419.9,1410.0L3412.1,1410.6L3405.4,1416.6L3402.0,1416.1L3396.3,1419.4L3390.9,1423.0L3382.6,1422.5L3374.9,1422.5L3362.8,1415.2L3356.7,1413.1L3357.0,1406.6L3362.6,1405.0L3364.6,1402.4L3364.2,1398.3L3365.6,1390.4L3364.3,1383.7L3358.3,1372.2L3356.4,1365.7L3356.9,1359.2L3352.4,1351.8L3352.1,1348.4L3347.0,1343.9L3345.6,1335.0L3339.1,1326.0L3337.5,1321.2L3342.5,1326.1L3338.7,1315.5L3344.3,1318.8L3347.7,1323.2L3347.5,1317.4L3341.9,1308.4L3340.8,1304.8L3338.2,1301.4L3339.4,1294.9L3341.7,1292.1L3343.3,1286.4L3342.1,1279.7L3346.8,1271.5L3347.6,1280.2L3352.4,1272.4L3361.7,1268.6L3367.2,1263.7L3375.9,1259.5L3381.1,1258.6L3384.2,1260.1L3393.2,1255.8L3400.1,1254.5L3401.8,1252.1L3404.8,1251.0L3411.1,1251.3L3423.1,1248.0L3429.2,1242.9L3432.2,1236.8L3438.8,1231.1L3439.4,1226.5L3439.7,1220.3L3447.6,1210.7L3452.4,1220.5L3457.3,1218.2L3453.2,1212.8L3456.8,1207.3L3461.8,1209.8L3463.2,1201.1L3469.4,1195.5L3472.1,1191.0L3477.9,1189.1L3478.0,1185.9L3483.0,1187.2L3483.2,1184.4L3488.2,1182.8L3493.7,1181.2L3502.1,1186.4L3508.5,1193.2L3515.6,1193.2L3522.8,1194.3L3520.4,1188.1L3525.8,1179.0L3531.0,1176.0L3529.2,1173.1L3534.1,1166.6L3541.0,1162.6L3546.8,1164.0L3556.4,1161.8L3556.2,1156.0L3547.9,1152.3L3553.9,1150.6L3561.5,1153.4L3567.5,1158.1L3577.1,1161.0L3580.3,1159.9L3587.4,1163.4L3594.0,1160.1L3598.3,1161.1L3601.0,1158.9L3606.2,1164.5L3603.2,1170.6L3598.9,1175.2L3594.9,1175.6L3596.2,1180.2L3592.9,1185.8L3588.9,1191.4L3589.7,1194.6L3598.7,1200.9L3607.5,1204.6L3613.4,1208.5L3621.6,1215.2L3624.8,1215.2L3630.7,1218.1L3632.5,1221.7L3643.3,1225.5L3650.8,1221.6L3653.1,1215.5L3655.4,1210.5L3656.8,1204.2L3660.3,1195.2L3658.7,1189.7L3659.5,1186.4L3658.2,1179.8L3659.7,1171.3L3661.9,1169.0L3660.1,1165.2L3662.8,1159.1L3665.0,1152.9L3665.3,1149.6L3669.5,1145.4L3672.7,1150.9L3673.5,1158.1L3676.4,1159.5L3676.8,1164.2L3680.9,1170.0L3681.8,1176.5L3681.4,1180.6ZM3892.5,1143.3L3895.7,1147.2L3887.8,1147.1L3883.5,1140.1L3890.3,1142.9L3892.5,1143.3ZM3421.5,1140.5L3416.7,1140.7L3401.6,1132.7L3412.2,1130.5L3418.2,1134.0L3422.2,1137.4L3421.5,1140.5ZM3878.1,1136.3L3873.7,1136.6L3866.7,1135.4L3864.4,1133.7L3865.1,1129.2L3872.6,1130.9L3876.3,1133.3L3878.1,1136.3ZM3887.6,1133.2L3885.8,1135.3L3877.4,1125.5L3875.1,1118.7L3878.9,1118.7L3883.0,1127.8L3887.6,1133.2ZM3463.8,1139.4L3454.1,1141.9L3452.7,1140.5L3453.7,1136.6L3458.6,1129.7L3469.9,1125.2L3471.2,1122.5L3481.0,1119.9L3488.9,1119.5L3492.5,1118.1L3496.8,1119.5L3492.6,1122.6L3480.8,1127.6L3471.2,1130.9L3463.8,1139.4ZM3389.4,1116.1L3393.5,1119.1L3400.6,1118.2L3403.4,1123.1L3390.3,1125.3L3382.3,1126.9L3376.2,1126.8L3380.1,1120.2L3386.4,1120.1L3389.4,1116.1ZM3446.4,1116.1L3444.7,1122.4L3427.6,1125.7L3412.5,1124.2L3412.5,1120.1L3421.5,1117.7L3428.6,1121.1L3436.2,1120.3L3446.4,1116.1ZM3867.0,1118.9L3867.5,1121.1L3858.6,1116.3L3852.4,1112.2L3848.1,1108.4L3849.8,1107.3L3855.0,1110.0L3864.4,1115.3L3867.0,1118.9ZM3840.4,1107.6L3838.2,1108.2L3833.2,1105.7L3828.5,1101.0L3829.1,1099.1L3835.9,1103.9L3840.4,1107.6ZM3283.9,1101.1L3305.7,1102.3L3308.2,1097.6L3329.3,1103.0L3333.4,1110.4L3350.5,1112.5L3364.5,1119.2L3351.5,1123.6L3339.0,1119.0L3328.7,1119.3L3316.9,1118.5L3306.2,1116.4L3293.1,1112.1L3284.7,1110.9L3279.9,1112.4L3259.2,1107.7L3257.3,1102.8L3246.8,1101.9L3254.6,1091.1L3268.4,1091.8L3277.6,1096.2L3282.3,1097.1L3283.9,1101.1ZM3580.9,1094.7L3575.0,1102.4L3573.9,1093.9L3575.9,1089.8L3578.3,1085.9L3580.9,1089.3L3580.9,1094.7ZM3821.6,1101.6L3818.4,1102.7L3813.5,1098.4L3808.5,1091.1L3806.0,1082.5L3807.6,1081.4L3808.8,1084.8L3812.3,1087.3L3817.8,1094.6L3823.2,1098.4L3821.6,1101.6ZM3777.2,1086.3L3771.3,1087.3L3769.5,1090.5L3763.2,1093.2L3757.4,1095.9L3751.4,1095.9L3742.0,1092.6L3735.5,1089.4L3736.5,1085.9L3746.7,1087.5L3752.9,1086.6L3754.6,1081.2L3756.3,1080.9L3757.4,1086.9L3763.9,1086.1L3767.0,1082.2L3773.4,1078.1L3772.2,1071.4L3779.0,1071.2L3781.3,1073.1L3781.1,1079.4L3777.2,1086.3ZM3495.8,1063.4L3491.5,1067.1L3483.7,1065.1L3481.5,1060.2L3493.0,1059.6L3495.8,1063.4ZM3532.5,1059.2L3536.6,1067.9L3527.0,1063.2L3517.5,1062.3L3511.1,1063.0L3503.2,1062.6L3505.9,1056.3L3520.0,1055.9L3532.5,1059.2ZM3790.4,1075.2L3786.8,1078.2L3784.7,1071.5L3782.0,1067.1L3776.9,1063.4L3770.4,1058.5L3762.2,1055.2L3765.4,1052.4L3771.5,1055.6L3775.4,1058.1L3780.2,1060.9L3784.7,1065.6L3789.0,1069.3L3790.4,1075.2ZM3574.2,1037.1L3577.4,1055.5L3589.2,1062.3L3598.7,1050.2L3611.8,1043.4L3621.9,1043.4L3631.6,1047.3L3640.1,1051.4L3652.3,1053.6L3672.0,1061.4L3693.0,1067.9L3700.9,1073.8L3707.2,1079.5L3709.0,1086.2L3727.9,1093.2L3730.7,1099.3L3720.2,1100.5L3722.7,1108.1L3732.9,1115.5L3740.3,1127.6L3746.8,1127.2L3746.3,1132.3L3755.1,1134.2L3751.7,1136.3L3763.8,1141.1L3762.5,1144.4L3755.0,1145.2L3752.2,1142.3L3742.4,1141.0L3730.9,1139.3L3722.1,1132.0L3715.6,1125.8L3709.7,1115.8L3694.9,1110.8L3685.2,1114.1L3678.3,1117.8L3679.7,1126.2L3670.8,1130.1L3664.4,1128.2L3652.6,1127.7L3642.5,1118.4L3631.0,1116.1L3628.2,1119.4L3613.7,1119.7L3618.6,1110.4L3625.7,1107.3L3622.8,1094.9L3617.3,1085.4L3595.3,1075.7L3585.9,1074.8L3568.8,1064.3L3565.4,1069.8L3561.1,1070.8L3558.5,1066.6L3558.4,1061.7L3549.8,1056.1L3562.0,1052.0L3570.1,1052.2L3569.2,1049.2L3552.5,1049.2L3548.0,1042.4L3537.8,1040.3L3533.0,1034.7L3548.4,1031.9L3554.2,1028.2L3572.4,1032.9L3574.2,1037.1ZM3473.0,1007.8L3463.8,1019.1L3455.3,1021.3L3444.3,1019.1L3425.4,1019.7L3415.4,1021.3L3413.8,1029.9L3424.0,1040.0L3430.1,1034.9L3451.3,1031.0L3450.4,1036.2L3445.5,1034.6L3440.5,1041.3L3430.5,1045.7L3441.2,1060.3L3439.2,1064.2L3449.4,1077.3L3449.3,1084.8L3443.3,1088.1L3438.8,1084.1L3444.3,1074.8L3433.1,1079.2L3430.3,1076.0L3431.7,1071.7L3423.6,1065.0L3424.4,1053.9L3416.8,1057.3L3417.8,1070.6L3418.2,1086.9L3411.0,1088.5L3406.1,1085.2L3409.4,1074.7L3407.6,1063.8L3402.8,1063.7L3399.3,1055.9L3404.0,1048.4L3405.7,1039.4L3411.3,1022.2L3413.7,1017.6L3423.4,1009.1L3432.3,1012.5L3446.7,1014.0L3459.7,1013.6L3471.0,1005.3L3473.0,1007.8ZM3512.2,1011.1L3511.6,1021.1L3505.7,1019.9L3504.0,1026.9L3508.7,1032.9L3505.5,1034.2L3500.9,1027.0L3497.5,1012.5L3499.8,1003.4L3503.6,999.3L3504.4,1005.5L3511.1,1006.5L3512.2,1011.1ZM3252.0,1090.6L3239.4,1090.8L3229.8,1081.3L3215.2,1072.0L3210.3,1065.1L3201.7,1055.9L3196.1,1047.3L3187.4,1031.4L3177.4,1021.9L3174.1,1012.1L3169.8,1003.3L3159.6,996.1L3153.7,986.3L3145.1,980.0L3133.2,967.4L3132.2,961.7L3139.5,962.1L3157.1,964.3L3167.2,975.4L3176.0,983.1L3182.3,987.9L3193.1,1000.1L3204.7,1000.3L3214.2,1008.1L3220.8,1017.6L3229.4,1022.8L3224.9,1032.1L3231.4,1036.0L3235.5,1036.3L3237.4,1044.3L3241.4,1050.6L3249.8,1051.6L3255.3,1058.8L3252.4,1073.0L3252.0,1090.6ZM3389.1,1003.2L3401.9,1013.7L3388.4,1015.1L3384.6,1022.8L3385.1,1033.1L3374.2,1040.9L3373.9,1052.3L3369.5,1069.7L3367.8,1065.6L3354.9,1070.7L3350.4,1063.8L3342.3,1063.1L3336.6,1059.5L3323.1,1063.6L3318.9,1058.1L3311.5,1058.7L3302.1,1057.4L3300.3,1042.1L3294.7,1039.0L3289.2,1029.2L3287.6,1019.3L3289.0,1008.7L3295.7,1001.2L3304.1,1005.1L3312.8,1002.9L3315.1,993.3L3320.0,991.2L3333.6,988.7L3341.8,979.7L3347.4,972.5L3351.9,968.2L3361.6,962.0L3370.3,954.1L3376.1,945.2L3380.7,945.2L3386.5,950.9L3387.1,955.9L3394.6,959.1L3404.0,962.5L3403.2,966.9L3395.6,967.5L3397.6,973.1L3389.2,976.9L3382.8,987.2L3391.1,998.0L3389.1,1003.2ZM3485.9,928.3L3487.0,935.8L3487.7,942.2L3483.8,952.6L3479.7,941.0L3474.3,946.8L3478.0,955.2L3474.8,960.5L3461.4,953.9L3458.2,945.7L3461.6,940.3L3454.4,934.9L3450.8,939.6L3445.5,939.1L3437.1,945.5L3435.2,942.2L3439.7,932.6L3446.8,929.4L3453.0,925.1L3457.0,930.2L3465.7,927.1L3467.5,922.0L3475.6,921.8L3474.9,913.0L3484.1,918.3L3485.1,924.1L3485.9,928.3ZM2972.1,953.5L2962.2,956.1L2956.8,947.0L2954.8,930.7L2959.9,912.2L2967.8,918.5L2973.1,926.6L2978.6,938.4L2976.8,950.3L2972.1,953.5ZM1354.7,909.0L1345.2,910.2L1343.1,909.2L1346.5,906.1L1346.2,901.6L1352.8,900.1L1355.1,900.5L1354.7,909.0ZM3458.7,907.0L3454.6,910.8L3451.0,918.0L3447.4,921.4L3440.4,913.5L3442.8,910.4L3445.6,907.3L3446.9,900.2L3453.1,899.5L3451.3,907.2L3459.7,896.2L3458.7,907.0ZM3396.3,918.0L3381.2,928.8L3386.8,920.8L3395.0,913.8L3401.8,905.9L3407.8,894.6L3409.8,903.9L3402.3,910.2L3396.3,918.0ZM3434.8,888.7L3441.6,892.2L3448.8,892.2L3448.6,897.0L3443.3,901.8L3436.1,905.2L3435.7,899.9L3436.5,894.1L3434.8,888.7ZM3475.9,885.6L3479.1,898.3L3470.4,895.3L3470.6,899.1L3473.4,906.1L3468.0,908.7L3467.5,900.7L3464.1,900.1L3462.3,893.2L3469.0,894.1L3468.8,889.8L3461.9,881.1L3472.8,881.4L3475.9,885.6ZM3430.7,875.3L3427.7,885.1L3422.8,879.4L3417.0,870.8L3426.7,871.2L3430.7,875.3ZM3428.4,813.5L3435.4,816.7L3438.9,813.8L3439.9,816.6L3438.1,821.4L3441.9,829.5L3439.0,839.0L3432.2,842.7L3430.5,851.9L3433.0,861.0L3439.0,862.2L3444.1,860.9L3458.3,867.2L3457.2,873.4L3460.9,876.1L3459.7,881.4L3450.9,875.8L3446.7,869.8L3443.7,874.0L3436.5,867.2L3426.1,868.8L3420.5,866.3L3421.1,861.6L3424.6,858.7L3421.2,856.1L3419.7,860.2L3414.1,853.7L3412.5,848.7L3412.0,837.8L3416.6,841.6L3417.8,823.8L3421.5,813.5L3428.4,813.5ZM1301.7,816.6L1298.8,819.5L1290.3,819.4L1283.6,819.8L1282.9,814.9L1284.6,813.3L1293.9,813.3L1299.7,814.3L1301.7,816.6ZM1173.0,820.7L1169.6,822.6L1163.2,820.8L1156.7,816.6L1158.1,814.0L1162.8,813.2L1165.4,813.6L1173.1,814.6L1179.1,817.4L1181.0,820.5L1173.0,820.7ZM1222.2,797.9L1232.1,799.7L1233.5,797.8L1242.4,797.8L1249.1,800.7L1252.1,800.5L1254.2,804.5L1260.4,804.3L1260.0,807.7L1265.1,808.1L1270.7,812.2L1266.5,816.9L1261.0,814.4L1255.8,814.9L1252.1,814.3L1250.0,816.4L1245.7,817.1L1243.9,814.3L1240.2,816.0L1235.6,823.8L1232.7,822.0L1232.1,818.7L1224.6,816.8L1219.2,817.6L1212.3,816.7L1206.9,818.8L1200.8,815.3L1201.8,811.6L1212.3,813.2L1220.9,814.1L1225.0,811.6L1219.8,806.7L1219.9,802.3L1212.7,800.5L1215.3,797.4L1222.2,797.9ZM3303.4,811.5L3293.6,817.0L3284.2,813.4L3283.9,803.6L3289.5,798.5L3302.0,795.3L3308.5,795.6L3311.0,799.9L3306.0,804.9L3303.4,811.5ZM278.3,806.9L276.6,808.8L273.8,807.2L274.1,804.0L272.2,799.8L272.8,798.6L274.8,796.7L274.0,794.5L274.6,793.4L275.5,793.6L279.9,795.5L281.9,796.5L283.7,798.0L286.6,802.0L286.4,802.7L281.9,805.1L278.3,806.9ZM272.2,789.1L268.3,789.9L266.4,787.5L265.1,786.6L265.0,785.9L266.1,784.9L270.1,786.0L273.1,787.7L272.2,789.1ZM264.4,783.1L264.1,784.3L258.0,783.9L258.8,782.6L264.4,783.1ZM254.2,781.4L253.6,782.1L252.8,781.9L248.9,781.5L247.4,778.9L247.0,778.5L250.0,776.9L251.0,777.6L254.2,781.4ZM235.0,773.9L233.6,775.0L229.8,773.0L230.4,772.1L232.2,771.0L234.8,771.2L235.0,773.9ZM1141.4,765.0L1145.9,769.1L1156.6,767.9L1160.6,770.5L1170.2,777.6L1177.3,782.7L1181.1,782.6L1187.9,784.9L1187.0,788.1L1195.4,788.6L1204.0,793.2L1202.7,795.9L1195.1,797.3L1187.4,797.9L1179.6,797.0L1163.3,798.1L1170.9,791.7L1166.3,788.8L1159.0,788.0L1155.0,784.7L1152.3,778.3L1145.9,778.7L1135.3,775.6L1131.9,773.3L1117.1,771.5L1113.1,769.3L1117.4,766.4L1106.2,765.9L1098.0,771.8L1093.3,771.9L1091.7,774.7L1086.0,776.0L1081.2,774.9L1087.2,771.4L1089.6,767.3L1094.8,764.7L1100.6,762.5L1109.2,761.4L1112.0,760.2L1121.8,761.0L1130.8,761.1L1141.4,765.0ZM1165.8,753.7L1163.0,754.2L1160.2,747.7L1155.9,744.4L1158.4,737.2L1161.8,737.6L1165.8,747.1L1165.8,753.7ZM3426.7,764.7L3421.8,774.0L3415.9,764.4L3414.5,756.0L3421.2,744.8L3430.4,736.2L3435.6,739.6L3433.5,746.5L3426.7,764.7ZM1162.6,721.6L1150.2,723.4L1149.4,719.2L1154.7,718.3L1162.3,718.6L1162.6,721.6ZM1171.9,721.5L1170.0,729.5L1167.9,728.1L1168.0,722.2L1162.9,717.6L1162.9,716.4L1171.9,721.5ZM3579.9,635.5L3581.3,639.4L3574.9,646.2L3570.3,642.6L3564.4,645.2L3561.4,651.9L3554.0,648.7L3554.1,643.3L3560.4,636.5L3566.9,637.8L3571.5,633.0L3579.9,635.5ZM2441.4,618.1L2433.7,623.0L2434.6,625.1L2434.9,626.0L2423.2,630.7L2417.6,629.2L2415.0,624.6L2420.4,624.2L2421.2,624.1L2422.8,621.4L2431.0,621.5L2441.4,618.1ZM2317.7,617.8L2323.9,621.6L2332.7,620.9L2341.2,621.7L2340.9,623.7L2347.1,622.4L2345.7,625.7L2329.3,626.7L2329.4,624.8L2315.5,622.6L2317.7,617.8ZM2224.6,589.0L2220.5,598.0L2222.2,601.5L2219.8,607.3L2211.1,603.1L2205.3,601.8L2189.5,596.1L2191.0,590.2L2204.3,591.2L2216.0,590.0L2224.6,589.0ZM2152.8,555.1L2159.6,563.2L2158.0,578.3L2152.8,577.5L2148.2,581.3L2143.9,578.3L2143.5,564.6L2140.8,558.1L2147.1,558.7L2152.8,555.1ZM3652.0,601.4L3647.7,610.5L3649.7,616.2L3643.8,624.2L3629.2,629.6L3609.2,630.3L3593.0,643.3L3585.4,638.9L3584.9,630.4L3565.1,632.9L3551.6,638.2L3538.3,638.5L3549.9,646.8L3542.3,666.2L3534.9,670.9L3529.4,666.5L3532.2,656.3L3525.0,653.0L3520.4,645.2L3531.2,641.7L3537.1,634.5L3548.6,628.6L3556.9,620.9L3579.5,617.4L3591.7,619.8L3603.6,599.6L3611.2,605.0L3627.9,593.6L3634.4,589.2L3641.5,575.3L3639.6,562.5L3644.4,555.3L3656.5,553.2L3662.7,569.0L3662.3,578.2L3651.8,589.7L3652.0,601.4ZM2156.8,544.4L2153.0,553.2L2147.8,550.9L2145.2,543.2L2147.5,539.0L2154.8,534.6L2156.8,544.4ZM3685.4,521.4L3693.4,523.8L3701.4,519.0L3704.0,531.8L3687.1,534.9L3677.1,546.2L3659.2,538.4L3653.0,550.9L3640.4,551.0L3638.8,539.7L3644.5,531.0L3656.6,530.3L3659.9,514.6L3663.3,505.7L3676.6,517.6L3685.4,521.4ZM1323.6,494.4L1331.9,495.9L1342.4,495.6L1336.8,500.2L1332.6,501.0L1318.2,496.2L1315.4,492.4L1319.7,488.8L1323.6,494.4ZM1344.8,465.3L1339.2,465.5L1324.5,461.9L1313.9,456.6L1317.9,455.6L1332.8,458.5L1344.4,463.2L1344.8,465.3ZM642.8,472.1L637.0,473.7L618.3,468.5L614.9,464.4L604.7,460.5L602.7,457.2L591.0,455.2L586.6,449.0L587.6,446.3L599.5,448.8L606.5,450.5L617.2,451.8L621.0,455.7L626.7,461.1L638.0,465.8L642.8,472.1ZM1409.3,447.3L1401.8,457.2L1409.2,453.4L1416.9,455.8L1412.8,459.8L1423.0,462.9L1428.2,460.2L1439.6,463.7L1436.0,472.0L1444.0,470.0L1445.5,476.1L1449.0,483.1L1444.2,493.2L1439.1,493.6L1431.6,491.4L1434.0,482.1L1430.9,480.7L1417.7,490.6L1410.9,490.2L1418.9,484.8L1408.0,482.0L1395.8,482.7L1373.7,482.4L1371.9,479.0L1379.0,475.0L1374.1,471.9L1383.6,465.1L1395.4,446.9L1402.4,440.5L1412.3,436.5L1417.6,437.0L1415.4,440.1L1409.3,447.3ZM538.1,409.1L549.0,408.2L545.6,421.2L555.5,430.3L550.9,430.3L544.1,425.1L539.9,419.8L534.1,416.3L532.0,411.3L532.7,407.7L538.1,409.1ZM3682.4,446.6L3693.9,466.8L3677.0,463.0L3670.0,479.4L3681.1,491.1L3680.8,499.1L3672.1,492.2L3664.7,501.0L3662.6,491.4L3663.9,480.4L3662.6,468.1L3665.2,459.5L3665.7,444.3L3659.0,433.1L3660.0,417.5L3670.5,412.3L3666.0,407.0L3671.1,405.4L3674.1,413.0L3678.0,423.9L3677.7,435.1L3682.4,446.6ZM1970.8,429.4L1950.6,436.1L1934.5,434.4L1943.7,422.5L1937.8,410.9L1953.2,402.0L1961.8,396.7L1971.4,396.3L1983.6,403.3L1977.5,411.1L1979.4,419.2L1970.8,429.4ZM2192.4,391.3L2185.6,400.5L2173.6,394.1L2172.0,389.3L2188.8,385.6L2192.4,391.3ZM307.1,374.1L295.8,378.5L290.0,375.6L288.2,370.2L298.5,366.2L304.6,364.4L312.2,365.2L317.0,368.7L307.1,374.1ZM2013.8,356.9L2001.7,369.2L2013.2,367.6L2025.7,367.7L2022.7,376.9L2012.5,387.1L2024.3,387.9L2035.3,402.5L2043.1,404.3L2050.1,417.3L2053.3,421.8L2067.1,423.9L2065.8,431.2L2059.9,434.6L2064.5,440.4L2054.2,446.4L2039.1,446.3L2019.7,449.4L2014.4,447.2L2006.9,452.5L1996.3,451.2L1988.3,455.6L1982.3,453.3L1998.9,441.3L2009.1,438.9L1991.3,437.0L1988.1,432.5L2000.0,428.9L1993.7,422.8L1995.9,415.3L2012.8,416.4L2014.5,409.8L2006.7,402.6L1992.9,400.6L1990.2,397.5L1994.3,392.4L1990.6,389.3L1984.4,394.7L1983.8,383.7L1978.0,377.9L1982.2,366.2L1991.0,356.9L2000.1,357.8L2013.8,356.9ZM164.1,342.4L157.1,344.1L149.6,342.0L142.7,338.9L154.0,337.0L163.0,338.0L164.1,342.4ZM1146.1,316.8L1141.7,322.7L1136.7,321.8L1133.7,318.4L1134.2,317.6L1138.6,314.2L1143.2,314.4L1146.1,316.8ZM1116.2,310.5L1102.9,316.8L1094.8,316.5L1092.3,313.4L1100.8,308.2L1116.4,308.3L1116.2,310.5ZM94.1,298.3L101.1,300.5L108.2,299.3L117.4,302.3L128.7,303.8L127.8,305.1L119.1,307.5L110.5,305.0L106.1,302.9L96.1,303.6L93.4,302.6L94.1,298.3ZM1079.1,277.0L1081.2,282.0L1087.0,280.2L1093.6,283.2L1106.1,287.1L1119.1,290.6L1120.1,296.1L1128.5,295.2L1136.6,298.9L1126.5,302.5L1108.8,299.8L1102.4,294.7L1091.1,300.7L1074.9,306.6L1071.0,299.9L1055.6,301.0L1065.5,295.4L1066.9,286.5L1070.8,276.0L1079.1,277.0ZM1882.9,267.9L1880.3,275.2L1893.1,283.0L1878.4,291.7L1845.6,299.5L1835.7,301.5L1820.8,299.9L1789.0,296.3L1800.2,291.2L1775.4,285.7L1795.6,283.5L1795.1,280.1L1771.2,277.5L1778.9,270.1L1796.2,268.4L1813.9,276.1L1831.2,269.9L1845.5,273.1L1864.0,267.1L1882.9,267.9ZM1184.8,260.0L1172.0,260.6L1169.2,255.0L1174.0,248.6L1184.5,247.0L1193.4,250.2L1193.5,255.1L1192.2,256.6L1184.8,260.0ZM0.0,239.3L27.9,248.0L57.7,259.4L56.7,266.4L64.4,269.3L61.8,261.0L92.7,262.7L114.9,273.3L103.6,278.3L85.0,279.5L84.7,290.6L80.2,292.9L69.5,292.6L60.8,288.6L45.7,285.3L43.2,280.4L31.6,278.5L18.7,280.0L12.5,276.0L15.0,271.8L1.3,274.5L6.5,279.8L0.0,284.7L4095.9,284.7L4081.3,289.7L4066.5,288.9L4076.8,295.0L4083.6,304.3L4088.8,307.4L4090.1,312.1L4087.2,315.1L4066.0,312.6L4034.2,321.2L4024.1,322.5L4006.7,330.5L3990.2,337.5L3986.0,342.7L3969.7,334.8L3940.1,343.7L3934.9,339.5L3923.9,344.4L3908.7,342.8L3905.0,350.3L3891.4,361.3L3891.8,365.9L3904.8,368.5L3903.2,385.0L3892.7,385.5L3887.8,395.0L3892.5,399.9L3872.6,405.7L3868.7,418.7L3851.7,421.4L3848.3,433.0L3831.9,443.6L3827.7,435.8L3822.8,419.2L3816.5,393.9L3822.0,378.1L3831.6,371.3L3832.2,366.0L3849.8,363.5L3870.1,349.1L3889.8,337.4L3910.2,328.4L3919.3,312.3L3905.5,313.3L3898.7,322.7L3869.8,335.1L3860.5,321.2L3831.1,325.0L3802.6,344.1L3812.1,351.1L3786.7,354.0L3769.1,355.2L3769.9,347.0L3752.2,345.2L3738.1,350.8L3703.3,348.9L3665.9,352.3L3629.1,374.5L3585.4,401.3L3603.4,402.7L3608.9,409.9L3620.0,412.4L3627.3,406.7L3639.8,407.4L3656.2,420.0L3656.6,429.6L3647.7,441.0L3646.7,454.6L3641.6,472.8L3624.5,489.2L3620.6,497.1L3605.2,510.4L3589.9,523.5L3582.5,530.2L3567.4,536.9L3560.2,537.0L3553.0,531.5L3537.8,539.8L3536.0,543.6L3531.6,542.9L3526.7,546.8L3523.3,550.7L3523.7,558.8L3517.9,561.3L3515.8,563.4L3511.6,566.7L3504.0,568.6L3499.0,571.7L3498.7,576.6L3497.4,577.8L3501.9,579.7L3508.3,584.7L3518.2,598.1L3521.0,605.5L3521.1,618.6L3516.8,624.8L3506.5,627.0L3497.4,631.7L3487.1,632.7L3485.9,626.5L3488.0,618.0L3482.9,606.1L3491.4,604.2L3483.6,594.5L3478.1,592.3L3476.7,594.5L3473.4,595.4L3473.0,593.3L3470.0,592.2L3466.9,590.4L3470.1,585.4L3472.7,584.1L3471.7,582.0L3474.6,575.9L3473.9,574.0L3467.2,572.8L3461.9,569.7L3446.0,573.0L3437.6,578.3L3425.3,581.4L3431.4,576.2L3429.0,571.7L3438.0,564.1L3432.0,558.1L3422.1,562.1L3409.2,570.1L3402.2,577.4L3391.1,577.9L3385.3,583.2L3391.3,590.9L3400.6,592.8L3400.9,597.9L3410.0,601.2L3422.7,593.1L3432.8,597.6L3440.1,597.8L3442.0,603.8L3425.9,607.0L3420.6,613.1L3409.5,618.8L3403.7,626.8L3415.9,633.0L3420.4,644.3L3427.3,654.7L3435.1,663.4L3434.9,671.9L3427.7,675.0L3430.4,681.0L3437.2,684.6L3435.4,693.8L3432.5,702.9L3426.1,703.9L3417.8,716.2L3408.6,731.1L3398.0,744.7L3382.4,755.2L3366.6,764.8L3353.8,766.1L3346.8,771.1L3342.9,767.4L3336.4,773.1L3320.5,778.8L3308.5,780.5L3304.6,792.6L3298.3,793.2L3295.3,785.0L3298.0,780.6L3282.7,776.9L3277.4,778.8L3262.2,788.5L3252.7,799.3L3250.2,807.2L3258.9,819.2L3269.5,834.0L3279.9,841.0L3286.8,850.2L3292.0,871.2L3290.5,891.3L3281.0,898.7L3267.9,906.1L3258.6,915.6L3244.5,926.1L3240.3,918.9L3243.5,911.1L3235.1,904.7L3225.6,903.0L3221.0,897.1L3215.2,885.3L3205.0,880.1L3195.2,880.3L3196.9,871.4L3186.9,871.5L3186.0,884.0L3179.8,900.6L3176.2,910.6L3176.9,918.9L3184.3,919.2L3189.0,929.6L3191.0,939.5L3197.4,946.0L3204.3,947.3L3210.1,953.2L3212.8,954.3L3219.5,961.1L3224.2,968.8L3224.9,976.4L3223.7,981.6L3224.8,985.5L3225.6,992.2L3229.6,995.4L3234.1,1005.4L3233.9,1009.3L3225.8,1010.1L3215.1,1001.6L3201.6,992.6L3200.3,986.8L3193.7,979.2L3192.1,969.8L3188.0,963.6L3189.3,955.3L3186.8,950.4L3182.3,946.1L3180.3,940.5L3174.3,934.0L3168.7,928.6L3166.9,935.3L3164.7,929.0L3166.0,921.9L3169.3,911.0L3168.2,902.5L3171.7,893.8L3167.9,887.1L3168.8,874.7L3164.2,868.8L3160.5,855.2L3158.5,840.8L3153.5,831.4L3146.0,837.1L3133.1,845.2L3126.7,844.2L3119.7,841.5L3123.6,827.4L3121.2,816.8L3112.3,803.6L3113.7,799.5L3107.0,798.1L3098.9,788.8L3095.7,782.9L3095.1,777.1L3092.9,771.6L3088.1,765.0L3077.6,764.5L3078.7,769.2L3075.1,775.6L3070.3,773.2L3068.6,775.3L3065.4,774.1L3061.0,773.0L3059.4,777.2L3051.6,777.1L3037.6,779.4L3038.2,788.0L3032.2,794.7L3015.8,802.4L3003.1,815.8L2994.5,822.9L2983.2,830.4L2983.1,835.6L2977.5,838.4L2967.3,842.5L2961.9,843.1L2958.5,851.8L2960.9,866.6L2961.5,876.0L2956.6,886.8L2956.6,906.2L2950.7,906.7L2945.5,915.4L2949.0,919.1L2938.6,922.4L2934.8,930.1L2930.2,933.4L2919.5,922.7L2914.2,906.8L2909.8,895.3L2905.9,890.0L2899.8,879.0L2897.0,864.8L2895.0,857.7L2884.6,842.1L2879.9,820.0L2876.5,805.5L2876.6,791.7L2874.4,781.0L2857.8,787.8L2849.8,786.5L2835.0,772.7L2840.4,768.6L2837.0,764.1L2823.7,754.4L2815.4,751.6L2812.0,743.4L2803.2,734.7L2782.2,736.9L2763.7,737.1L2747.7,738.7L2726.3,735.2L2713.9,732.6L2701.1,731.1L2696.2,717.2L2690.8,715.2L2682.0,717.2L2670.5,722.7L2656.7,718.9L2645.1,710.2L2634.2,707.0L2626.6,696.2L2618.2,681.0L2612.1,682.8L2604.8,679.1L2600.6,683.5L2593.9,682.9L2596.2,688.0L2595.2,690.6L2598.9,699.1L2603.3,709.0L2608.9,711.6L2610.9,715.5L2618.6,720.3L2619.3,725.0L2618.2,728.8L2619.6,732.6L2622.9,735.8L2624.4,739.6L2626.1,742.4L2625.4,734.1L2628.4,728.1L2631.5,726.9L2635.0,730.5L2635.2,737.1L2632.7,743.8L2634.9,748.1L2636.9,747.6L2637.3,750.7L2646.2,748.9L2655.6,749.2L2662.5,749.6L2670.3,741.9L2678.8,734.6L2686.0,727.5L2689.3,723.7L2690.7,724.7L2689.6,729.4L2688.1,731.4L2689.7,740.4L2694.8,748.2L2701.1,752.3L2709.5,753.8L2716.2,755.9L2721.3,762.4L2724.4,766.2L2728.5,767.6L2728.5,770.2L2724.3,776.9L2722.5,780.1L2717.7,783.8L2713.5,791.6L2708.3,791.0L2705.9,793.7L2704.1,799.5L2705.5,807.1L2704.5,808.4L2699.2,808.4L2692.1,812.7L2691.0,818.2L2688.4,820.6L2681.3,820.5L2676.8,823.4L2676.9,828.0L2671.4,831.1L2665.1,830.1L2657.5,833.9L2652.3,834.5L2644.0,837.6L2641.8,842.7L2641.6,846.5L2630.2,851.3L2612.0,856.6L2601.8,864.7L2596.8,865.3L2593.4,864.6L2586.8,869.4L2579.5,871.5L2570.0,872.1L2567.1,872.8L2564.6,875.8L2561.6,876.6L2559.9,879.5L2554.3,879.3L2550.6,880.8L2542.7,880.2L2539.8,873.6L2540.1,867.4L2538.2,864.0L2536.0,855.6L2532.7,850.9L2535.0,850.3L2533.9,845.1L2535.2,843.0L2534.8,838.0L2533.3,833.1L2529.8,829.7L2528.9,825.2L2523.1,821.1L2517.0,811.6L2513.8,802.3L2505.9,794.5L2500.8,792.6L2493.3,781.8L2492.0,773.8L2492.5,767.1L2486.0,754.5L2480.6,750.0L2474.5,747.7L2470.7,741.2L2471.3,738.6L2468.2,732.7L2464.9,730.2L2460.5,721.7L2453.5,712.5L2447.7,704.7L2442.0,704.8L2443.8,698.5L2444.3,694.5L2445.7,690.0L2445.3,688.3L2442.1,692.9L2439.7,701.5L2436.6,707.4L2433.9,709.4L2430.1,705.7L2425.0,700.7L2416.9,684.4L2415.7,685.4L2420.4,697.4L2427.4,708.8L2436.0,726.6L2440.2,732.7L2443.9,739.2L2454.1,751.8L2451.8,753.8L2452.2,761.1L2465.4,771.4L2467.5,773.7L2471.1,784.9L2468.6,786.9L2470.3,798.6L2474.5,812.2L2478.8,815.0L2485.0,819.2L2491.6,832.4L2494.8,842.8L2501.0,848.4L2516.5,859.1L2522.8,865.6L2529.0,872.2L2532.6,876.1L2538.2,879.5L2540.9,883.0L2540.5,887.7L2534.0,890.5L2538.9,893.6L2542.6,895.7L2544.8,900.4L2549.9,905.2L2555.6,905.2L2566.3,902.3L2578.7,900.9L2588.7,897.4L2594.4,896.6L2598.4,894.6L2604.9,894.2L2608.6,893.9L2613.8,892.3L2619.8,891.1L2625.2,887.2L2629.5,887.2L2629.8,890.3L2628.8,897.0L2628.8,902.9L2626.4,907.0L2623.2,919.3L2617.7,932.0L2610.7,946.6L2600.9,963.3L2591.2,976.0L2577.8,991.5L2566.4,1000.7L2549.4,1012.0L2538.8,1020.7L2526.4,1034.5L2523.7,1040.5L2521.2,1043.2L2513.2,1047.7L2510.4,1052.4L2506.1,1053.3L2504.5,1061.3L2500.8,1065.9L2498.6,1073.4L2494.0,1077.2L2488.8,1091.2L2489.5,1097.7L2496.7,1101.8L2497.1,1104.8L2494.0,1111.7L2494.6,1115.1L2493.9,1120.6L2497.8,1127.7L2502.6,1138.9L2506.7,1141.4L2508.5,1146.5L2508.1,1157.8L2509.5,1167.8L2509.9,1185.6L2511.9,1191.2L2508.5,1199.3L2504.1,1207.2L2496.9,1214.2L2486.5,1218.6L2473.6,1224.1L2460.8,1236.3L2456.4,1238.4L2448.5,1246.5L2443.8,1249.1L2442.8,1257.2L2448.2,1265.8L2450.5,1272.5L2450.6,1275.9L2452.6,1275.3L2452.3,1286.5L2450.5,1291.8L2453.1,1293.7L2451.4,1298.5L2446.7,1302.5L2437.3,1306.3L2423.6,1312.5L2418.6,1316.7L2419.6,1321.5L2422.5,1322.3L2421.5,1328.3L2418.7,1336.5L2417.4,1346.0L2414.4,1351.1L2406.6,1356.9L2404.4,1358.5L2399.6,1364.3L2396.4,1370.1L2390.0,1378.3L2377.1,1390.0L2369.1,1396.9L2360.5,1402.1L2348.6,1406.5L2342.8,1407.1L2341.3,1410.2L2334.4,1408.5L2328.8,1410.7L2316.4,1408.5L2309.6,1409.9L2304.8,1409.3L2293.1,1413.8L2283.4,1415.6L2276.4,1419.9L2271.2,1420.2L2266.4,1416.1L2262.5,1415.9L2257.6,1410.8L2257.1,1412.4L2255.6,1409.3L2255.6,1402.7L2252.0,1395.0L2255.6,1393.0L2255.3,1384.2L2247.9,1373.6L2242.2,1363.9L2242.1,1363.9L2234.0,1349.1L2225.5,1340.5L2221.1,1332.2L2218.5,1321.2L2215.8,1312.9L2211.9,1295.4L2211.7,1281.8L2210.2,1275.6L2205.8,1270.9L2199.9,1261.5L2193.9,1247.8L2191.5,1240.7L2182.2,1229.6L2181.5,1220.9L2180.4,1213.7L2182.0,1203.7L2185.9,1193.3L2186.5,1188.4L2190.2,1178.2L2192.9,1173.5L2199.5,1166.0L2203.1,1161.0L2204.3,1152.5L2203.7,1146.1L2200.3,1142.0L2197.3,1135.1L2194.5,1128.3L2195.1,1125.9L2198.6,1121.4L2195.2,1110.4L2192.8,1102.8L2187.1,1095.6L2188.2,1093.4L2186.6,1089.9L2183.6,1081.3L2174.2,1069.3L2162.5,1057.8L2155.0,1048.4L2148.1,1036.6L2148.5,1032.9L2151.0,1029.2L2153.7,1021.0L2156.0,1012.5L2153.9,1010.8L2157.8,998.0L2159.4,989.0L2155.0,981.5L2149.8,979.6L2147.5,974.5L2144.6,972.8L2144.7,969.7L2132.9,973.8L2128.6,973.2L2124.2,975.8L2115.1,975.5L2109.0,968.4L2105.3,960.2L2097.2,952.6L2088.7,952.8L2078.6,952.8L2069.2,954.1L2060.1,956.5L2042.2,963.2L2035.9,967.1L2025.7,970.4L2015.5,967.2L2010.3,967.3L2002.4,965.1L1995.1,965.2L1981.6,967.2L1973.7,970.5L1962.5,974.6L1960.2,974.3L1957.3,974.4L1945.5,969.0L1935.2,960.3L1925.5,954.1L1917.8,946.8L1914.8,945.9L1906.6,941.4L1900.7,935.3L1898.7,931.1L1897.3,922.7L1892.3,916.0L1887.9,911.5L1885.0,910.0L1882.1,907.8L1880.8,902.7L1879.1,900.2L1875.9,898.4L1869.8,893.6L1865.0,892.9L1862.4,889.7L1862.4,887.9L1859.0,885.5L1858.3,883.1L1856.4,874.4L1857.8,869.3L1853.1,860.5L1847.5,856.4L1852.5,854.3L1858.0,846.3L1860.7,840.4L1859.7,834.3L1862.9,828.7L1864.3,818.0L1863.0,806.7L1861.7,801.1L1862.8,795.4L1859.8,790.0L1853.9,785.1L1854.4,780.3L1854.9,775.0L1859.2,771.9L1863.0,766.0L1862.2,762.1L1866.2,754.1L1872.5,746.8L1876.3,745.0L1879.3,738.4L1879.6,732.3L1883.7,725.3L1891.3,721.1L1898.5,709.5L1904.4,705.0L1915.0,703.7L1924.0,696.0L1929.7,692.9L1939.2,683.4L1936.3,669.3L1940.7,659.5L1942.2,653.5L1949.5,645.8L1960.9,640.6L1969.3,635.9L1977.0,624.1L1980.5,617.1L1988.9,617.2L1995.8,622.0L2006.6,621.2L2018.4,623.7L2023.3,623.9L2034.3,617.6L2046.5,615.7L2053.7,611.0L2064.7,607.5L2084.0,605.5L2102.8,604.6L2108.5,606.2L2119.3,601.8L2131.4,601.7L2136.0,604.3L2143.8,603.6L2156.2,599.0L2164.2,600.4L2163.8,606.2L2173.5,602.0L2174.3,604.2L2168.6,609.7L2168.5,615.0L2172.5,617.8L2171.0,627.7L2163.5,633.4L2165.7,639.6L2171.5,639.8L2174.4,645.2L2178.7,647.0L2192.1,650.9L2196.9,649.9L2206.4,651.8L2221.4,656.9L2226.8,667.0L2237.0,669.2L2253.0,674.0L2265.2,679.6L2270.7,676.7L2276.2,671.4L2273.5,662.7L2277.1,657.2L2285.3,651.9L2293.1,650.3L2308.5,652.6L2312.4,657.7L2316.6,657.8L2320.2,659.7L2331.5,661.0L2334.3,664.8L2349.4,664.6L2360.4,667.6L2371.7,671.0L2377.0,672.8L2385.7,669.2L2390.4,665.9L2400.4,665.0L2408.6,666.4L2411.6,672.0L2414.3,668.3L2423.4,671.0L2432.3,671.7L2437.9,668.8L2441.2,665.1L2440.4,664.4L2443.4,659.1L2445.7,650.5L2447.3,647.6L2447.7,647.5L2451.7,638.2L2457.4,630.2L2457.6,629.8L2456.5,621.1L2459.3,616.4L2455.1,611.3L2459.4,607.0L2452.5,608.0L2443.0,605.4L2435.1,611.9L2417.9,613.2L2408.7,607.1L2396.4,606.7L2393.8,611.4L2385.9,612.8L2374.9,606.7L2362.5,606.9L2355.8,595.6L2347.4,589.3L2353.0,580.4L2345.8,575.0L2358.4,564.1L2375.9,563.7L2380.7,555.0L2402.4,556.5L2416.0,549.1L2429.3,545.9L2448.1,545.7L2468.0,553.7L2484.3,558.1L2497.6,556.3L2507.4,557.4L2520.8,551.4L2522.5,546.6L2519.6,538.8L2513.1,534.6L2506.8,533.3L2502.6,529.8L2488.1,520.2L2475.1,515.9L2465.3,509.2L2473.6,507.4L2483.0,497.9L2476.6,493.4L2493.4,488.7L2493.1,486.2L2482.9,488.1L2473.8,489.0L2466.2,492.7L2455.6,493.3L2445.8,497.5L2446.4,504.6L2452.0,507.3L2463.6,506.7L2461.4,510.7L2448.9,512.7L2433.5,519.3L2427.2,516.9L2429.7,511.6L2417.2,508.3L2419.3,506.1L2430.1,502.3L2426.9,499.7L2409.2,496.8L2408.4,492.6L2397.9,494.0L2393.6,500.2L2384.8,508.7L2385.1,511.6L2379.6,514.1L2376.1,513.0L2372.9,526.7L2367.0,531.4L2362.9,539.6L2366.5,546.0L2367.9,550.4L2377.8,554.1L2375.7,556.9L2362.2,557.5L2357.4,561.0L2347.9,567.2L2344.3,561.9L2344.5,559.5L2337.5,559.2L2331.6,558.1L2317.8,561.1L2325.7,567.5L2319.9,569.3L2313.6,569.3L2307.6,563.5L2305.5,566.0L2308.0,572.8L2313.7,578.1L2309.4,580.6L2315.7,585.8L2321.3,589.1L2321.5,595.6L2311.0,592.5L2314.3,598.4L2307.1,599.6L2311.4,609.6L2303.9,609.7L2294.6,604.8L2290.3,595.7L2288.3,588.1L2283.9,582.9L2278.0,576.4L2277.3,573.2L2275.3,572.4L2275.1,569.9L2268.8,566.0L2267.8,560.6L2268.8,552.9L2270.3,549.3L2268.4,547.5L2266.0,546.6L2262.8,542.9L2257.9,540.7L2247.2,536.5L2240.6,532.4L2230.2,529.0L2220.7,520.6L2223.0,519.8L2217.8,515.0L2217.6,511.1L2210.2,509.3L2206.7,514.2L2203.4,510.4L2203.6,506.5L2204.0,506.3L2206.6,505.3L2197.5,503.6L2188.3,507.7L2188.9,513.3L2187.5,516.5L2191.2,522.3L2201.9,528.1L2207.6,537.5L2220.3,546.6L2229.2,546.6L2232.0,549.1L2228.8,551.4L2239.0,555.5L2247.3,558.9L2257.1,564.8L2258.3,567.0L2256.1,571.0L2249.8,565.7L2239.9,563.9L2235.2,571.2L2243.4,575.4L2242.0,581.4L2237.3,582.1L2231.2,591.8L2226.4,592.7L2226.5,589.2L2228.8,583.1L2231.3,580.7L2226.9,574.1L2223.4,568.3L2218.7,566.9L2215.3,562.0L2208.0,559.9L2203.1,555.4L2194.6,554.6L2185.7,549.5L2175.3,542.1L2167.6,535.5L2164.1,524.3L2158.4,523.0L2149.2,519.2L2143.9,520.8L2137.3,526.0L2132.6,526.9L2122.3,533.3L2099.8,530.2L2083.3,533.9L2082.0,540.7L2082.6,547.4L2071.8,554.9L2057.2,557.3L2056.2,561.2L2049.2,567.5L2044.8,576.7L2049.2,583.2L2042.7,588.3L2040.2,595.7L2031.6,598.0L2023.6,606.7L2009.1,606.9L1998.3,606.7L1991.2,610.7L1986.8,615.0L1981.3,614.1L1977.0,610.2L1973.8,603.7L1963.2,601.9L1958.6,604.9L1952.6,603.3L1946.8,604.5L1948.5,595.6L1947.4,588.6L1942.3,587.6L1939.6,583.2L1940.5,575.8L1945.0,571.7L1945.9,567.1L1948.2,560.2L1948.0,555.4L1945.7,551.3L1945.2,547.5L1945.8,539.4L1941.1,534.4L1957.2,526.2L1971.1,528.3L1986.4,528.2L1998.5,530.2L2008.0,529.6L2026.4,529.9L2032.3,523.1L2034.4,500.5L2022.7,488.5L2014.3,482.8L1996.9,478.4L1995.8,470.1L2010.5,467.6L2029.6,470.5L2026.0,457.6L2036.8,462.5L2063.2,453.7L2066.7,444.3L2076.6,442.0L2085.7,439.8L2091.6,436.7L2101.6,419.9L2117.1,415.2L2126.6,415.5L2128.8,413.1L2138.3,412.5L2140.4,415.0L2148.1,409.4L2145.5,405.1L2145.0,398.6L2140.4,392.3L2140.1,380.7L2141.9,377.6L2145.2,374.2L2155.2,373.5L2159.2,370.4L2168.4,367.2L2168.0,373.0L2164.6,376.7L2166.0,379.9L2172.2,381.6L2169.4,385.9L2166.0,384.7L2157.8,392.9L2160.9,398.4L2161.1,402.8L2172.6,405.5L2172.5,409.5L2184.1,407.4L2190.4,404.2L2203.3,408.7L2208.7,412.4L2216.4,409.0L2234.2,403.8L2248.5,399.9L2259.9,401.8L2260.7,404.6L2271.7,404.7L2274.3,399.7L2290.0,396.1L2287.6,386.5L2288.0,377.9L2293.5,370.8L2304.3,366.9L2313.3,375.4L2322.5,375.2L2324.6,366.4L2325.9,359.7L2321.8,361.2L2314.5,357.1L2313.6,350.6L2327.9,347.4L2342.3,345.8L2354.6,347.6L2366.4,347.3L2379.3,341.0L2367.4,335.6L2346.7,336.5L2326.7,340.7L2308.2,343.1L2301.6,336.9L2290.6,333.1L2293.1,321.9L2287.6,311.7L2293.0,305.0L2303.4,297.9L2329.4,285.6L2337.0,283.2L2335.8,278.4L2320.0,273.0L2300.4,276.2L2289.4,284.2L2291.1,291.1L2273.1,300.3L2251.1,310.1L2242.8,326.1L2250.9,334.1L2261.8,340.4L2251.3,353.2L2239.5,355.9L2235.1,375.0L2228.7,385.7L2214.9,384.6L2208.4,393.6L2195.3,394.1L2191.6,383.4L2182.1,370.4L2173.5,354.4L2165.8,347.4L2143.4,360.5L2128.2,363.2L2112.5,357.4L2108.4,345.2L2104.8,318.9L2115.3,311.6L2145.3,302.0L2167.8,290.3L2188.6,274.4L2216.0,252.5L2235.0,243.9L2266.3,229.6L2291.2,224.7L2310.0,225.2L2327.3,215.8L2348.0,216.3L2368.5,214.1L2404.0,222.4L2389.4,225.4L2401.9,232.6L2413.6,228.6L2432.3,235.5L2463.4,238.2L2506.4,251.1L2515.2,256.5L2515.9,264.1L2503.3,270.0L2484.7,273.1L2433.9,264.4L2425.6,265.9L2444.1,274.2L2445.6,291.1L2460.2,294.6L2469.1,297.5L2470.6,292.0L2463.5,286.9L2471.0,282.8L2498.5,289.9L2508.1,287.1L2500.4,278.8L2526.9,267.7L2537.4,268.3L2548.1,272.3L2554.7,264.5L2545.2,257.7L2550.8,250.9L2542.4,243.8L2574.2,247.5L2580.7,253.8L2566.3,255.3L2566.4,261.6L2575.3,265.5L2592.9,263.0L2595.7,255.8L2619.5,250.3L2659.2,240.6L2667.8,241.1L2656.6,248.0L2670.7,249.2L2678.8,245.3L2700.2,245.0L2717.0,240.3L2730.0,247.1L2742.9,239.6L2731.0,233.0L2736.9,229.3L2770.5,232.7L2786.3,236.3L2827.5,249.3L2835.1,243.3L2823.6,237.3L2823.2,234.9L2809.5,233.8L2813.3,228.4L2807.2,219.5L2806.9,215.9L2827.8,205.5L2835.3,195.2L2843.8,193.0L2873.9,196.0L2876.2,202.3L2865.5,211.5L2872.6,215.2L2876.2,223.1L2873.6,238.7L2886.2,245.7L2881.3,253.3L2859.0,269.4L2872.0,271.1L2876.5,267.0L2889.1,264.1L2892.1,258.4L2901.9,253.0L2895.3,246.6L2900.6,239.1L2888.2,238.1L2885.4,231.8L2894.5,220.4L2879.7,211.1L2900.1,203.4L2897.5,195.3L2903.2,195.1L2909.1,201.4L2904.6,212.4L2916.8,214.4L2911.6,206.2L2930.6,201.8L2954.3,201.2L2975.3,207.6L2965.2,198.2L2964.0,186.0L2983.8,183.7L3011.2,184.2L3035.9,182.8L3026.6,176.8L3039.8,169.3L3052.8,169.0L3074.9,163.4L3105.0,161.9L3108.8,158.8L3138.7,157.7L3148.0,160.3L3173.5,154.2L3194.4,154.4L3197.6,149.5L3208.4,144.6L3235.3,140.0L3254.8,143.7L3239.3,146.5L3265.1,148.2L3268.1,153.8L3278.6,151.1L3311.8,151.2L3337.5,156.8L3346.6,161.0L3343.8,166.9L3331.2,170.3L3301.3,176.6L3292.7,180.0L3306.9,181.6L3323.7,184.5L3333.9,182.3L3339.7,189.6L3344.7,186.7L3362.9,184.9L3399.4,186.7L3402.2,192.0L3449.8,193.7L3450.4,185.1L3474.5,187.0L3492.7,187.0L3511.1,193.0L3516.3,200.3L3509.6,205.0L3523.9,214.0L3541.8,218.6L3552.7,206.7L3571.0,211.8L3590.4,208.7L3612.4,212.2L3620.8,209.0L3639.4,210.6L3631.2,200.1L3646.2,195.1L3749.0,202.5L3758.7,209.3L3788.4,218.0L3834.4,215.8L3857.0,217.7L3866.5,222.4L3865.1,230.7L3879.2,234.0L3894.4,231.6L3914.5,231.3L3936.0,233.6L3957.6,232.3L3977.4,242.4L3991.5,238.8L3982.3,231.5L3987.4,226.4L4023.7,229.6L4047.3,228.9L4080.1,234.4L0.0,239.3ZM2606.8,554.3L2612.5,562.4L2617.9,562.9L2621.3,566.0L2612.0,566.9L2610.0,575.7L2608.1,579.7L2603.9,582.4L2604.2,588.0L2607.8,596.4L2618.6,598.8L2626.5,604.5L2642.6,606.4L2660.4,603.4L2661.5,600.8L2659.4,592.7L2661.0,580.8L2652.2,577.0L2655.1,569.2L2647.6,568.5L2650.1,558.9L2660.8,561.7L2670.8,558.1L2662.5,551.2L2659.2,544.7L2650.1,547.6L2648.9,556.0L2645.3,548.6L2644.7,545.8L2647.5,541.1L2645.3,537.1L2632.2,533.2L2627.0,523.0L2620.7,520.1L2620.4,516.4L2631.4,517.5L2631.9,509.2L2641.5,507.4L2651.5,509.0L2653.5,498.0L2651.5,490.9L2640.1,491.5L2630.4,488.7L2617.3,493.7L2606.7,496.1L2601.5,502.8L2590.5,504.7L2579.2,516.4L2589.5,527.2L2588.4,534.9L2600.8,548.3L2606.8,554.3ZM959.7,237.7L952.7,241.7L937.3,238.2L928.1,239.5L912.5,234.4L922.6,230.9L930.5,225.9L942.6,229.2L949.4,231.2L952.8,233.4L959.7,237.7ZM0.0,210.3L4096.0,218.1L4083.5,218.7L4081.5,215.1L0.0,210.3ZM0.0,210.3L1.5,209.8L11.1,209.9L27.6,213.1L26.6,214.7L14.9,217.4L0.0,218.1L0.0,210.3ZM1017.8,233.3L1017.7,244.9L1032.9,236.0L1046.5,243.3L1043.1,251.7L1054.2,259.4L1066.0,251.2L1074.3,241.4L1075.0,228.9L1091.1,229.8L1107.9,231.4L1123.2,237.1L1123.9,242.7L1115.4,248.8L1123.5,254.9L1122.0,260.4L1099.7,268.4L1083.9,270.1L1072.1,266.7L1068.7,272.4L1057.8,282.0L1054.4,287.0L1041.3,294.7L1025.0,295.4L1016.0,300.3L1015.2,307.7L1002.0,309.1L988.1,318.3L975.8,331.1L971.3,340.1L970.7,353.3L987.4,355.2L992.6,365.8L997.9,374.5L1013.8,372.2L1034.9,377.2L1046.3,381.5L1054.4,386.9L1068.7,390.0L1080.7,394.8L1099.5,395.4L1111.9,396.5L1110.1,406.4L1113.6,417.8L1121.8,430.6L1138.8,441.4L1147.5,437.7L1153.7,426.0L1147.8,408.0L1139.7,402.0L1158.0,396.7L1170.8,388.7L1177.1,380.8L1176.2,373.2L1168.5,363.5L1154.6,354.9L1168.1,343.0L1163.1,332.7L1159.3,314.9L1167.2,312.3L1186.7,315.4L1198.5,316.5L1207.9,313.5L1218.4,317.4L1232.5,324.0L1235.9,328.4L1256.2,329.3L1255.9,338.8L1259.7,353.2L1270.1,355.0L1278.3,361.7L1294.8,355.4L1305.7,342.8L1313.2,337.5L1322.0,347.7L1336.9,362.2L1349.4,375.8L1344.9,383.0L1360.0,389.4L1370.2,395.9L1388.4,398.8L1395.7,402.5L1400.2,412.1L1409.0,413.6L1413.6,417.9L1414.4,430.7L1406.2,435.0L1398.0,438.9L1379.3,443.0L1365.0,452.4L1345.7,454.2L1321.4,451.8L1304.3,451.7L1292.5,452.5L1283.0,460.7L1268.5,465.7L1252.1,480.8L1239.0,491.3L1248.6,489.4L1266.9,474.5L1290.8,465.0L1307.8,463.8L1317.9,469.4L1307.1,477.1L1310.7,489.3L1314.5,497.9L1329.2,503.6L1348.0,501.9L1359.4,489.2L1360.2,497.4L1367.6,501.5L1353.5,509.0L1328.3,515.7L1317.0,520.4L1304.3,528.6L1295.7,527.7L1295.2,518.1L1315.0,508.7L1296.8,509.0L1284.1,510.4L1286.1,514.2L1274.0,519.7L1262.2,523.6L1250.2,527.0L1243.7,534.4L1242.3,536.3L1242.2,542.3L1245.9,548.4L1250.6,548.6L1249.5,544.5L1252.9,547.0L1252.0,550.3L1244.3,552.1L1238.8,551.9L1230.4,553.9L1225.5,554.4L1218.8,555.0L1209.4,558.3L1226.1,556.2L1229.4,558.3L1213.5,561.7L1206.2,561.7L1206.6,560.3L1203.1,563.5L1206.5,564.0L1204.0,572.2L1195.7,581.0L1194.9,578.0L1192.4,577.4L1188.7,574.6L1191.0,580.7L1193.7,582.8L1194.0,587.0L1190.4,591.5L1184.0,600.6L1182.9,600.1L1186.5,592.4L1180.6,588.0L1179.3,578.6L1177.1,583.5L1179.5,590.7L1172.4,589.0L1179.9,592.6L1180.4,603.4L1183.6,604.2L1184.8,608.1L1186.4,619.5L1179.2,628.0L1167.4,631.3L1159.9,638.0L1154.2,638.7L1148.4,642.9L1146.9,646.7L1134.4,654.1L1127.9,659.5L1122.6,666.3L1120.8,674.4L1122.8,682.3L1126.6,692.0L1131.7,700.0L1131.7,705.0L1137.1,718.2L1136.8,725.8L1136.3,730.3L1133.5,737.2L1130.1,738.6L1124.4,737.3L1122.6,732.3L1118.3,729.7L1112.3,719.9L1107.0,711.2L1105.3,706.7L1107.6,699.2L1104.5,692.9L1095.6,683.4L1091.1,681.6L1079.6,686.8L1077.6,686.2L1072.1,680.9L1065.0,678.1L1052.1,679.6L1042.0,678.3L1033.3,679.1L1028.5,680.7L1030.7,683.9L1030.5,688.5L1032.9,690.7L1030.7,692.2L1026.5,690.5L1022.2,692.7L1014.0,692.4L1005.5,686.3L995.6,687.8L987.3,685.1L980.2,685.9L970.6,688.6L960.3,697.0L949.0,701.9L942.7,707.4L940.2,712.5L940.0,720.3L940.6,725.8L942.7,729.7L942.8,729.7L942.7,729.7L938.4,739.6L936.4,747.8L935.5,763.1L934.4,768.6L936.4,774.8L939.9,780.4L942.2,789.2L949.7,797.7L952.4,804.2L956.9,809.8L969.0,812.8L973.6,817.6L983.6,814.4L992.3,813.2L1000.8,811.2L1008.0,809.2L1015.2,804.6L1017.9,797.9L1018.8,788.4L1020.8,785.1L1028.5,782.1L1040.6,779.4L1050.6,779.8L1057.6,778.9L1060.3,781.3L1059.9,786.8L1053.8,793.5L1051.1,800.5L1053.2,802.5L1051.5,807.4L1048.6,816.2L1045.7,813.3L1043.3,813.5L1043.4,815.2L1045.6,815.2L1045.4,818.3L1043.5,823.3L1044.5,825.0L1043.3,829.1L1044.0,830.2L1042.7,835.9L1040.5,838.9L1038.4,839.3L1036.2,843.2L1039.9,845.3L1040.8,843.6L1044.2,845.1L1045.4,845.5L1047.9,843.5L1051.1,843.3L1052.2,844.3L1054.0,843.7L1059.2,844.7L1064.5,844.4L1068.2,843.2L1069.5,841.9L1073.1,842.5L1075.8,843.3L1078.8,843.0L1081.1,842.0L1086.3,843.6L1088.1,843.8L1091.6,846.0L1094.8,848.5L1099.0,850.3L1102.0,853.4L1101.0,854.5L1100.4,857.0L1101.6,861.2L1099.0,865.1L1097.7,869.6L1097.4,874.7L1098.0,877.6L1098.3,882.7L1096.5,883.8L1095.4,888.7L1096.2,891.7L1093.9,894.6L1094.4,897.7L1096.2,899.5L1099.0,905.7L1103.5,910.3L1108.8,915.1L1112.9,919.2L1112.6,921.6L1117.2,922.2L1118.3,921.2L1121.4,924.0L1127.0,923.2L1131.9,920.3L1138.7,918.0L1142.6,914.6L1148.9,915.3L1148.5,916.4L1154.8,916.8L1159.9,918.8L1163.6,922.2L1167.9,925.4L1173.8,925.7L1182.3,917.8L1187.0,916.6L1187.1,912.8L1189.2,903.2L1195.7,897.9L1202.9,897.7L1203.8,895.3L1212.7,896.3L1221.6,890.5L1226.1,888.0L1231.6,882.5L1235.6,883.2L1238.6,886.2L1236.4,890.0L1236.1,892.7L1229.4,894.0L1233.1,899.2L1233.0,905.1L1228.0,911.7L1232.3,920.8L1237.2,920.0L1239.7,911.8L1236.2,907.8L1235.6,899.2L1249.8,894.6L1248.2,889.2L1252.2,885.6L1256.3,893.6L1264.3,893.8L1271.7,900.1L1272.1,903.9L1282.3,904.0L1294.5,902.8L1301.0,907.9L1309.7,909.3L1316.1,905.8L1316.2,902.9L1330.3,902.2L1344.0,902.1L1334.3,905.4L1338.2,910.8L1347.3,911.7L1355.9,917.3L1357.7,926.4L1363.6,926.1L1368.1,928.8L1375.6,933.0L1382.6,940.4L1382.9,946.3L1387.2,946.5L1393.3,952.1L1397.8,956.0L1411.4,958.3L1412.6,956.3L1421.9,955.4L1434.1,958.5L1438.0,959.8L1446.3,962.4L1458.4,972.1L1460.2,976.7L1464.1,976.2L1467.0,982.5L1473.3,1002.4L1479.4,1004.2L1479.7,1012.1L1471.2,1021.5L1474.7,1024.9L1494.8,1026.7L1495.2,1038.1L1503.9,1030.6L1518.2,1034.7L1537.1,1041.7L1542.6,1048.3L1540.8,1054.6L1554.0,1051.1L1576.1,1057.1L1593.1,1056.7L1609.9,1066.1L1624.5,1078.9L1633.3,1082.1L1643.0,1082.6L1647.1,1086.2L1651.0,1100.7L1652.8,1107.6L1648.3,1126.4L1642.5,1133.8L1626.5,1149.6L1619.2,1162.5L1610.8,1172.4L1608.0,1172.6L1604.8,1180.9L1605.6,1202.3L1602.5,1219.8L1601.2,1227.3L1597.6,1231.8L1595.6,1247.0L1584.1,1261.8L1582.1,1273.6L1572.9,1278.5L1570.3,1285.4L1557.9,1285.3L1540.0,1289.7L1532.0,1294.8L1519.3,1298.1L1505.9,1307.1L1496.2,1318.4L1494.6,1326.9L1496.4,1333.2L1494.4,1344.7L1491.8,1350.3L1483.8,1356.5L1471.2,1376.5L1461.2,1385.6L1453.4,1390.9L1448.2,1401.7L1440.7,1408.2L1435.8,1415.4L1423.0,1421.7L1414.6,1419.4L1408.4,1420.6L1397.9,1415.7L1390.2,1416.1L1383.2,1409.8L1382.5,1415.7L1396.9,1425.5L1395.4,1433.4L1402.4,1438.3L1401.9,1443.9L1390.9,1458.4L1374.1,1464.5L1351.2,1466.9L1338.8,1465.8L1341.2,1472.6L1338.8,1481.1L1340.9,1486.8L1334.1,1490.8L1322.4,1492.4L1311.5,1488.2L1307.1,1491.2L1308.7,1502.5L1316.4,1506.0L1322.6,1502.4L1326.0,1508.3L1315.5,1511.8L1306.4,1518.9L1304.7,1530.3L1302.0,1536.4L1291.3,1536.5L1282.3,1542.3L1279.1,1550.8L1290.3,1559.1L1301.1,1561.4L1297.2,1571.7L1283.8,1578.1L1276.4,1591.4L1266.0,1595.9L1261.4,1601.2L1265.0,1613.0L1272.6,1619.6L1267.8,1619.1L1257.7,1619.0L1252.2,1621.8L1242.0,1625.9L1240.1,1636.5L1235.3,1636.8L1222.5,1633.1L1209.4,1625.1L1195.3,1618.6L1191.7,1611.4L1194.9,1604.8L1189.2,1597.2L1187.7,1577.8L1192.6,1566.9L1204.6,1558.1L1187.3,1554.8L1198.2,1544.7L1202.0,1525.8L1214.7,1529.8L1220.6,1506.2L1213.0,1503.2L1209.4,1517.4L1202.3,1515.8L1205.8,1499.5L1209.7,1478.5L1214.9,1470.7L1211.7,1459.6L1210.7,1446.8L1215.5,1446.4L1222.5,1428.0L1230.4,1409.8L1235.2,1392.9L1232.6,1375.8L1236.0,1366.4L1234.6,1352.4L1241.3,1338.5L1243.3,1316.5L1247.0,1292.8L1250.5,1267.4L1249.7,1248.8L1247.3,1232.8L1235.9,1226.2L1234.9,1221.6L1212.3,1210.1L1191.9,1197.7L1183.2,1190.7L1178.5,1181.3L1180.4,1178.0L1170.7,1163.1L1159.5,1142.1L1148.7,1119.4L1144.1,1114.2L1140.5,1105.9L1131.7,1098.4L1123.5,1093.8L1127.2,1088.7L1121.7,1077.9L1125.3,1069.9L1134.3,1062.7L1140.4,1054.2L1137.9,1049.3L1133.6,1054.6L1126.8,1049.6L1129.1,1046.4L1127.1,1036.0L1131.1,1034.3L1133.3,1027.2L1137.6,1019.9L1136.7,1015.3L1143.0,1012.8L1150.8,1008.3L1149.3,1004.8L1153.5,1003.9L1153.0,998.2L1155.7,994.1L1161.3,993.3L1166.1,986.2L1170.4,980.2L1166.3,977.5L1168.4,970.9L1165.9,960.5L1168.3,957.5L1166.5,947.9L1161.9,941.8L1158.1,938.5L1155.7,932.4L1158.4,929.3L1155.6,928.6L1153.4,924.8L1147.8,921.6L1142.8,922.4L1140.5,926.3L1135.9,929.2L1133.4,929.6L1132.3,931.9L1137.7,938.1L1134.6,939.6L1133.0,941.3L1127.7,941.8L1125.7,935.0L1124.2,937.0L1120.5,936.3L1118.2,931.7L1113.5,931.0L1110.6,929.7L1105.7,929.7L1105.4,932.1L1104.0,930.4L1097.9,927.9L1095.6,925.5L1096.9,923.5L1096.4,921.0L1093.3,918.3L1088.8,916.1L1084.9,914.6L1084.1,911.3L1081.2,909.2L1081.9,912.5L1079.6,915.3L1077.0,912.1L1073.4,911.0L1071.8,908.7L1071.9,905.2L1073.4,901.6L1070.2,900.0L1072.8,897.8L1068.9,894.3L1063.5,889.7L1061.0,885.8L1056.2,882.3L1050.5,877.1L1051.8,875.3L1053.7,877.1L1054.5,876.3L1052.6,872.7L1049.1,871.7L1047.8,874.4L1041.3,874.2L1037.2,873.1L1032.4,870.9L1026.1,870.2L1022.9,867.7L1017.1,865.7L1010.0,865.5L1004.8,863.3L998.7,858.6L985.8,846.3L979.9,842.6L970.6,839.7L964.2,840.5L955.1,844.8L949.4,845.9L941.4,842.9L932.8,840.7L922.2,835.5L913.7,833.9L900.8,828.6L891.3,823.2L888.4,820.2L882.0,819.5L870.4,815.9L865.7,810.7L853.4,804.2L847.7,797.0L845.0,791.5L848.8,790.4L847.6,787.1L850.3,784.2L850.3,780.3L846.5,775.1L845.5,770.6L841.6,764.9L831.6,753.6L820.2,744.7L814.6,737.6L804.9,733.0L802.8,730.2L804.5,723.1L798.7,720.5L792.0,714.9L789.1,707.0L783.0,706.1L776.4,700.1L771.1,694.6L770.6,691.0L764.5,682.4L760.4,673.7L760.6,669.3L752.4,664.8L748.6,665.3L742.1,662.2L740.3,666.8L742.2,672.3L743.3,680.8L747.2,685.5L755.6,693.3L757.5,696.0L759.2,696.8L760.7,700.7L762.7,700.6L765.0,707.9L768.5,710.8L770.9,714.9L778.0,720.6L781.8,731.2L785.2,736.2L788.4,741.5L789.0,747.5L794.5,747.9L799.1,753.1L803.2,758.2L802.9,760.2L798.1,764.4L796.1,764.3L793.1,757.4L785.6,750.9L777.4,745.4L771.6,742.5L772.0,734.2L770.3,728.0L764.9,724.5L757.0,719.4L755.5,720.9L752.6,717.9L745.6,715.2L738.9,708.6L739.7,707.7L744.5,708.4L748.7,704.1L749.1,699.0L740.3,690.9L733.6,687.7L729.5,680.6L725.2,673.1L720.0,664.1L715.3,653.8L713.4,648.0L706.1,641.5L700.8,640.1L699.5,636.8L693.1,636.3L689.0,633.2L678.5,632.1L675.6,630.2L674.2,624.0L663.1,612.6L653.7,596.7L654.1,594.1L649.1,590.4L640.3,580.8L638.7,571.5L632.6,565.3L635.1,555.9L634.7,546.1L631.1,537.4L635.5,526.7L638.3,506.0L636.2,490.8L632.6,481.0L629.4,475.8L630.7,473.6L647.2,477.4L653.2,488.2L656.0,485.1L654.2,475.8L650.4,466.5L648.8,466.5L626.8,455.3L618.7,450.4L598.1,445.7L591.7,435.6L593.4,428.6L578.8,423.8L576.8,414.6L563.0,406.3L562.8,400.5L556.5,396.2L546.5,392.6L543.3,382.6L528.6,373.4L522.5,362.7L511.6,362.0L493.5,361.7L480.1,358.4L456.6,346.6L445.7,344.4L425.8,340.4L410.1,341.3L387.7,336.1L374.2,331.3L361.5,333.7L363.9,341.6L357.6,342.3L344.4,344.7L334.4,348.5L321.8,350.9L320.2,344.2L325.3,333.1L337.4,329.6L334.3,326.7L319.8,333.1L312.0,340.6L295.6,348.7L303.9,354.3L293.2,362.4L280.9,367.2L269.6,370.7L266.7,375.7L249.0,381.6L245.4,386.9L232.1,391.8L224.3,390.9L213.6,394.1L202.1,397.9L192.6,401.7L173.1,405.0L171.3,403.1L183.8,397.8L194.9,394.3L207.0,388.0L221.1,386.8L226.8,382.1L242.5,375.3L245.1,373.0L253.5,369.0L255.4,360.4L261.2,353.6L248.1,357.1L244.4,355.1L238.3,359.3L230.9,353.5L227.8,357.6L223.5,351.9L212.1,356.4L205.2,356.4L204.2,349.7L206.2,345.5L198.9,341.4L184.1,343.6L174.5,338.3L166.7,335.6L166.7,329.1L157.9,324.3L162.3,317.7L171.6,311.4L175.6,305.5L184.9,304.7L192.7,306.5L201.9,301.0L210.1,302.0L218.8,298.5L216.6,293.3L210.3,291.2L218.7,286.9L211.7,287.0L199.6,289.5L196.2,292.0L187.2,289.5L171.1,290.7L154.5,288.0L149.7,283.4L135.3,276.8L151.3,272.1L176.7,266.5L186.0,266.5L184.4,272.2L208.4,271.8L199.2,264.7L185.2,260.4L177.2,254.7L166.2,249.8L150.6,246.2L157.0,240.3L177.2,239.9L191.5,234.7L194.2,229.2L205.8,223.8L216.9,222.5L238.5,217.4L249.0,218.2L266.4,212.1L283.7,214.5L291.9,219.6L297.0,217.4L316.2,218.1L315.5,220.7L332.9,222.7L344.5,221.5L368.5,225.1L390.4,226.2L399.1,227.7L414.3,225.8L431.5,229.2L443.9,230.8L465.1,233.6L483.0,239.0L494.9,240.1L504.9,235.3L518.6,231.8L535.6,233.2L552.6,228.2L571.2,225.3L579.1,230.1L587.5,227.4L590.1,222.1L597.9,223.3L617.2,233.5L632.3,225.7L633.9,234.4L647.8,232.5L652.1,229.2L665.9,229.9L683.3,234.6L709.9,238.8L725.6,240.7L736.8,240.0L752.1,245.8L736.1,251.4L756.7,253.9L787.4,252.5L797.0,250.5L809.2,257.4L821.5,251.6L810.0,246.8L817.3,242.9L831.1,242.3L840.3,241.2L849.4,243.9L860.9,250.1L873.6,249.2L893.7,254.3L911.3,252.5L927.9,252.8L926.6,245.7L936.7,243.7L954.4,247.6L954.3,258.4L961.5,249.3L970.7,249.6L975.8,238.2L963.6,231.1L950.4,226.5L951.3,214.0L964.7,205.7L979.7,207.5L991.2,212.6L1006.7,225.4L996.6,231.0L1017.8,233.3ZM749.0,192.0L743.3,197.4L768.7,193.9L784.5,199.7L797.3,193.9L807.7,197.6L817.0,208.8L822.8,204.1L814.7,192.4L824.7,190.7L836.0,192.5L848.7,197.2L855.9,208.2L859.4,216.3L878.5,221.9L899.1,227.3L897.8,232.3L879.1,233.2L886.4,237.6L882.6,241.8L862.0,240.0L842.4,236.9L829.2,237.6L807.8,241.4L774.1,243.4L758.8,244.2L752.6,238.8L737.0,235.7L727.0,237.0L712.9,228.0L720.5,226.8L738.1,224.9L754.1,225.4L768.9,223.4L747.0,220.7L722.6,221.6L706.5,221.4L700.5,217.2L726.9,212.7L709.4,212.8L689.5,209.8L699.0,201.3L706.9,196.8L737.4,189.9L749.0,192.0ZM859.0,188.6L849.0,196.1L831.3,188.2L835.1,186.6L850.4,186.1L859.0,188.6ZM1179.4,192.3L1180.4,195.4L1168.3,195.1L1156.1,194.8L1143.6,196.4L1140.3,195.7L1127.8,189.6L1128.3,185.5L1133.7,184.8L1159.8,186.0L1179.4,192.3ZM1063.1,191.6L1072.1,198.7L1082.6,189.5L1111.4,184.9L1131.0,196.7L1129.2,204.1L1151.8,200.8L1162.5,196.3L1187.8,202.0L1203.5,207.5L1204.9,212.4L1226.0,209.8L1237.9,217.1L1265.3,221.6L1275.3,226.2L1286.0,236.8L1265.1,242.1L1291.9,249.6L1310.0,252.1L1326.4,262.5L1344.3,263.3L1340.7,271.2L1320.8,284.5L1306.8,279.6L1288.9,268.7L1274.2,270.1L1272.7,276.6L1284.7,283.2L1300.1,288.5L1304.8,291.5L1312.2,302.7L1308.3,310.9L1293.9,307.8L1265.4,298.7L1281.5,308.5L1293.3,315.4L1295.2,319.4L1264.3,314.8L1239.9,308.2L1226.1,302.7L1230.1,299.5L1213.1,293.6L1196.5,288.1L1196.7,291.4L1163.8,293.2L1154.2,289.3L1161.7,280.9L1183.1,280.7L1206.5,279.3L1202.7,275.2L1206.7,269.5L1221.4,258.4L1218.2,253.4L1213.9,249.5L1196.5,244.0L1173.4,240.1L1180.7,237.2L1168.6,230.2L1158.6,229.5L1149.6,225.7L1143.5,229.0L1122.9,230.5L1081.5,227.9L1057.4,224.6L1039.0,222.9L1029.5,218.9L1041.4,213.7L1025.3,213.7L1021.7,202.1L1030.4,192.0L1042.1,187.3L1071.5,184.3L1063.1,191.6ZM906.2,183.8L919.7,186.2L940.0,184.8L943.0,188.1L932.4,193.5L949.6,198.4L947.5,208.7L928.9,213.1L917.9,212.1L910.1,207.8L881.8,199.0L882.0,195.4L905.2,196.8L892.7,189.3L906.2,183.8ZM3681.9,191.0L3664.6,191.1L3641.3,189.8L3639.3,189.2L3650.1,184.7L3664.4,183.7L3680.5,188.0L3681.9,191.0ZM987.6,196.0L975.4,204.5L962.4,204.1L955.4,194.1L955.5,188.4L961.5,183.6L972.8,180.5L996.5,180.9L1018.2,183.7L1001.2,193.8L987.6,196.0ZM677.4,211.6L647.5,217.3L641.5,212.3L615.2,206.3L619.0,202.6L628.0,193.2L637.8,185.7L626.7,178.7L665.2,176.9L681.4,179.3L710.5,179.9L721.5,183.2L733.7,188.0L719.4,190.9L691.5,198.9L677.4,206.9L677.4,211.6ZM3763.0,169.7L3749.8,174.2L3731.7,173.2L3710.5,168.7L3713.2,165.0L3734.4,166.7L3763.0,169.7ZM982.9,170.9L976.7,175.3L960.2,174.5L946.4,171.5L952.5,166.4L968.8,163.3L978.7,167.3L982.9,170.9ZM3698.8,164.3L3689.8,172.7L3647.9,172.4L3629.0,175.1L3606.5,167.7L3612.6,159.9L3627.6,157.7L3657.6,158.2L3698.8,164.3ZM927.3,151.1L936.0,156.4L936.4,162.2L931.2,170.7L912.4,171.8L900.2,170.0L900.4,163.4L881.8,164.3L881.0,155.5L893.3,155.8L910.4,151.9L926.4,152.6L927.3,151.1ZM816.8,157.0L821.3,161.0L831.4,159.1L843.3,159.6L845.3,165.2L838.4,170.6L799.9,172.4L771.2,177.3L753.8,177.6L752.4,173.8L776.0,168.8L724.6,170.2L708.7,168.1L724.2,157.0L735.0,153.8L767.0,157.7L787.2,164.4L807.0,165.3L790.8,154.4L801.2,150.3L812.9,151.6L816.8,157.0ZM2702.6,219.4L2695.9,220.4L2658.7,218.9L2655.7,213.8L2635.1,210.8L2633.5,204.6L2645.1,202.2L2644.7,196.0L2667.3,186.3L2656.8,184.9L2684.1,174.9L2681.0,169.7L2706.4,163.7L2744.0,156.4L2781.9,154.3L2801.3,150.1L2823.5,148.6L2831.4,153.1L2823.7,156.6L2783.4,162.3L2748.7,167.7L2713.3,178.5L2696.4,189.6L2678.6,200.6L2680.9,210.0L2702.6,219.4ZM970.7,146.8L983.3,150.5L1005.7,150.4L1015.6,154.2L1013.0,158.4L1026.0,161.0L1033.3,163.7L1048.6,164.2L1065.2,165.2L1083.3,162.7L1106.5,161.7L1124.9,162.5L1137.1,166.8L1139.7,171.5L1132.6,174.6L1115.6,177.0L1101.1,175.6L1068.4,177.4L1045.1,177.6L1026.7,176.2L996.4,172.5L992.5,166.3L991.1,160.6L979.7,155.7L956.2,154.3L943.0,150.7L947.3,146.1L970.7,146.8ZM725.9,140.6L724.3,149.3L715.6,153.3L705.0,153.8L683.8,158.7L665.6,160.4L650.2,158.0L669.5,149.5L692.8,142.1L710.3,142.2L725.9,140.6ZM980.3,142.0L975.1,142.3L953.8,141.6L950.8,138.4L973.7,138.6L981.7,140.7L980.3,142.0ZM794.3,140.0L773.1,143.2L756.3,139.6L765.4,136.0L782.1,134.8L798.1,136.6L794.3,140.0ZM2329.3,138.2L2303.9,142.8L2283.8,140.2L2291.7,137.3L2284.8,133.6L2308.4,131.3L2312.9,135.6L2329.3,138.2ZM800.3,129.7L786.4,131.9L767.5,131.9L767.7,130.3L779.4,126.9L785.5,127.4L800.3,129.7ZM957.7,135.9L940.8,138.2L931.6,135.6L926.7,131.3L925.8,126.6L940.5,127.1L947.2,127.8L960.8,131.8L957.7,135.9ZM909.5,132.8L913.9,137.6L895.4,136.3L876.7,132.6L851.3,132.2L862.3,128.8L848.6,126.1L847.7,121.7L870.1,123.3L900.8,127.4L909.5,132.8ZM3243.5,133.0L3179.4,137.4L3200.2,122.5L3209.5,121.2L3218.1,122.0L3246.9,128.4L3243.5,133.0ZM2255.6,117.2L2293.1,125.6L2264.5,130.1L2258.1,138.5L2248.2,140.6L2242.8,150.1L2229.1,150.5L2204.6,143.6L2214.9,139.5L2197.9,136.3L2175.7,126.6L2166.8,117.7L2197.9,113.7L2204.1,117.6L2220.3,117.5L2224.6,113.6L2241.3,113.2L2255.6,117.2ZM2337.5,109.1L2359.9,113.1L2343.0,119.3L2310.0,120.6L2276.4,118.7L2274.4,115.6L2258.1,115.4L2245.6,110.1L2280.8,107.0L2297.3,109.7L2308.8,106.3L2337.5,109.1ZM2629.8,107.5L2614.5,109.0L2604.3,109.9L2602.7,111.8L2589.4,113.7L2577.1,111.0L2583.6,107.4L2558.3,107.1L2580.5,105.0L2597.8,104.8L2600.1,107.9L2606.6,105.2L2617.3,103.3L2634.2,105.8L2629.8,107.5ZM3185.1,126.5L3160.3,127.9L3128.6,124.6L3109.7,120.3L3100.9,112.1L3085.4,109.9L3115.0,102.1L3139.6,99.6L3161.7,105.3L3187.9,116.3L3185.1,126.5ZM1057.9,117.7L1071.6,121.3L1056.0,124.7L1035.0,133.3L1014.8,134.1L991.3,132.6L979.0,128.0L979.2,123.9L988.2,120.8L967.4,120.9L954.9,117.1L947.7,112.0L955.6,106.9L963.4,103.5L975.1,102.7L970.1,100.1L996.6,99.5L1011.1,105.5L1030.3,108.0L1048.9,110.1L1057.9,117.7ZM1268.6,78.4L1299.0,79.3L1323.5,80.8L1344.3,83.9L1343.8,86.9L1316.0,91.9L1288.5,94.1L1278.2,96.7L1303.0,96.6L1276.1,103.5L1257.6,106.8L1238.1,116.1L1214.6,117.9L1207.4,120.3L1172.9,121.5L1188.6,122.9L1180.8,124.9L1190.2,130.6L1179.4,134.4L1161.8,137.7L1156.4,142.1L1140.5,145.5L1142.1,148.1L1161.6,147.7L1161.8,150.4L1131.4,157.3L1101.7,154.1L1068.2,155.9L1051.3,154.5L1029.8,153.9L1028.4,148.4L1049.4,145.9L1043.8,137.7L1050.8,136.9L1081.2,141.8L1065.6,134.5L1047.2,132.3L1056.4,127.9L1076.6,125.2L1079.8,121.2L1063.7,116.8L1058.9,110.9L1090.0,111.4L1099.0,112.6L1116.7,108.5L1091.1,107.2L1051.3,107.9L1031.2,104.0L1021.7,99.4L1008.4,96.1L1005.9,92.2L1022.9,90.1L1036.1,89.7L1058.5,87.8L1075.2,83.6L1089.3,84.2L1101.6,87.4L1110.2,81.2L1125.3,79.4L1145.7,78.2L1180.4,77.7L1186.5,78.9L1219.4,77.0L1244.0,77.7L1268.6,78.4ZM1739.7,73.7L1810.8,82.8L1789.8,87.1L1746.3,87.6L1685.0,88.8L1690.8,90.8L1731.1,89.5L1765.3,93.4L1787.4,90.0L1796.9,94.0L1784.4,100.7L1813.4,96.4L1868.6,92.0L1902.7,94.2L1909.1,99.1L1862.7,107.2L1856.3,109.8L1819.9,111.8L1846.2,112.3L1833.0,120.6L1823.8,128.0L1824.2,140.6L1837.8,148.1L1820.0,148.5L1801.3,152.1L1822.3,158.2L1825.0,167.8L1812.8,168.9L1827.6,178.7L1802.3,179.5L1815.5,184.1L1811.8,188.1L1795.7,189.9L1779.9,189.9L1794.1,197.6L1794.3,202.7L1771.8,198.0L1765.9,201.0L1781.3,203.9L1796.2,210.8L1800.5,220.0L1780.2,222.2L1771.5,217.8L1757.4,211.3L1761.3,219.0L1748.1,225.0L1778.1,225.5L1793.7,226.1L1763.2,236.0L1732.3,245.0L1699.0,248.9L1686.5,248.9L1674.7,253.3L1658.9,265.3L1634.4,273.3L1626.5,273.8L1611.4,276.6L1595.0,279.2L1585.3,286.3L1585.1,294.2L1579.4,301.7L1560.8,310.8L1565.4,319.7L1560.3,329.1L1554.4,340.2L1538.4,340.9L1521.6,331.6L1498.9,331.6L1487.8,325.3L1480.2,314.2L1460.5,300.1L1454.7,292.6L1453.2,282.4L1437.5,271.9L1441.6,263.6L1433.9,259.5L1445.2,246.2L1462.3,242.0L1466.8,237.2L1469.2,228.4L1456.2,232.4L1450.0,234.1L1439.8,235.7L1425.8,232.0L1425.1,224.3L1429.5,218.2L1440.1,218.0L1463.3,221.1L1443.7,213.8L1433.5,210.0L1422.2,211.6L1412.7,208.7L1425.4,198.1L1418.5,193.9L1409.5,186.0L1395.8,174.0L1381.3,169.5L1381.4,164.8L1350.9,158.1L1326.7,157.3L1296.3,157.8L1268.6,158.6L1255.4,155.0L1235.6,147.8L1265.5,144.2L1288.4,143.6L1239.7,140.7L1214.0,136.0L1215.6,131.6L1258.7,126.1L1300.4,120.7L1304.8,116.5L1274.0,112.4L1284.0,107.9L1323.3,100.0L1339.9,98.7L1335.2,93.6L1362.1,90.6L1397.1,88.8L1432.1,88.8L1444.5,92.3L1474.7,86.0L1501.8,90.3L1517.8,91.2L1541.4,94.9L1514.4,88.8L1515.9,83.9L1554.1,77.1L1594.1,77.6L1608.6,73.4L1648.8,72.3L1739.7,73.7Z"/>
  </g>
</svg>