<?xml version="1.0" encoding="UTF-8"?>
<svg xmlns="http://www.w3.org/2000/svg" width="4096" height="2048" viewBox="0 0 40960 20480">
  <rect width="40960" height="20480" fill="#1a6b8a"/>
  <line x1="3413.3" y1="0" x2="3413.3" y2="20480" stroke="#1e7ba0" stroke-width="1" opacity="0.25"/><line x1="6826.7" y1="0" x2="6826.7" y2="20480" stroke="#1e7ba0" stroke-width="1" opacity="0.25"/><line x1="10240.0" y1="0" x2="10240.0" y2="20480" stroke="#1e7ba0" stroke-width="1" opacity="0.25"/><line x1="13653.3" y1="0" x2="13653.3" y2="20480" stroke="#1e7ba0" stroke-width="1" opacity="0.25"/><line x1="17066.7" y1="0" x2="17066.7" y2="20480" stroke="#1e7ba0" stroke-width="1" opacity="0.25"/><line x1="20480.0" y1="0" x2="20480.0" y2="20480" stroke="#1e7ba0" stroke-width="1" opacity="0.25"/><line x1="23893.3" y1="0" x2="23893.3" y2="20480" stroke="#1e7ba0" stroke-width="1" opacity="0.25"/><line x1="27306.7" y1="0" x2="27306.7" y2="20480" stroke="#1e7ba0" stroke-width="1" opacity="0.25"/><line x1="30720.0" y1="0" x2="30720.0" y2="20480" stroke="#1e7ba0" stroke-width="1" opacity="0.25"/><line x1="34133.3" y1="0" x2="34133.3" y2="20480" stroke="#1e7ba0" stroke-width="1" opacity="0.25"/><line x1="37546.7" y1="0" x2="37546.7" y2="20480" stroke="#1e7ba0" stroke-width="1" opacity="0.25"/><line x1="0" y1="17066.7" x2="40960" y2="17066.7" stroke="#1e7ba0" stroke-width="1" opacity="0.25"/><line x1="0" y1="13653.3" x2="40960" y2="13653.3" stroke="#1e7ba0" stroke-width="1" opacity="0.25"/><line x1="0" y1="10240.0" x2="40960" y2="10240.0" stroke="#1e7ba0" stroke-width="1" opacity="0.25"/><line x1="0" y1="6826.7" x2="40960" y2="6826.7" stroke="#1e7ba0" stroke-width="1" opacity="0.25"/><line x1="0" y1="3413.3" x2="40960" y2="3413.3" stroke="#1e7ba0" stroke-width="1" opacity="0.25"/>
  <g fill="#7ab648" stroke="#5a8a32" stroke-width="0.8" stroke-opacity="0.6">
  <path d="M13702.1,19346.8L13668.5,19404.8L13635.3,19456.0L13396.9,19440.4L13142.6,19447.2L13000.0,19409.2L13000.0,19404.8L12937.8,19371.3L13193.8,19375.7L13439.1,19386.9L13523.9,19340.1L13584.1,19300.0L13702.1,19346.8ZM2365.5,19285.0L2147.1,19300.6L1998.0,19260.6L1931.3,19220.3L1926.8,19213.6L1853.0,19182.4L1922.3,19140.0L2134.0,19157.9L2247.5,19193.5L2334.3,19233.8L2365.5,19285.0ZM15342.5,19120.0L15482.6,19169.1L15531.8,19238.2L15545.3,19287.1L15549.8,19345.1L15373.7,19380.9L15188.5,19409.8L14974.7,19436.6L14736.3,19458.9L14466.8,19452.2L14317.3,19414.2L14337.4,19367.4L14580.3,19336.2L14678.2,19298.3L14749.4,19249.4L14801.0,19207.0L14869.9,19166.8L14943.6,19120.0L15001.3,19120.0L15170.9,19095.5L15342.5,19120.0ZM6688.8,18602.7L6835.9,18620.6L6971.9,18600.6L6907.2,18640.7L6800.2,18669.7L6642.1,18660.7L6528.3,18620.6L6552.8,18582.7L6688.8,18602.7ZM6194.0,18600.6L6368.1,18645.1L6300.9,18640.7L6153.9,18629.5L5997.8,18598.3L6080.6,18573.8L6194.0,18600.6ZM9218.1,18424.4L9343.1,18440.0L9467.6,18426.7L9534.4,18491.2L9445.5,18482.4L9307.4,18486.8L9166.9,18482.4L9012.9,18489.1L8897.0,18466.8L8837.2,18420.0L8908.5,18399.9L9053.1,18415.5L9218.1,18424.4ZM12691.6,18313.3L12705.1,18364.5L12685.0,18409.0L12653.9,18451.4L12520.4,18467.0L12393.0,18489.3L12243.9,18487.2L12299.6,18442.5L12165.7,18458.1L12038.7,18473.7L11951.8,18440.2L11945.3,18393.4L12070.2,18348.9L12148.0,18335.4L12279.5,18339.9L12313.1,18281.9L12319.7,18239.7L12317.2,18148.2L12381.9,18094.7L12486.8,18076.8L12547.0,18119.2L12573.6,18161.5L12622.8,18212.9L12660.5,18261.9L12691.6,18313.3ZM0.0,19878.5L6.6,19879.5L106.9,19813.3L312.1,19848.9L325.2,19844.8L357.2,19835.4L395.7,19823.6L428.9,19813.6L445.6,19808.6L462.4,19808.8L474.3,19810.7L639.0,19858.1L783.2,19810.7L809.0,19804.2L1143.2,19784.2L1251.8,19810.7L1305.0,19824.4L1476.6,19862.2L1799.8,19891.2L2055.8,19926.9L2494.9,19953.6L2822.6,19922.4L3306.3,19944.8L3580.3,19980.4L3881.0,19946.9L4197.6,19915.7L4222.2,19862.2L3774.1,19857.7L3406.3,19831.0L3310.4,19786.5L3005.3,19761.8L3025.3,19710.6L3067.5,19663.8L3110.1,19621.4L3087.6,19574.6L2898.4,19543.5L2811.5,19503.2L2635.4,19467.6L2911.9,19474.3L3174.8,19456.4L3339.5,19494.3L3542.3,19461.0L3729.4,19418.7L3820.8,19380.7L3780.6,19333.9L3633.6,19302.7L3466.5,19269.2L3232.6,19262.5L3027.8,19246.9L2807.0,19235.7L2733.3,19193.3L2586.2,19157.7L2497.4,19117.7L2461.7,18988.3L2517.4,18999.4L2619.8,19035.1L2807.0,19023.9L2987.7,19008.3L3081.0,19057.4L3261.7,19046.2L3413.2,19021.8L3555.8,18990.6L3684.8,18952.6L3856.4,18941.5L3851.9,18899.1L3812.2,18856.7L3845.4,18816.7L3992.4,18796.6L4059.2,18834.4L4233.3,18812.2L4364.7,18783.2L4527.4,18780.9L4681.0,18769.9L4835.0,18743.1L4957.4,18718.5L5095.5,18694.0L5184.8,18700.7L5262.6,18709.6L5432.2,18694.0L5583.7,18714.0L5739.8,18711.9L5888.9,18696.3L6042.5,18707.3L6212.1,18718.5L6370.2,18714.0L6535.2,18716.3L6704.4,18718.5L6860.5,18714.0L6976.4,18680.5L7114.4,18662.8L7257.4,18687.3L7392.9,18667.2L7515.8,18627.2L7589.1,18662.8L7629.3,18702.9L7703.0,18740.8L7821.0,18707.3L7957.0,18749.7L8110.6,18763.1L8242.1,18794.3L8402.6,18787.6L8547.6,18767.6L8718.8,18772.0L8872.8,18787.6L9028.9,18807.6L9089.1,18758.7L9015.4,18720.8L8959.7,18680.5L8812.6,18671.7L8747.9,18629.3L8723.3,18586.9L8683.2,18502.2L8770.4,18517.8L8919.5,18524.5L9066.6,18517.8L9200.5,18535.7L9316.4,18569.2L9365.2,18609.3L9519.2,18616.0L9666.2,18600.4L9822.3,18578.1L9962.4,18564.6L10078.3,18591.4L10229.9,18582.5L10327.8,18495.6L10419.5,18546.9L10551.0,18566.9L10693.5,18555.7L10786.9,18600.4L10936.4,18604.8L11074.5,18618.1L11210.5,18642.8L11299.7,18600.4L11344.0,18560.2L11457.9,18604.8L11613.9,18593.7L11729.8,18618.1L11807.7,18656.1L11959.2,18644.9L12077.2,18620.4L12193.1,18591.4L12331.1,18575.8L12491.7,18562.5L12636.7,18546.9L12748.1,18522.4L12814.9,18486.6L12841.5,18437.7L12828.4,18390.7L12792.8,18346.2L12752.6,18301.5L12717.0,18257.0L12687.9,18216.8L12681.3,18172.3L12692.4,18127.6L12745.7,18085.3L12790.3,18038.5L12808.3,17994.0L12785.8,17944.9L12772.7,17900.2L12828.4,17849.0L12890.7,17815.7L12964.4,17773.3L13042.2,17737.5L13133.5,17704.2L13178.2,17655.1L13240.5,17623.9L13311.7,17594.8L13421.1,17588.2L13492.4,17552.4L13572.6,17530.3L13666.0,17516.8L13748.8,17487.9L13813.1,17452.1L13902.4,17438.8L13969.1,17467.9L13926.9,17505.6L13811.0,17539.1L13761.9,17563.6L13677.5,17545.9L13583.7,17557.0L13505.9,17583.8L13423.1,17612.7L13367.4,17646.2L13351.9,17690.7L13358.8,17733.0L13412.1,17771.0L13334.3,17797.8L13227.3,17806.6L13164.7,17844.6L13097.9,17880.2L13026.6,17929.3L13008.6,17971.7L13048.8,18018.4L13109.0,18054.1L13202.8,18080.8L13289.6,18116.5L13336.3,18161.1L13360.9,18203.5L13394.5,18248.2L13447.7,18285.9L13481.3,18328.3L13496.9,18433.1L13530.0,18475.4L13539.1,18520.1L13574.7,18564.6L13559.1,18624.9L13496.9,18671.7L13430.1,18709.6L13278.5,18725.2L13227.3,18765.3L13158.1,18803.2L12986.5,18845.6L12834.9,18863.5L12692.4,18887.9L12538.4,18912.6L12447.0,18959.4L12264.4,18963.8L12064.1,18959.4L11883.4,18968.2L11691.7,18968.2L11727.4,19012.9L11901.0,19032.9L12028.4,19064.1L12099.7,19104.2L11972.7,19139.8L11776.5,19128.6L11613.9,19157.7L11607.0,19204.5L11602.4,19249.2L11736.4,19286.9L11761.0,19329.3L11905.6,19371.7L12146.4,19389.6L12351.2,19420.8L12514.2,19456.4L12721.5,19492.2L13004.1,19509.9L13283.1,19541.1L13476.8,19574.6L13688.6,19612.6L13800.0,19666.1L13855.7,19708.5L13993.7,19668.2L14180.9,19634.9L14379.2,19599.1L14615.5,19570.2L14818.2,19539.0L15101.3,19536.7L15379.8,19552.3L15609.2,19579.1L15682.9,19530.0L15841.0,19496.7L16128.6,19494.3L16353.9,19469.9L16567.7,19445.2L16804.0,19429.6L17055.5,19409.6L17231.6,19380.7L17151.4,19340.5L17102.6,19300.4L17102.6,19258.1L16881.8,19262.5L16647.9,19280.4L16425.1,19280.4L16393.6,19238.0L16409.6,19153.3L16460.8,19128.6L16623.4,19102.1L16815.1,19075.3L16953.1,19041.8L17091.1,19008.3L17194.0,18963.8L17349.6,18943.8L17503.6,18928.2L17581.4,18919.1L17757.6,18914.7L17924.7,18899.1L18065.2,18876.8L18203.2,18850.0L18328.1,18823.2L18486.3,18787.6L18586.6,18749.7L18693.5,18716.3L18727.1,18671.7L18606.7,18644.9L18646.8,18598.1L18722.6,18562.5L18840.6,18540.1L18965.5,18513.4L19081.4,18477.7L19170.3,18433.1L19226.0,18379.7L19308.7,18348.3L19444.3,18355.1L19500.0,18393.0L19636.0,18397.4L19640.5,18355.1L19698.7,18310.6L19821.2,18321.8L19850.2,18364.1L19985.8,18370.7L20133.3,18350.6L20275.8,18337.4L20404.8,18343.9L20454.0,18390.7L20578.9,18353.0L20694.8,18332.7L20823.9,18317.1L20950.8,18301.5L21066.8,18274.8L21193.7,18257.0L21292.0,18232.4L21360.9,18192.3L21445.6,18221.4L21563.6,18205.8L21646.3,18259.2L21710.7,18299.4L21840.1,18277.1L21891.3,18232.4L22007.2,18201.2L22156.7,18207.9L22201.0,18250.3L22294.8,18207.9L22417.2,18194.7L22550.8,18190.2L22671.2,18192.3L22798.2,18205.8L22921.0,18212.4L22974.3,18250.3L23048.0,18283.8L23172.5,18263.8L23306.5,18259.2L23435.5,18259.2L23562.5,18257.0L23676.3,18241.4L23796.8,18228.0L23897.1,18196.8L24004.0,18176.7L24119.9,18165.6L24206.8,18134.4L24269.0,18072.0L24333.8,18034.0L24451.7,18052.0L24496.4,18092.0L24594.3,18118.8L24712.6,18109.9L24792.9,18150.0L24877.3,18179.1L24993.2,18152.3L25033.4,18103.2L25135.8,18083.2L25254.1,18045.2L25365.6,18029.6L25499.1,18007.3L25588.4,17982.8L25681.8,17956.1L25771.1,17931.6L25878.0,17944.9L25980.4,17904.8L26054.1,17873.6L26161.0,17875.7L26254.8,17849.0L26276.9,17808.9L26372.8,17777.7L26466.2,17755.4L26580.0,17737.5L26684.9,17728.6L26784.8,17735.4L26892.1,17746.5L26983.5,17777.7L26994.5,17826.6L27094.9,17864.6L27163.7,17895.8L27299.7,17909.3L27375.5,17940.5L27469.3,17971.7L27578.2,17978.4L27669.6,17956.1L27767.9,17909.3L27874.8,17933.7L27986.2,17947.2L28093.1,17960.5L28204.5,17969.3L28318.0,17969.3L28411.8,18087.6L28407.3,18116.5L28393.8,18167.9L28284.8,18196.8L28195.5,18239.1L28211.1,18283.8L28338.0,18281.5L28322.5,18326.2L28264.7,18368.5L28211.1,18415.3L28297.9,18451.0L28429.4,18462.1L28560.9,18442.1L28623.5,18397.4L28661.2,18355.1L28723.9,18319.4L28795.2,18285.9L28823.8,18245.9L28884.1,18190.2L28955.3,18179.1L29084.8,18174.4L29198.2,18161.1L29314.1,18143.2L29369.8,18098.8L29403.4,18056.4L29481.3,18014.0L29592.7,17984.9L29688.5,17962.8L29751.2,17924.9L29815.5,17904.8L29898.2,17886.9L30011.7,17898.1L30114.1,17886.9L30225.5,17873.6L30350.4,17880.2L30432.8,17849.0L30490.9,17773.3L30533.1,17804.5L30586.8,17858.0L30682.6,17880.2L30791.6,17889.2L30900.9,17875.7L31016.9,17884.6L31123.8,17886.9L31195.0,17875.7L31290.9,17882.5L31377.7,17906.9L31480.1,17891.3L31603.0,17891.3L31707.5,17875.7L31825.8,17891.3L31901.6,17853.4L31959.4,17815.7L32037.6,17784.3L32180.1,17699.7L32253.5,17715.3L32340.3,17746.5L32416.1,17786.6L32561.1,17855.7L32672.5,17858.0L32777.3,17858.0L32899.8,17844.6L33022.3,17829.0L33116.1,17797.8L33193.9,17764.2L33320.9,17759.8L33405.7,17735.4L33495.0,17757.7L33552.7,17793.3L33633.0,17829.0L33757.9,17824.5L33835.8,17853.4L33971.7,17882.5L34114.3,17893.7L34232.3,17884.6L34321.5,17849.0L34397.3,17813.4L34499.7,17804.5L34602.5,17820.1L34720.5,17831.3L34827.4,17813.4L34929.8,17813.4L35030.2,17824.5L35135.0,17835.7L35237.4,17815.7L35359.9,17797.8L35475.8,17793.3L35605.2,17793.3L35709.7,17782.2L35812.5,17773.3L35843.6,17717.5L35848.1,17670.7L35919.4,17701.9L35939.5,17753.1L35977.2,17800.1L36024.3,17837.8L36120.1,17858.0L36249.1,17851.3L36398.6,17849.0L36501.0,17842.2L36650.1,17842.2L36757.5,17840.1L36906.6,17844.6L37033.5,17853.4L37113.8,17889.2L37091.7,17931.6L37165.0,17964.9L37287.5,17991.7L37414.5,18020.8L37561.9,18040.8L37715.5,18058.5L37831.4,18076.4L37960.5,18078.7L38034.2,18040.8L38134.6,18072.0L38221.4,18107.6L38321.7,18134.4L38459.8,18145.5L38591.3,18158.8L38647.0,18203.5L38776.4,18230.3L38863.2,18270.3L38990.2,18288.2L39121.7,18285.9L39244.2,18292.7L39380.2,18290.4L39516.1,18299.4L39643.1,18315.0L39761.1,18341.8L39879.5,18364.1L39959.3,18397.4L39946.2,18442.1L39886.0,18482.2L39834.8,18533.4L39794.7,18573.6L39741.0,18620.4L39591.9,18638.3L39525.2,18678.4L39377.7,18702.9L39326.5,18747.5L39248.7,18789.9L39166.3,18825.5L39119.2,18872.3L39090.6,18914.7L39079.1,18965.9L39081.6,19008.3L39146.3,19053.0L39170.8,19095.3L39224.1,19135.4L39435.9,19151.0L39480.5,19200.1L39275.3,19218.0L39101.6,19242.5L38885.4,19246.9L38789.5,19311.6L38769.4,19365.1L38720.7,19407.5L38660.5,19449.9L38812.0,19487.6L38869.8,19534.6L38967.7,19576.8L39106.1,19614.7L39264.2,19650.5L39435.9,19686.2L39696.4,19721.8L39754.5,19777.4L40082.2,19802.1L40103.9,19810.7L40189.1,19844.4L40503.3,19815.4L40763.8,19851.2L0.0,19878.5ZM12771.5,16366.9L12919.3,16435.3L13078.7,16463.6L13027.5,16520.6L12919.3,16526.2L12861.6,16486.1L12823.9,16532.1L12726.4,16567.4L12603.1,16554.5L12520.4,16520.4L12401.2,16503.8L12257.8,16440.3L12141.9,16379.2L11985.0,16251.8L12078.8,16275.6L12238.6,16351.7L12389.7,16392.5L12448.3,16340.3L12485.1,16262.3L12590.0,16215.4L12671.1,16228.8L12714.5,16281.6L12771.5,16366.9ZM13818.4,16054.0L13909.3,16105.2L13875.3,16145.1L13721.7,16179.2L13670.5,16139.3L13573.9,16190.5L13516.9,16139.3L13653.3,16071.1L13750.0,16099.6L13818.4,16054.0ZM28476.5,15895.9L28301.6,15903.2L28298.7,15842.7L28315.5,15795.7L28323.3,15772.4L28396.6,15808.3L28504.3,15822.5L28508.0,15844.1L28476.5,15895.9ZM37022.9,14881.2L37133.1,14920.5L37194.9,14904.9L37283.8,14883.1L37351.8,14890.6L37360.0,15025.8L37321.1,15064.9L37309.2,15156.6L37269.5,15125.4L37190.4,15204.7L37167.1,15198.6L37097.0,15194.9L37027.0,15097.7L37011.4,15022.5L36945.9,14923.4L36948.7,14871.2L37022.9,14881.2ZM40165.8,14895.6L40191.6,14942.6L40272.7,14896.6L40305.5,14944.6L40305.5,14992.5L40263.3,15045.3L40188.7,15129.0L40130.6,15174.9L40172.7,15229.6L40085.1,15230.9L39987.6,15273.9L39956.9,15348.4L39892.6,15463.4L39802.9,15514.2L39746.3,15546.7L39641.5,15544.2L39567.8,15506.9L39444.1,15498.8L39425.2,15457.0L39486.2,15372.7L39629.2,15260.4L39702.5,15239.0L39784.4,15195.7L39881.9,15136.0L39950.3,15077.0L40000.7,14992.1L40044.1,14963.4L40060.9,14899.9L40140.8,14847.3L40165.8,14895.6ZM40346.8,14353.7L40429.6,14473.5L40431.6,14395.9L40483.2,14426.9L40500.0,14513.0L40591.8,14550.0L40668.8,14559.2L40733.5,14515.7L40791.2,14529.0L40763.8,14629.9L40729.0,14696.3L40642.1,14694.0L40611.8,14728.5L40622.5,14777.4L40605.7,14798.6L40562.7,14860.0L40506.2,14937.8L40418.5,14983.3L40398.8,14953.4L40351.3,14937.0L40416.9,14843.5L40379.6,14780.7L40257.1,14735.2L40260.4,14694.0L40342.7,14654.3L40362.0,14566.7L40356.7,14493.2L40310.4,14416.9L40313.6,14396.9L40259.2,14349.9L40169.9,14249.2L40122.0,14168.7L40164.5,14159.8L40226.4,14223.0L40314.9,14252.4L40346.8,14353.7ZM39494.4,12761.3L39451.4,12788.7L39388.8,12757.9L39307.2,12706.6L39233.9,12646.4L39158.6,12566.2L39143.0,12527.5L39191.7,12529.3L39255.6,12568.0L39305.6,12606.5L39342.1,12638.5L39435.5,12708.9L39494.4,12761.3ZM40774.9,12212.9L40814.2,12245.8L40795.3,12305.1L40724.9,12320.7L40662.2,12306.7L40651.2,12256.6L40695.0,12217.5L40746.6,12231.7L40774.9,12212.9ZM0.0,12123.7L40887.5,12151.6L40815.0,12175.5L40800.3,12133.1L40857.2,12109.8L40893.2,12103.5L0.0,12068.1L23.3,12062.9L9.4,12117.5L0.0,12123.7ZM39577.2,12113.5L39539.5,12128.5L39501.4,12078.6L39505.5,12048.2L39577.2,12113.5ZM39493.2,11939.2L39511.6,12030.9L39480.9,12016.6L39457.2,12022.8L39441.2,11991.4L39438.7,11904.2L39493.2,11939.2ZM26175.3,11782.3L26193.8,11919.2L26223.3,11972.3L26211.8,12027.0L26191.7,12060.5L26153.2,11993.7L26131.5,12027.4L26153.2,12111.8L26143.4,12159.9L26111.9,12186.3L26104.5,12282.6L26059.8,12415.3L26003.7,12572.0L25933.3,12787.7L25889.8,12945.8L25838.6,13077.7L25746.1,13104.7L25646.5,13152.8L25581.0,13123.8L25490.9,13083.1L25459.4,13023.0L25452.0,12922.1L25411.8,12831.4L25401.2,12749.6L25421.7,12667.5L25474.1,12647.9L25474.5,12610.0L25529.0,12523.9L25539.2,12451.3L25512.6,12397.4L25491.3,12325.7L25481.9,12221.0L25521.6,12157.2L25537.2,12085.0L25593.7,12080.8L25657.2,12057.5L25699.4,12036.9L25749.4,12035.5L25814.1,11970.6L25907.9,11900.5L25941.9,11843.3L25926.3,11794.6L25974.6,11808.3L26037.3,11729.3L26039.8,11660.8L26077.4,11609.9L26116.8,11658.8L26147.1,11707.2L26175.3,11782.3ZM36814.0,11806.0L36854.9,11895.3L36928.3,11852.4L36966.0,11900.5L37020.4,11945.0L37008.5,11995.5L37033.1,12092.9L37050.3,12149.7L37079.0,12163.6L37109.7,12260.8L37098.7,12319.9L37135.5,12397.0L37258.8,12456.5L37339.5,12510.6L37415.7,12560.1L37400.5,12587.6L37465.7,12659.1L37509.9,12782.1L37555.4,12757.1L37601.7,12806.4L37629.5,12788.9L37649.2,12909.4L37729.9,12979.3L37782.7,13022.8L37871.6,13114.9L37903.5,13206.4L37906.4,13271.3L37898.6,13341.6L37952.7,13438.2L37946.1,13538.9L37926.5,13591.7L37895.8,13693.2L37898.2,13758.5L37875.7,13839.9L37825.3,13943.5L37741.3,13999.4L37699.6,14087.6L37661.5,14143.8L37627.9,14242.0L37584.0,14298.7L37555.4,14383.8L37540.6,14462.2L37546.4,14498.2L37481.2,14537.6L37353.8,14541.9L37248.6,14588.5L37196.6,14632.6L37127.7,14681.5L37033.5,14631.0L36963.9,14611.0L36981.5,14551.7L36919.3,14573.3L36819.7,14655.7L36721.4,14624.9L36656.7,14606.8L36591.6,14598.7L36481.4,14565.8L36408.1,14495.7L36386.8,14409.2L36360.6,14351.8L36304.4,14305.6L36195.1,14291.9L36232.3,14236.6L36204.9,14152.3L36149.2,14230.9L36048.0,14251.9L36107.8,14188.9L36125.0,14123.2L36168.9,14067.6L36159.8,13983.2L36067.3,14080.3L35996.0,14119.2L35952.6,14209.7L35863.7,14162.9L35867.4,14102.6L35796.1,14020.0L35735.9,13977.4L35757.2,13951.1L35611.4,13882.1L35531.5,13878.8L35422.2,13823.6L35218.2,13834.4L35071.1,13875.0L34941.3,13912.9L34832.7,13905.4L34712.3,13963.8L34613.6,13990.2L34591.9,14049.7L34549.7,14095.9L34453.0,14098.8L34381.8,14108.8L34281.0,14088.2L34199.5,14100.5L34121.3,14105.7L34053.7,14166.4L34020.5,14161.4L33963.1,14193.5L33908.7,14229.5L33825.5,14225.1L33749.3,14225.1L33628.5,14152.5L33567.5,14130.7L33569.9,14065.6L33626.4,14050.0L33645.7,14024.2L33641.6,13983.4L33655.5,13904.3L33642.8,13836.9L33582.6,13721.7L33564.2,13656.8L33569.1,13592.1L33523.6,13518.0L33520.8,13484.4L33470.4,13439.2L33456.1,13350.0L33391.3,13260.1L33375.4,13211.6L33425.3,13260.7L33387.2,13155.1L33443.4,13188.1L33477.4,13232.2L33475.3,13173.8L33418.8,13084.3L33408.1,13048.5L33381.5,13014.4L33394.2,12948.7L33417.1,12920.6L33432.7,12863.8L33420.8,12797.1L33467.5,12715.3L33476.1,12802.0L33524.5,12723.8L33616.6,12685.6L33672.3,12637.1L33759.2,12595.3L33810.8,12586.5L33842.3,12600.5L33932.0,12558.2L34000.8,12545.4L34018.0,12520.6L34048.3,12510.2L34111.0,12512.9L34230.6,12479.6L34292.5,12429.1L34321.5,12368.3L34388.3,12310.5L34393.6,12265.1L34396.5,12203.2L34476.0,12106.6L34523.9,12204.8L34572.6,12182.1L34532.1,12128.3L34567.7,12073.1L34617.7,12097.7L34631.6,12011.2L34693.9,11955.2L34721.3,11910.3L34778.7,11890.9L34780.3,11859.1L34830.3,11872.4L34832.3,11843.9L34882.3,11827.5L34937.2,11812.1L35021.2,11864.3L35084.6,11931.7L35155.5,11932.5L35228.0,11943.3L35203.8,11880.7L35258.3,11789.6L35309.9,11759.7L35291.9,11731.4L35341.5,11666.3L35410.3,11626.3L35468.4,11639.8L35564.3,11618.4L35562.2,11560.2L35478.7,11522.7L35539.3,11506.1L35614.7,11534.4L35675.3,11581.0L35771.1,11610.1L35803.5,11598.6L35873.9,11633.6L35940.3,11601.1L35983.3,11610.9L36009.9,11589.1L36062.0,11645.4L36031.6,11706.2L35988.6,11752.2L35949.3,11756.1L35962.4,11801.5L35929.2,11858.3L35888.7,11914.4L35896.9,11946.3L35987.4,12009.3L36075.1,12045.7L36133.6,12085.0L36216.0,12152.4L36247.9,12152.2L36307.3,12181.3L36324.9,12216.5L36433.5,12255.0L36508.4,12216.1L36531.0,12155.1L36553.9,12104.6L36567.8,12042.2L36602.6,11951.7L36586.7,11896.7L36594.8,11863.7L36581.7,11798.4L36596.9,11712.8L36618.6,11689.6L36601.0,11651.7L36628.4,11591.4L36649.7,11528.8L36652.6,11496.5L36695.2,11453.7L36727.2,11509.4L36734.9,11580.8L36763.6,11594.5L36768.1,11642.5L36809.5,11700.2L36818.1,11764.7L36814.0,11806.0ZM38925.5,11432.7L38957.4,11471.8L38878.0,11471.1L38834.6,11401.2L38902.6,11428.5L38925.5,11432.7ZM34214.6,11405.0L34166.7,11407.1L34016.0,11327.4L34122.1,11305.1L34181.9,11339.7L34221.6,11374.4L34214.6,11405.0ZM38781.3,11363.2L38737.1,11365.9L38667.4,11354.4L38643.7,11336.8L38650.7,11291.6L38725.6,11309.5L38762.9,11333.4L38781.3,11363.2ZM38875.5,11332.2L38858.3,11353.2L38773.9,11254.6L38750.6,11186.6L38789.1,11186.6L38830.1,11277.7L38875.5,11332.2ZM34638.2,11393.7L34540.7,11418.7L34527.2,11405.0L34537.4,11366.3L34586.2,11297.0L34698.8,11251.7L34711.9,11225.0L34809.8,11199.3L34889.3,11195.5L34924.9,11181.2L34967.9,11195.5L34926.1,11226.3L34807.7,11276.0L34712.3,11308.7L34638.2,11393.7ZM33894.3,11161.0L33935.3,11191.5L34005.7,11182.2L34034.0,11230.5L33902.5,11253.5L33823.5,11268.7L33762.4,11267.7L33801.3,11202.2L33864.0,11201.3L33894.3,11161.0ZM34463.7,11161.0L34446.9,11224.2L34276.1,11256.5L34124.5,11242.5L34124.5,11200.9L34214.6,11177.2L34285.9,11211.3L34361.7,11202.6L34463.7,11161.0ZM38670.3,11188.6L38675.2,11211.5L38585.9,11163.1L38523.7,11122.3L38481.1,11084.4L38497.9,11072.8L38550.3,11100.2L38643.7,11152.5L38670.3,11188.6ZM38404.5,11076.1L38381.5,11082.5L38332.0,11056.6L38285.3,11009.9L38291.0,10990.8L38359.0,11038.9L38404.5,11076.1ZM32838.8,11011.2L33057.1,11022.6L33082.1,10975.6L33293.0,11030.3L33334.4,11104.0L33505.2,11124.8L33644.9,11192.4L33515.0,11235.7L33389.7,11189.9L33286.9,11193.0L33168.9,11184.5L33062.4,11164.1L32930.5,11120.8L32847.0,11109.4L32799.5,11123.7L32592.2,11076.9L32572.5,11028.0L32468.1,11019.5L32546.3,10910.9L32684.4,10917.6L32776.1,10962.1L32823.2,10970.8L32838.8,11011.2ZM35808.8,10947.1L35750.2,11024.5L35739.2,10938.8L35759.3,10898.0L35783.0,10859.4L35808.8,10892.8L35808.8,10947.1ZM38215.7,11016.0L38183.7,11027.4L38134.6,10983.7L38084.6,10911.4L38060.4,10824.8L38076.0,10813.8L38088.3,10847.5L38122.7,10873.3L38178.0,10945.5L38231.6,10984.0L38215.7,11016.0ZM37772.5,10863.3L37712.7,10872.5L37694.6,10904.5L37632.4,10932.2L37574.2,10958.8L37513.6,10958.6L37420.2,10925.7L37355.5,10893.9L37364.9,10858.7L37466.9,10875.2L37529.2,10866.4L37546.4,10811.9L37562.7,10809.0L37573.8,10869.5L37638.5,10860.8L37670.5,10821.9L37734.0,10781.3L37721.7,10714.2L37789.7,10712.1L37812.6,10730.8L37810.6,10793.8L37772.5,10863.3ZM34958.1,10633.6L34915.5,10671.3L34836.8,10650.5L34814.7,10601.6L34929.8,10596.0L34958.1,10633.6ZM35324.7,10592.0L35366.0,10679.0L35270.2,10632.0L35175.2,10622.6L35110.9,10630.1L35032.2,10626.0L35058.8,10563.5L35199.7,10558.8L35324.7,10592.0ZM37903.9,10752.0L37868.3,10782.2L37847.0,10715.2L37820.4,10671.1L37768.8,10633.9L37704.1,10585.4L37622.1,10551.9L37653.7,10524.4L37715.1,10556.3L37753.6,10581.4L37801.5,10608.7L37847.0,10656.5L37890.4,10692.9L37903.9,10752.0ZM35742.5,10371.1L35774.4,10555.0L35892.0,10623.2L35987.0,10502.4L36117.7,10433.9L36218.8,10433.7L36316.3,10473.3L36400.7,10514.2L36522.8,10535.9L36720.2,10614.3L36930.3,10679.4L37009.0,10737.5L37072.0,10794.7L37089.7,10862.0L37278.9,10932.2L37306.7,10992.5L37201.9,11004.8L37227.3,11080.5L37328.9,11155.2L37402.6,11276.0L37467.7,11272.1L37463.2,11322.6L37551.3,11341.9L37516.9,11363.2L37637.7,11411.2L37625.4,11444.1L37550.0,11452.0L37521.8,11422.5L37424.3,11409.8L37309.2,11392.7L37220.7,11320.1L37156.0,11257.5L37097.0,11157.9L36948.7,11108.1L36852.5,11140.6L36782.9,11178.2L36797.2,11262.1L36707.9,11301.2L36644.4,11282.2L36526.4,11277.3L36425.3,11183.9L36309.8,11161.2L36281.5,11193.6L36137.3,11197.0L36185.7,11104.4L36257.3,11072.8L36227.8,10949.2L36173.0,10853.7L35952.6,10757.4L35858.8,10747.8L35688.0,10642.6L35654.4,10697.9L35610.6,10707.9L35584.8,10666.3L35584.4,10616.8L35497.5,10561.0L35620.0,10519.9L35701.1,10522.1L35691.7,10492.0L35525.0,10491.8L35479.9,10424.0L35378.3,10403.0L35330.4,10346.6L35483.6,10319.1L35541.8,10282.1L35724.4,10328.7L35742.5,10371.1ZM34729.5,10078.4L34638.2,10191.4L34552.6,10213.2L34443.2,10191.0L34253.6,10196.6L34154.0,10213.0L34138.0,10299.1L34239.6,10400.3L34301.1,10348.7L34513.2,10310.0L34504.2,10362.4L34454.7,10345.9L34405.1,10412.7L34304.8,10456.8L34412.5,10602.6L34392.0,10641.6L34494.0,10773.0L34493.2,10847.7L34432.5,10881.0L34387.9,10841.2L34442.8,10747.9L34331.0,10792.0L34302.7,10760.5L34317.5,10716.6L34235.5,10649.9L34244.1,10539.0L34167.9,10573.5L34177.8,10706.2L34182.3,10869.1L34110.2,10885.4L34061.4,10852.1L34093.8,10747.4L34076.2,10637.6L34028.3,10636.8L33993.0,10558.8L34040.1,10484.3L34056.5,10394.0L34113.5,10222.4L34137.2,10175.6L34234.3,10091.1L34323.2,10124.6L34466.5,10140.4L34597.2,10135.6L34709.9,10052.9L34729.5,10078.4ZM35121.9,10111.1L35115.8,10210.7L35057.2,10199.5L35040.0,10268.6L35086.7,10328.7L35054.7,10342.4L35008.9,10270.4L34975.3,10125.0L34998.2,10034.1L35035.9,9992.7L35044.1,10054.7L35111.3,10064.7L35121.9,10111.1ZM32519.7,10905.9L32393.5,10908.2L32297.7,10813.0L32151.9,10720.2L32103.1,10651.3L32017.1,10558.6L31960.6,10473.3L31873.8,10314.1L31773.8,10219.1L31740.6,10121.3L31698.4,10032.5L31596.0,9960.9L31536.6,9863.4L31451.0,9799.9L31332.3,9674.3L31322.4,9616.6L31395.3,9621.2L31571.5,9643.1L31672.2,9754.3L31760.3,9831.5L31823.0,9878.9L31930.7,10001.1L32046.6,10002.9L32142.0,10080.9L32208.0,10176.2L32294.4,10228.2L32248.9,10321.0L32314.1,10360.5L32355.0,10363.4L32374.3,10442.7L32414.0,10506.3L32497.6,10516.3L32552.9,10588.3L32524.2,10729.8L32519.7,10905.9ZM33891.5,10032.1L34019.3,10137.3L33884.5,10150.8L33846.4,10228.4L33851.3,10331.4L33742.0,10409.2L33739.1,10522.6L33695.3,10696.5L33678.5,10656.1L33549.0,10707.3L33504.0,10637.8L33422.9,10631.2L33365.9,10594.9L33230.8,10635.7L33189.4,10580.8L33114.9,10587.0L33021.1,10573.9L33003.4,10421.1L32946.9,10389.6L32892.0,10292.3L32876.5,10192.8L32889.6,10087.2L32957.2,10011.7L33040.7,10050.6L33128.4,10029.4L33151.3,9933.2L33200.1,9911.6L33336.4,9886.9L33418.0,9797.0L33474.1,9725.0L33519.1,9682.4L33615.8,9620.2L33703.5,9541.1L33760.8,9452.1L33806.7,9451.7L33865.2,9509.3L33870.6,9558.8L33945.5,9590.6L34040.1,9624.7L34032.0,9669.3L33955.8,9674.9L33976.3,9730.6L33892.3,9769.3L33827.6,9871.9L33911.1,9979.8L33891.5,10032.1ZM34858.9,9282.6L34870.4,9358.1L34877.0,9422.1L34838.5,9526.1L34796.7,9410.1L34743.4,9467.9L34779.9,9551.7L34747.5,9605.0L34613.6,9539.0L34581.6,9456.5L34616.1,9402.6L34544.0,9348.7L34508.3,9395.9L34454.7,9391.4L34370.7,9455.0L34351.9,9421.7L34396.5,9325.8L34468.2,9293.8L34530.0,9250.9L34570.2,9302.5L34657.0,9271.3L34675.4,9220.4L34755.7,9217.6L34749.2,9129.5L34841.3,9183.5L34850.8,9240.7L34858.9,9282.6ZM29720.9,9534.9L29621.7,9560.9L29567.7,9470.4L29547.6,9306.9L29599.2,9122.2L29677.9,9185.4L29730.7,9265.5L29785.6,9384.1L29768.4,9502.6L29720.9,9534.9ZM13546.8,9089.7L13451.8,9102.2L13431.3,9092.0L13464.5,9060.6L13462.0,9015.7L13527.6,9000.9L13551.3,9004.9L13546.8,9089.7ZM34586.6,9070.4L34545.6,9108.0L34510.0,9179.8L34474.3,9213.5L34404.3,9134.7L34427.6,9104.3L34456.3,9072.5L34468.6,9001.9L34531.3,8995.1L34513.2,9071.8L34597.2,8962.0L34586.6,9070.4ZM33963.1,9180.0L33812.0,9288.0L33867.7,9208.3L33949.6,9138.2L34018.0,9059.4L34077.8,8946.4L34097.9,9039.2L34022.9,9101.8L33963.1,9180.0ZM34347.8,8886.9L34415.8,8922.1L34488.3,8921.9L34486.2,8969.5L34433.4,9017.8L34361.3,9052.1L34357.2,8999.2L34365.4,8941.2L34347.8,8886.9ZM34759.4,8856.1L34791.4,8983.2L34703.7,8953.0L34705.8,8991.3L34733.6,9061.4L34679.5,9087.0L34675.0,9006.9L34640.6,9000.9L34623.0,8932.2L34689.8,8941.2L34688.1,8898.1L34618.9,8811.2L34727.9,8813.7L34759.4,8856.1ZM34307.2,8753.1L34276.9,8851.3L34228.2,8794.5L34170.0,8707.8L34267.5,8712.0L34307.2,8753.1ZM34283.9,8134.7L34353.9,8167.1L34388.7,8137.6L34399.4,8166.5L34380.5,8213.7L34419.4,8295.1L34389.5,8389.7L34322.4,8427.4L34304.8,8519.1L34330.1,8609.8L34390.4,8622.3L34440.7,8608.8L34582.9,8672.0L34571.8,8733.8L34609.1,8761.1L34597.2,8813.5L34508.7,8757.7L34466.5,8698.0L34437.5,8739.8L34365.0,8671.6L34261.3,8688.4L34204.8,8663.3L34210.5,8616.3L34246.2,8587.3L34212.2,8561.1L34197.4,8602.1L34141.3,8536.6L34124.5,8487.1L34120.0,8378.1L34165.9,8415.7L34177.8,8237.5L34214.6,8134.5L34283.9,8134.7ZM13017.2,8166.1L12988.1,8194.8L12902.5,8194.0L12835.8,8198.1L12829.2,8149.3L12845.6,8132.8L12938.6,8133.4L12996.7,8143.4L13017.2,8166.1ZM11730.2,8206.9L11695.8,8226.0L11631.9,8207.7L11566.8,8166.3L11580.7,8140.3L11628.3,8132.4L11654.5,8136.2L11731.1,8146.4L11791.3,8173.8L11810.1,8204.8L11730.2,8206.9ZM12222.2,7979.1L12320.9,7997.0L12334.8,7977.6L12423.7,7978.1L12491.3,8007.4L12521.2,8004.5L12541.7,8044.8L12603.9,8042.6L12600.2,8076.5L12651.0,8080.6L12706.7,8122.4L12664.5,8168.6L12610.5,8143.9L12558.5,8148.8L12520.8,8143.4L12500.3,8164.0L12456.9,8171.1L12439.3,8143.4L12401.6,8159.7L12356.1,8237.7L12327.0,8219.6L12321.3,8186.9L12245.5,8167.6L12191.9,8175.5L12122.6,8167.2L12069.4,8188.4L12008.4,8153.0L12018.2,8116.4L12123.1,8132.2L12209.1,8141.2L12250.0,8116.0L12198.0,8066.7L12198.8,8023.2L12127.1,8005.5L12152.5,7974.1L12222.2,7979.1ZM33034.2,8114.9L32935.9,8169.6L32842.5,8134.3L32839.2,8036.3L32895.3,7984.9L33019.8,7952.9L33085.0,7955.6L33110.3,7999.1L33060.4,8049.2L33034.2,8114.9ZM2782.9,8068.6L2766.1,8087.7L2737.8,8071.5L2741.1,8039.8L2722.2,7998.2L2728.0,7985.6L2747.6,7967.0L2739.8,7944.6L2746.4,7934.0L2755.0,7936.2L2798.8,7955.4L2818.9,7965.2L2837.3,7980.4L2866.4,8020.3L2863.5,8026.7L2819.3,8050.9L2782.9,8068.6ZM2721.8,7891.1L2683.3,7899.4L2664.1,7875.3L2651.0,7866.1L2649.7,7858.9L2660.8,7849.3L2701.3,7860.1L2731.2,7877.4L2721.8,7891.1ZM2644.4,7830.6L2640.7,7842.8L2579.7,7839.5L2588.3,7825.6L2644.4,7830.6ZM2542.4,7814.1L2536.3,7820.6L2528.5,7819.1L2488.8,7815.0L2474.4,7789.4L2469.9,7784.8L2500.2,7769.0L2509.6,7776.3L2542.4,7814.1ZM2349.9,7739.0L2336.4,7750.1L2298.3,7729.5L2304.0,7721.2L2321.6,7710.1L2347.9,7712.4L2349.9,7739.0ZM11414.4,7649.8L11459.5,7691.4L11566.0,7678.7L11606.1,7705.3L11702.4,7775.7L11773.3,7827.2L11810.9,7825.6L11878.5,7848.7L11870.3,7880.9L11954.3,7885.5L12040.3,7932.1L12026.8,7958.7L11951.0,7973.1L11874.4,7978.7L11796.2,7969.9L11633.2,7980.8L11709.4,7917.5L11663.1,7887.8L11589.7,7880.3L11550.4,7847.4L11523.4,7782.7L11459.1,7787.1L11353.0,7756.5L11319.0,7732.6L11170.7,7715.1L11131.0,7692.9L11173.6,7664.4L11061.8,7658.7L10980.3,7717.8L10933.2,7719.3L10916.8,7747.0L10860.2,7759.6L10811.9,7748.8L10871.7,7713.5L10896.3,7672.5L10947.9,7647.3L11006.1,7625.0L11092.1,7614.2L11119.5,7601.6L11217.8,7609.7L11307.5,7611.1L11414.4,7649.8ZM11658.2,7536.8L11630.3,7542.3L11601.6,7476.9L11559.0,7443.9L11583.6,7371.7L11618.0,7376.1L11657.7,7470.7L11658.2,7536.8ZM34267.1,7646.9L34218.3,7740.3L34158.5,7644.2L34145.4,7559.9L34212.2,7448.0L34303.5,7361.9L34355.5,7395.8L34335.5,7464.5L34267.1,7646.9ZM11625.8,7215.7L11501.7,7234.0L11493.9,7191.8L11547.1,7182.8L11622.5,7186.3L11625.8,7215.7ZM11719.2,7214.6L11699.5,7295.5L11678.6,7281.0L11680.3,7221.5L11629.5,7176.4L11629.1,7163.5L11719.2,7214.6ZM35799.0,6354.5L35813.3,6393.6L35749.4,6462.4L35702.7,6426.0L35644.2,6452.4L35614.3,6519.0L35540.1,6486.6L35540.9,6432.5L35604.0,6364.7L35668.7,6377.8L35715.4,6330.1L35799.0,6354.5ZM24414.0,6181.4L24337.0,6229.7L24345.6,6251.1L24348.9,6260.4L24232.2,6306.6L24176.5,6291.8L24150.3,6246.1L24204.3,6241.9L24212.1,6241.3L24228.5,6213.8L24310.4,6215.3L24414.0,6181.4ZM23176.6,6177.6L23238.9,6215.9L23327.4,6209.3L23412.2,6217.4L23409.3,6237.3L23471.1,6223.6L23456.8,6257.3L23293.0,6266.9L23294.2,6248.0L23155.3,6225.9L23176.6,6177.6ZM22246.0,5890.2L22205.0,5979.8L22221.8,6015.0L22198.1,6073.4L22110.8,6030.6L22053.1,6018.3L21894.6,5960.5L21910.1,5902.0L22043.3,5912.4L22159.6,5900.1L22246.0,5890.2ZM21528.0,5551.3L21596.0,5632.0L21580.0,5782.6L21528.4,5775.3L21482.1,5813.2L21439.1,5783.2L21434.6,5645.9L21408.4,5580.8L21471.0,5586.5L21528.0,5551.3ZM36519.9,6014.1L36477.3,6105.0L36497.0,6162.0L36437.6,6242.1L36292.2,6295.6L36092.3,6302.5L35930.1,6432.5L35853.9,6388.8L35849.0,6303.7L35651.1,6328.7L35516.4,6382.5L35383.2,6384.6L35498.7,6468.3L35422.6,6661.7L35349.2,6709.4L35293.9,6665.3L35322.2,6562.7L35250.1,6529.6L35203.8,6451.6L35311.6,6416.5L35371.0,6345.1L35485.6,6286.2L35568.8,6208.6L35795.3,6174.5L35917.0,6197.8L36036.1,5995.6L36111.9,6049.9L36279.0,5936.1L36343.8,5892.0L36415.0,5752.7L36395.8,5624.9L36443.7,5552.8L36564.5,5532.0L36626.8,5689.8L36623.1,5782.0L36518.3,5896.6L36519.9,6014.1ZM21567.7,5444.0L21530.0,5531.8L21478.4,5508.7L21452.2,5432.1L21475.1,5389.9L21548.5,5346.4L21567.7,5444.0ZM36853.7,5213.9L36933.6,5238.2L37014.3,5190.0L37039.7,5317.7L36870.9,5348.9L36771.0,5461.9L36592.4,5384.1L36530.1,5508.5L36404.0,5510.3L36388.0,5397.2L36444.5,5309.6L36565.8,5303.3L36598.9,5145.9L36632.9,5057.3L36766.5,5175.8L36853.7,5213.9ZM13236.4,4943.7L13319.1,4958.9L13424.4,4955.9L13368.2,5002.5L13326.5,5009.8L13181.9,4961.6L13153.6,4923.5L13196.6,4888.3L13236.4,4943.7ZM13447.7,4652.9L13392.4,4655.1L13245.0,4619.2L13139.3,4565.5L13178.6,4556.1L13328.1,4584.6L13444.4,4632.1L13447.7,4652.9ZM6427.5,4720.7L6370.2,4736.5L6183.4,4684.7L6149.0,4644.5L6047.4,4604.6L6026.9,4572.2L5909.8,4551.6L5865.9,4489.8L5875.8,4463.4L5995.0,4488.3L6065.0,4505.4L6171.9,4517.6L6210.4,4556.8L6266.9,4610.8L6380.4,4657.7L6427.5,4720.7ZM14093.2,4472.9L14017.9,4572.4L14092.0,4534.1L14168.6,4558.4L14128.5,4598.0L14229.6,4629.2L14282.1,4601.5L14395.5,4636.6L14360.3,4719.9L14439.8,4700.5L14454.5,4760.8L14489.7,4831.4L14441.8,4931.6L14390.6,4935.8L14315.7,4914.4L14340.2,4821.2L14308.7,4806.8L14176.8,4905.6L14108.8,4901.5L14189.1,4848.2L14079.7,4820.5L13957.7,4827.2L13736.9,4823.7L13719.3,4790.0L13790.1,4750.0L13740.6,4719.2L13836.4,4650.6L13954.0,4469.4L14024.4,4404.7L14123.1,4365.4L14176.0,4370.4L14153.9,4401.2L14093.2,4472.9ZM5380.6,4091.4L5489.9,4082.3L5455.5,4211.5L5554.6,4303.0L5509.2,4302.8L5440.8,4250.8L5398.6,4198.5L5341.2,4163.0L5320.3,4113.0L5326.9,4076.7L5380.6,4091.4ZM36823.8,4466.1L36938.5,4667.6L36770.2,4630.0L36700.1,4794.5L36811.1,4911.0L36807.8,4990.5L36721.4,4922.0L36646.9,5010.0L36626.0,4914.4L36638.7,4803.7L36625.6,4680.9L36651.8,4595.0L36657.1,4442.8L36590.3,4330.9L36600.2,4175.3L36705.4,4123.2L36660.4,4070.4L36710.8,4054.4L36740.7,4129.7L36780.0,4239.3L36777.1,4351.2L36823.8,4466.1ZM19707.7,4294.0L19505.8,4361.2L19344.8,4344.0L19436.9,4225.2L19377.6,4109.5L19532.4,4020.3L19618.4,3967.2L19713.8,3962.5L19835.9,4032.8L19774.9,4111.0L19793.7,4192.3L19707.7,4294.0ZM21923.6,3912.9L21855.7,4004.9L21736.5,3940.8L21720.5,3893.4L21887.6,3855.9L21923.6,3912.9ZM3071.2,3741.5L2957.8,3784.8L2899.6,3755.5L2882.0,3702.2L2985.2,3661.7L3045.8,3644.4L3121.6,3652.1L3169.5,3687.4L3071.2,3741.5ZM20138.2,3568.7L20016.5,3691.8L20132.5,3676.2L20257.0,3676.8L20227.5,3769.4L20125.1,3871.5L20242.6,3878.8L20353.2,4024.9L20431.1,4043.2L20501.1,4172.8L20533.5,4217.7L20671.5,4239.5L20657.6,4312.3L20599.4,4345.6L20644.9,4404.3L20542.5,4464.0L20390.5,4462.9L20196.8,4494.3L20143.5,4471.9L20068.6,4525.1L19963.3,4512.2L19883.4,4555.7L19822.8,4533.0L19989.5,4413.4L20091.5,4388.9L19912.9,4369.8L19880.5,4324.6L19999.7,4289.3L19937.5,4227.9L19958.8,4153.4L20128.4,4163.8L20144.7,4097.7L20066.9,4026.1L19928.9,4006.1L19901.8,3975.3L19943.2,3924.4L19905.5,3893.0L19844.5,3946.8L19837.5,3837.2L19780.2,3779.2L19821.6,3661.6L19910.0,3569.1L20001.0,3578.2L20138.2,3568.7ZM1640.9,3423.5L1570.8,3441.2L1496.3,3420.1L1427.5,3389.1L1539.7,3369.6L1629.8,3380.0L1640.9,3423.5ZM11461.1,3167.8L11416.9,3227.5L11366.5,3217.9L11336.6,3184.0L11341.9,3176.1L11385.8,3142.0L11432.5,3144.5L11461.1,3167.8ZM11161.7,3104.8L11028.6,3167.6L10948.3,3165.1L10923.3,3134.3L11008.1,3081.7L11164.2,3082.9L11161.7,3104.8ZM940.9,2982.9L1010.9,3004.7L1081.8,2992.9L1173.9,3023.0L1287.0,3038.2L1277.6,3050.5L1191.1,3074.6L1104.7,3049.9L1061.3,3029.3L960.9,3035.9L933.9,3025.9L940.9,2982.9ZM10790.6,2769.7L10811.5,2819.6L10870.1,2802.1L10936.0,2831.9L11060.5,2871.0L11190.8,2906.5L11201.0,2960.6L11284.6,2951.7L11366.1,2989.5L11264.9,3025.3L11088.0,2997.9L11024.1,2946.7L10911.4,3007.2L10749.2,3066.1L10710.3,2999.5L10555.9,3010.5L10655.0,2954.2L10669.4,2864.7L10708.3,2760.3L10790.6,2769.7ZM18829.1,2678.8L18802.9,2752.4L18931.5,2830.0L18783.6,2916.9L18455.5,2994.9L18357.2,3015.5L18207.7,2998.7L17890.3,2962.7L18002.1,2912.4L17754.3,2856.8L17955.8,2834.8L17950.9,2801.3L17712.1,2774.9L17789.1,2700.8L17961.5,2684.0L18138.9,2761.1L18311.8,2699.3L18454.7,2731.4L18640.3,2670.8L18829.1,2678.8ZM11848.2,2599.9L11720.4,2605.7L11692.1,2550.0L11740.5,2486.3L11844.9,2470.5L11933.8,2501.9L11935.0,2550.6L11921.9,2566.4L11848.2,2599.9ZM0.0,2393.4L278.9,2480.3L577.1,2593.5L567.3,2664.2L643.9,2692.5L617.7,2609.9L926.5,2626.8L1149.3,2733.3L1036.3,2782.8L849.9,2794.6L847.1,2905.9L801.6,2929.4L695.1,2926.1L608.3,2886.4L457.1,2853.3L431.7,2803.8L315.8,2785.3L186.8,2800.0L124.9,2760.1L149.5,2717.9L13.1,2744.9L64.7,2798.4L0.0,2846.8L40959.2,2847.3L40813.0,2897.4L40665.5,2888.9L40767.9,2949.6L40835.9,3043.4L40888.3,3074.0L40901.4,3121.0L40872.3,3151.2L40660.2,3126.4L40341.9,3212.1L40240.7,3225.4L40066.7,3305.3L39901.6,3375.0L39859.8,3426.8L39697.2,3348.0L39400.6,3437.4L39349.0,3395.0L39239.3,3443.9L39087.3,3428.3L39050.4,3503.1L38914.0,3613.2L38918.1,3659.2L39047.6,3684.7L39032.4,3850.3L38926.7,3854.5L38878.0,3949.6L38925.5,3998.8L38726.4,4056.7L38687.1,4186.7L38517.1,4214.4L38483.1,4330.0L38319.3,4436.1L38277.1,4357.7L38228.4,4191.7L38164.9,3938.9L38219.7,3781.1L38315.6,3713.2L38321.7,3660.0L38498.3,3634.6L38701.4,3491.3L38897.6,3374.2L39102.0,3283.5L39193.4,3123.1L39055.3,3132.7L38986.9,3226.5L38698.2,3351.3L38605.2,3211.5L38311.5,3250.2L38026.4,3440.9L38120.6,3510.6L37866.7,3540.2L37690.5,3552.0L37698.7,3469.7L37522.2,3452.4L37381.3,3508.5L37033.1,3488.8L36659.2,3522.5L36290.5,3744.6L35854.3,4013.0L36033.7,4027.3L36089.4,4098.5L36200.0,4123.9L36272.9,4066.9L36397.8,4074.4L36562.1,4199.6L36565.8,4296.3L36476.9,4410.1L36467.5,4545.9L36415.9,4727.8L36244.6,4892.5L36206.1,4971.3L36051.7,5103.8L35898.5,5235.1L35825.2,5302.3L35673.6,5368.9L35602.0,5370.5L35530.3,5315.2L35377.5,5398.4L35359.9,5436.3L35316.5,5429.4L35267.3,5468.1L35233.3,5506.8L35237.4,5588.5L35178.8,5613.5L35158.4,5633.7L35115.8,5667.2L35040.0,5685.9L34990.4,5716.5L34986.7,5765.8L34973.6,5778.3L35019.1,5796.8L35083.4,5846.7L35181.7,5980.9L35209.6,6054.7L35210.8,6185.8L35167.8,6248.4L35064.6,6270.2L34973.6,6317.4L34871.2,6327.2L34858.5,6265.2L34879.8,6179.9L34829.5,6061.4L34913.8,6042.4L34836.0,5944.9L34780.7,5923.2L34766.8,5944.7L34733.6,5954.2L34729.5,5932.6L34700.0,5922.2L34669.3,5904.1L34700.8,5854.0L34727.5,5840.7L34717.2,5819.9L34746.3,5758.5L34738.9,5739.8L34672.2,5727.5L34618.5,5697.1L34459.6,5730.0L34376.0,5783.4L34253.1,5814.4L34313.8,5761.6L34290.0,5717.3L34380.1,5640.8L34319.9,5581.1L34220.8,5621.4L34092.2,5700.5L34022.1,5773.9L33910.7,5779.5L33852.5,5832.5L33912.8,5909.5L34005.7,5928.2L34009.4,5979.2L34099.5,6012.3L34226.9,5931.2L34328.1,5975.5L34401.4,5978.4L34420.3,6038.1L34258.9,6069.9L34205.6,6131.3L34095.0,6188.3L34036.9,6268.1L34159.3,6330.5L34204.0,6442.5L34273.2,6546.7L34350.6,6634.1L34348.6,6718.7L34277.3,6749.7L34304.3,6810.4L34371.5,6845.8L34353.9,6938.4L34324.8,7028.5L34261.3,7038.8L34178.2,7162.0L34086.0,7311.2L33980.3,7447.0L33823.9,7552.0L33665.8,7647.9L33537.6,7661.0L33467.9,7711.4L33428.6,7674.4L33364.3,7731.1L33205.4,7788.1L33085.0,7805.4L33046.0,7925.6L32983.0,7932.3L32953.1,7849.7L32980.1,7805.8L32827.3,7769.2L32773.7,7787.9L32621.7,7885.1L32527.1,7992.6L32502.1,8071.5L32588.9,8191.5L32695.4,8340.2L32798.6,8410.5L32867.9,8501.9L32919.9,8712.4L32904.7,8912.5L32809.7,8987.4L32679.4,9060.8L32586.5,9155.5L32444.7,9261.5L32403.4,9188.7L32435.3,9111.4L32350.9,9046.9L32255.5,9030.2L32209.6,8971.1L32151.9,8853.4L32049.9,8801.2L31952.4,8803.3L31969.2,8714.0L31868.8,8714.5L31859.8,8839.7L31798.4,9005.9L31761.5,9106.4L31769.3,9188.9L31843.4,9192.3L31889.7,9296.1L31910.2,9394.7L31973.7,9459.8L32042.5,9473.1L32101.5,9532.0L32127.7,9542.8L32194.9,9611.4L32242.4,9687.6L32248.9,9764.3L32237.1,9816.1L32248.1,9855.2L32256.3,9922.4L32296.5,9953.8L32341.1,10054.5L32339.1,10092.8L32258.4,10100.5L32150.6,10016.2L32015.9,9925.8L32002.8,9867.9L31936.8,9791.8L31921.3,9697.6L31880.3,9635.6L31892.6,9552.6L31867.6,9504.5L31822.6,9460.8L31803.3,9404.5L31742.7,9340.2L31687.4,9286.3L31669.0,9353.1L31647.2,9290.0L31659.5,9218.9L31693.1,9109.9L31682.1,9025.4L31717.3,8938.3L31678.8,8870.9L31688.2,8746.9L31641.9,8688.0L31605.1,8551.8L31584.6,8408.2L31535.0,8313.8L31460.1,8371.0L31331.0,8452.1L31267.1,8441.9L31196.7,8415.3L31236.0,8274.3L31212.2,8167.6L31122.9,8036.5L31136.9,7995.5L31070.1,7980.8L30989.4,7888.2L30957.1,7828.7L30950.5,7770.7L30928.8,7716.0L30881.3,7649.8L30776.4,7645.4L30786.7,7692.2L30751.0,7755.5L30702.7,7732.4L30685.9,7753.2L30654.0,7740.7L30609.7,7730.5L30593.7,7772.1L30516.3,7770.7L30375.8,7794.2L30382.4,7879.9L30321.8,7947.1L30157.9,8023.8L30030.5,8157.6L29944.9,8229.4L29831.9,8303.8L29831.5,8356.2L29774.9,8384.3L29672.5,8425.1L29619.3,8431.1L29584.9,8517.7L29608.6,8665.8L29614.8,8760.2L29566.5,8868.2L29566.0,9061.6L29507.1,9067.1L29455.4,9153.8L29489.9,9191.4L29386.2,9223.5L29348.1,9300.9L29302.3,9333.7L29194.5,9227.4L29142.1,9068.1L29098.3,8953.3L29058.5,8899.6L28997.9,8790.2L28969.7,8647.9L28950.0,8576.9L28846.4,8420.7L28799.3,8200.2L28765.3,8054.6L28765.7,7916.7L28743.6,7810.2L28578.1,7878.2L28497.8,7864.7L28349.5,7726.8L28404.0,7685.6L28370.4,7640.9L28236.9,7544.5L28153.7,7515.6L28119.7,7433.7L28031.7,7347.3L27821.9,7368.6L27637.2,7370.8L27477.1,7386.7L27262.8,7352.3L27139.1,7326.1L27010.5,7311.4L26962.2,7171.8L26907.7,7151.6L26820.1,7172.0L26705.4,7227.1L26566.5,7189.3L26451.4,7101.9L26342.0,7069.6L26265.9,6961.5L26181.9,6809.8L26120.9,6828.3L26048.4,6790.5L26006.2,6835.0L25938.6,6829.4L25962.3,6879.7L25952.1,6905.7L25988.6,6991.4L26033.2,7089.6L26089.3,7115.6L26108.6,7155.5L26186.4,7203.2L26193.0,7250.2L26181.9,7288.1L26196.2,7326.5L26229.0,7358.2L26244.2,7395.6L26260.9,7423.5L26253.6,7340.7L26284.3,7281.0L26315.4,7268.7L26349.8,7304.5L26351.9,7370.9L26326.9,7438.0L26348.6,7481.5L26368.7,7475.9L26373.2,7507.1L26462.1,7489.2L26556.3,7492.1L26625.1,7495.5L26702.9,7418.5L26787.7,7345.5L26859.8,7275.4L26892.6,7236.7L26906.9,7246.5L26896.2,7293.5L26881.1,7314.3L26896.7,7404.1L26947.9,7481.9L27011.3,7523.1L27094.9,7538.1L27162.1,7558.7L27213.3,7624.0L27244.0,7661.7L27285.0,7676.2L27284.5,7701.6L27243.2,7769.4L27225.2,7801.4L27177.2,7837.7L27134.6,7915.5L27083.0,7909.6L27059.3,7936.7L27041.2,7994.5L27055.2,8070.6L27044.5,8084.4L26992.1,8084.1L26920.8,8126.6L26909.8,8182.1L26884.0,8206.1L26813.1,8205.2L26768.4,8233.9L26768.9,8279.9L26714.0,8311.5L26651.3,8300.7L26575.1,8339.0L26522.7,8345.4L26440.4,8376.0L26418.2,8426.6L26415.8,8465.4L26302.3,8513.3L26120.5,8566.5L26018.5,8646.8L25968.5,8652.9L25934.5,8646.4L25867.7,8693.6L25795.2,8715.3L25699.8,8721.3L25671.1,8727.8L25646.1,8757.9L25616.2,8766.2L25599.0,8795.0L25542.5,8792.5L25506.0,8807.9L25427.4,8802.2L25397.9,8735.7L25401.2,8673.5L25382.3,8640.0L25360.2,8555.9L25327.5,8509.1L25350.4,8503.5L25338.5,8451.5L25352.4,8429.5L25347.5,8380.0L25332.8,8331.3L25298.4,8297.2L25289.4,8251.8L25230.8,8211.0L25170.2,8115.6L25137.8,8022.8L25059.2,7944.6L25008.4,7925.9L24933.0,7817.5L24919.9,7738.4L24924.8,7671.0L24859.7,7544.8L24806.4,7500.4L24745.0,7476.9L24707.3,7411.6L24713.5,7386.0L24681.9,7326.8L24648.7,7301.6L24604.5,7216.9L24534.9,7125.2L24477.1,7047.0L24420.2,7047.6L24438.2,6985.0L24443.1,6945.4L24457.1,6899.9L24453.4,6883.3L24421.4,6929.2L24396.8,7015.1L24366.1,7074.4L24339.5,7094.2L24301.4,7057.4L24250.2,7006.8L24169.1,6843.7L24157.2,6853.9L24204.3,6974.0L24274.4,7088.4L24360.4,7265.6L24402.2,7327.4L24439.0,7391.7L24541.0,7517.7L24518.5,7537.5L24522.2,7611.5L24654.5,7713.5L24674.6,7736.8L24711.4,7848.5L24686.4,7869.1L24702.8,7986.2L24744.6,8122.2L24788.0,8150.1L24850.3,8192.3L24916.2,8323.8L24947.8,8428.4L25010.0,8483.8L25165.3,8591.3L25228.3,8656.0L25290.2,8721.7L25325.8,8760.8L25381.5,8795.0L25408.6,8830.3L25404.9,8877.5L25340.2,8904.8L25388.9,8935.8L25426.2,8956.8L25448.3,9003.8L25499.5,9051.6L25556.0,9051.9L25663.3,9022.9L25787.0,9009.4L25887.4,8973.9L25943.9,8966.4L25984.5,8945.6L26049.2,8941.8L26085.6,8939.5L26138.1,8922.5L26198.3,8911.2L26252.3,8872.3L26295.4,8871.9L26297.8,8903.3L26287.6,8969.5L26288.0,9029.2L26263.8,9070.4L26231.9,9193.5L26177.0,9320.4L26106.5,9465.8L26009.0,9632.6L25912.0,9759.8L25778.0,9915.1L25664.2,10007.3L25494.2,10120.2L25388.1,10206.8L25263.6,10344.5L25237.3,10404.6L25211.5,10431.5L25131.7,10477.0L25103.8,10524.4L25061.2,10532.8L25044.8,10613.0L25008.4,10658.8L24986.3,10734.5L24940.4,10772.0L24888.0,10912.2L24894.5,10976.7L24967.4,11018.3L24970.7,11047.8L24939.6,11116.5L24946.1,11151.2L24938.7,11205.5L24978.5,11276.8L25025.6,11389.0L25067.0,11413.9L25085.4,11464.9L25080.9,11578.1L25094.8,11678.1L25099.3,11855.8L25119.4,11911.7L25085.4,11992.9L25041.1,12071.9L24968.6,12142.4L24864.6,12185.7L24736.4,12241.0L24608.2,12363.1L24564.4,12383.9L24484.9,12464.8L24437.8,12491.0L24428.4,12572.0L24482.4,12658.3L24504.6,12724.9L24506.2,12759.0L24526.3,12753.4L24523.0,12864.9L24504.6,12917.7L24531.2,12937.3L24514.4,12984.7L24466.9,13025.2L24373.1,13063.5L24236.3,13125.1L24186.3,13167.3L24196.1,13215.0L24225.2,13222.7L24215.4,13282.6L24186.7,13365.4L24173.6,13460.0L24144.1,13511.4L24066.3,13568.8L24044.2,13585.4L23995.8,13643.1L23964.3,13701.5L23899.6,13783.1L23771.0,13900.4L23690.7,13968.8L23605.1,14020.6L23485.9,14064.7L23428.1,14070.6L23413.4,14102.2L23344.2,14085.3L23287.6,14107.0L23164.3,14085.1L23095.5,14099.0L23048.4,14093.0L22931.3,14137.9L22833.8,14156.0L22763.7,14198.9L22711.7,14201.6L22663.8,14161.2L22625.3,14159.0L22576.1,14108.2L22570.8,14124.0L22555.7,14093.4L22556.5,14026.7L22519.6,13950.5L22556.1,13929.7L22553.2,13842.4L22478.7,13736.0L22421.7,13639.5L22421.3,13639.3L22339.8,13491.4L22255.0,13405.5L22210.8,13322.3L22185.4,13211.6L22157.5,13129.1L22119.4,12953.9L22116.6,12817.8L22102.2,12755.7L22058.0,12708.9L21999.0,12614.8L21939.2,12478.4L21914.6,12407.0L21822.1,12295.9L21815.1,12208.6L21804.5,12137.0L21820.0,12037.0L21859.3,11932.9L21865.5,11884.0L21902.4,11781.5L21929.4,11734.7L21994.5,11660.4L22031.4,11609.7L22043.3,11525.4L22037.1,11460.9L22003.1,11420.2L21972.8,11351.3L21944.9,11282.9L21951.1,11259.4L21985.9,11214.2L21951.5,11104.4L21928.2,11028.1L21871.2,10956.1L21881.9,10934.0L21865.9,10898.7L21835.6,10813.2L21742.2,10692.7L21625.5,10577.9L21550.1,10483.9L21480.9,10366.5L21484.6,10328.7L21509.5,10292.3L21537.0,10209.5L21559.9,10125.2L21538.6,10107.8L21577.9,9980.1L21594.3,9890.2L21550.1,9815.1L21498.1,9795.9L21475.1,9744.8L21446.1,9728.5L21447.3,9697.1L21328.9,9738.1L21285.9,9731.9L21242.1,9757.5L21151.1,9755.0L21090.1,9683.8L21052.8,9601.5L20972.1,9526.4L20886.5,9528.0L20786.2,9527.8L20692.4,9541.1L20600.6,9565.3L20422.0,9632.0L20359.0,9671.1L20256.6,9704.0L20155.0,9671.6L20103.4,9673.0L20023.9,9650.7L19951.0,9652.0L19816.2,9671.8L19737.2,9704.6L19624.5,9746.4L19602.4,9743.5L19572.5,9744.4L19455.4,9690.1L19352.2,9603.5L19255.1,9541.3L19178.5,9467.9L19147.8,9459.4L19065.8,9413.6L19006.9,9352.7L18986.8,9311.1L18972.9,9227.0L18922.9,9159.8L18878.7,9115.1L18849.6,9100.5L18821.3,9077.7L18808.2,9027.5L18791.4,9002.4L18758.6,8983.8L18697.6,8936.2L18649.7,8928.7L18623.9,8896.7L18624.3,8879.4L18589.9,8855.3L18582.5,8830.9L18563.7,8743.6L18578.4,8693.2L18531.3,8604.6L18474.8,8564.1L18524.8,8542.6L18579.6,8462.7L18606.7,8404.1L18596.8,8342.9L18628.8,8286.8L18642.7,8179.6L18630.4,8067.3L18616.5,8010.7L18628.0,7953.9L18598.5,7899.8L18538.7,7850.6L18543.6,7802.7L18548.9,7749.9L18592.3,7718.9L18629.6,7659.6L18622.2,7621.1L18661.6,7540.8L18725.1,7468.4L18763.1,7450.1L18793.5,7383.8L18795.9,7323.2L18836.9,7252.9L18912.6,7211.3L18985.1,7095.2L19044.1,7049.9L19150.2,7037.2L19239.9,6959.6L19296.9,6929.2L19391.9,6834.2L19363.2,6692.7L19406.6,6594.9L19421.8,6534.8L19495.1,6457.9L19609.0,6405.9L19693.4,6359.0L19769.5,6241.1L19805.2,6171.4L19889.1,6171.8L19957.5,6220.1L20065.7,6212.2L20183.7,6237.4L20233.2,6238.6L20342.6,6176.4L20465.5,6156.8L20537.1,6109.8L20646.9,6075.1L20839.8,6054.9L21027.8,6045.6L21085.2,6062.4L21192.5,6017.7L21314.2,6016.8L21360.4,6043.1L21438.3,6036.4L21562.0,5990.4L21641.8,6004.0L21638.2,6061.6L21734.8,6019.8L21743.0,6041.6L21686.1,6097.2L21685.3,6150.0L21724.6,6178.3L21709.8,6276.7L21634.9,6333.9L21656.6,6395.9L21715.2,6397.9L21743.8,6452.0L21787.3,6469.7L21920.8,6509.0L21968.7,6499.2L22063.7,6518.0L22214.5,6568.9L22267.7,6670.2L22370.1,6692.1L22530.3,6739.9L22651.5,6796.3L22707.2,6766.8L22761.7,6714.5L22735.1,6627.4L22770.7,6571.9L22852.6,6518.6L22931.3,6503.2L23084.9,6526.5L23123.8,6577.3L23166.4,6577.7L23202.4,6597.2L23315.5,6610.5L23343.3,6648.2L23494.5,6646.3L23604.3,6676.3L23716.9,6710.0L23769.7,6727.7L23857.4,6691.5L23904.1,6659.0L24004.4,6649.6L24085.5,6664.0L24116.3,6720.4L24142.9,6683.3L24233.8,6710.2L24322.7,6716.6L24378.8,6687.9L24411.6,6650.5L24403.8,6644.0L24434.1,6590.8L24457.1,6504.9L24473.4,6476.2L24476.7,6475.1L24517.3,6382.3L24573.8,6302.1L24575.8,6298.1L24565.2,6211.1L24593.0,6164.3L24551.3,6112.7L24594.3,6069.9L24525.0,6079.7L24429.6,6053.5L24351.4,6119.0L24178.9,6131.7L24086.8,6070.7L23963.9,6066.8L23937.7,6114.0L23859.0,6127.7L23749.3,6067.0L23625.1,6068.9L23557.6,5955.9L23474.4,5892.7L23529.7,5804.3L23457.6,5749.8L23583.8,5641.0L23759.1,5636.6L23807.0,5550.1L24023.7,5565.2L24160.5,5491.4L24293.2,5459.2L24481.2,5456.7L24679.9,5536.9L24843.3,5581.0L24975.6,5563.4L25073.5,5573.6L25207.9,5514.1L25225.1,5465.6L25196.4,5388.0L25130.8,5346.0L25067.8,5332.9L25026.0,5298.1L24881.0,5202.0L24751.1,5159.0L24652.8,5092.2L24735.6,5073.9L24830.2,4978.8L24766.3,4933.7L24934.2,4887.3L24931.0,4862.5L24829.0,4880.7L24738.0,4890.0L24662.3,4926.8L24555.8,4932.7L24457.9,4975.1L24464.4,5046.0L24520.1,5073.3L24636.5,5066.6L24613.9,5107.0L24489.4,5126.9L24335.0,5192.7L24271.9,5169.4L24296.9,5116.1L24172.4,5082.8L24192.9,5061.0L24301.4,5023.1L24268.6,4997.1L24091.7,4968.4L24083.9,4925.8L23978.6,4939.9L23936.4,5002.5L23848.4,5086.6L23850.8,5115.9L23795.5,5140.5L23761.1,5129.7L23729.2,5267.1L23670.2,5314.2L23628.8,5395.5L23665.3,5460.4L23678.8,5504.3L23778.3,5540.9L23757.4,5568.8L23622.3,5575.2L23573.9,5610.2L23478.9,5671.7L23443.3,5618.7L23444.5,5595.2L23375.3,5591.9L23315.9,5581.1L23178.3,5610.8L23256.9,5674.7L23199.2,5693.2L23136.1,5693.2L23075.9,5634.7L23054.6,5659.7L23080.0,5727.7L23136.9,5781.0L23093.9,5806.1L23157.4,5858.5L23213.5,5891.4L23215.1,5955.7L23109.9,5925.5L23143.5,5983.6L23071.4,5995.6L23114.4,6095.9L23039.0,6097.2L22945.6,6047.8L22903.0,5956.9L22882.9,5881.2L22838.7,5828.8L22780.1,5763.9L22772.8,5731.5L22753.1,5723.7L22751.0,5698.6L22688.0,5660.3L22678.1,5606.2L22687.6,5528.6L22703.1,5493.1L22684.3,5475.2L22660.1,5466.4L22628.2,5429.4L22579.0,5406.7L22472.1,5364.7L22406.2,5323.7L22302.1,5289.8L22206.7,5206.0L22229.6,5197.5L22177.6,5149.8L22175.6,5111.3L22102.2,5093.4L22067.4,5142.5L22033.8,5104.3L22036.3,5064.9L22040.4,5063.1L22065.8,5052.7L21975.3,5036.2L21882.7,5076.6L21888.8,5133.0L21874.9,5165.4L21912.2,5223.3L22019.1,5280.7L22076.4,5374.7L22203.0,5466.4L22291.9,5465.8L22319.7,5490.8L22287.8,5513.6L22389.8,5554.6L22473.3,5589.0L22570.8,5648.4L22582.7,5669.7L22561.4,5710.4L22498.3,5657.2L22399.2,5638.5L22351.7,5712.1L22433.6,5754.3L22420.1,5813.8L22372.6,5820.5L22312.0,5918.0L22264.4,5926.8L22264.8,5892.0L22288.2,5830.9L22312.8,5806.7L22268.5,5740.8L22233.7,5683.4L22186.6,5669.2L22153.0,5620.0L22079.7,5599.4L22030.6,5553.6L21946.2,5546.3L21857.3,5494.9L21753.3,5420.9L21675.8,5355.3L21640.6,5242.8L21584.1,5229.7L21491.5,5192.1L21439.1,5207.5L21373.1,5260.3L21326.0,5268.6L21222.8,5332.9L20998.4,5302.1L20832.9,5339.1L20819.8,5407.4L20825.9,5473.7L20718.2,5549.4L20572.4,5573.4L20562.1,5611.8L20492.1,5674.7L20448.3,5767.4L20492.5,5832.5L20427.0,5883.1L20402.4,5957.1L20316.4,5979.8L20235.7,6067.4L20091.5,6068.9L19982.9,6066.8L19911.7,6107.1L19868.3,6150.0L19812.6,6140.6L19770.4,6102.3L19738.0,6036.8L19631.9,6019.1L19586.0,6048.5L19526.2,6032.5L19467.7,6045.1L19484.9,5956.1L19474.2,5886.2L19423.4,5875.6L19396.0,5832.5L19405.0,5758.1L19450.5,5716.7L19458.7,5670.7L19482.4,5602.3L19480.0,5554.2L19457.0,5513.4L19452.1,5474.8L19457.8,5394.0L19411.1,5344.5L19572.1,5262.4L19711.4,5283.0L19864.2,5282.3L19985.4,5301.7L20079.6,5295.7L20263.5,5299.4L20322.5,5231.2L20344.2,5004.6L20226.7,4885.2L20142.7,4827.6L19969.0,4783.7L19957.5,4700.9L20105.0,4676.0L20295.9,4705.3L20259.8,4576.5L20367.6,4625.4L20632.2,4536.6L20666.6,4443.4L20766.1,4420.5L20857.0,4398.0L20915.6,4366.8L21015.6,4199.2L21171.2,4151.7L21265.8,4154.9L21287.9,4130.9L21383.0,4124.7L21404.3,4149.7L21481.3,4093.7L21455.5,4050.9L21450.1,3986.4L21403.9,3923.3L21400.6,3806.9L21419.4,3776.3L21452.2,3742.0L21552.1,3735.1L21592.3,3703.7L21683.6,3671.6L21679.9,3730.1L21646.3,3767.1L21659.9,3799.1L21721.7,3816.2L21693.9,3859.1L21659.9,3846.8L21577.9,3928.7L21609.1,3984.1L21610.7,4028.0L21725.8,4054.6L21724.6,4095.0L21840.5,4073.7L21904.4,4042.5L22032.6,4087.3L22086.7,4123.7L22164.1,4090.2L22341.9,4037.7L22485.2,3999.1L22598.7,4018.4L22607.3,4046.1L22717.1,4047.5L22742.9,3997.4L22899.7,3960.6L22875.6,3864.9L22879.7,3779.2L22935.4,3707.8L23042.7,3668.9L23133.2,3754.0L23224.6,3751.7L23246.3,3664.4L23259.4,3597.2L23217.6,3611.7L23145.5,3571.2L23135.7,3505.8L23279.4,3474.2L23422.8,3457.6L23546.1,3476.3L23663.6,3473.0L23793.1,3410.0L23673.9,3356.1L23467.4,3365.2L23267.2,3406.8L23082.0,3430.8L23016.1,3368.8L22905.9,3331.3L22931.3,3219.4L22876.0,3116.6L22930.5,3050.3L23033.7,2978.9L23293.8,2855.6L23369.6,2831.7L23358.1,2783.6L23199.6,2729.9L23003.8,2762.0L22893.6,2841.6L22911.2,2911.1L22730.6,3002.6L22510.6,3100.6L22427.9,3260.8L22509.0,3340.9L22617.5,3404.1L22513.1,3532.3L22394.7,3558.9L22351.3,3749.9L22287.0,3856.6L22148.9,3845.7L22084.2,3935.8L21952.7,3941.0L21916.3,3833.5L21821.2,3704.3L21734.8,3543.5L21658.2,3473.6L21433.8,3605.3L21282.2,3631.9L21124.5,3573.9L21084.0,3451.6L21047.9,3189.0L21152.8,3115.8L21453.0,3020.3L21677.9,2903.0L21886.0,2744.3L22159.6,2524.6L22350.0,2439.1L22662.6,2296.4L22912.4,2246.5L23099.6,2252.5L23272.9,2158.3L23480.1,2163.3L23684.5,2140.6L24040.5,2224.0L23893.8,2254.4L24018.8,2325.8L24135.9,2286.2L24322.7,2355.1L24634.4,2382.1L25064.5,2510.7L25151.7,2564.8L25159.1,2640.5L25033.0,2700.4L24847.0,2730.6L24339.1,2644.2L24255.5,2658.6L24441.1,2742.0L24455.8,2911.1L24602.5,2945.8L24691.3,2975.2L24706.1,2920.1L24634.8,2869.5L24709.8,2828.1L24985.0,2899.0L25080.9,2871.2L25004.3,2787.8L25269.3,2676.5L25374.2,2683.1L25480.7,2722.7L25546.6,2644.6L25452.0,2576.8L25507.7,2508.8L25424.1,2438.1L25742.4,2474.7L25807.1,2538.5L25663.3,2552.5L25664.2,2615.7L25753.4,2654.8L25929.2,2630.1L25957.0,2557.5L26195.0,2503.2L26591.9,2405.6L26677.5,2411.2L26565.7,2480.3L26706.6,2492.0L26788.1,2453.1L27001.5,2450.1L27170.3,2402.9L27300.1,2471.4L27429.1,2396.1L27309.9,2330.1L27369.3,2292.5L27705.2,2327.0L27862.9,2362.6L28275.0,2492.6L28351.2,2433.1L28235.6,2372.8L28232.4,2348.8L28095.2,2337.6L28132.8,2283.7L28071.8,2194.9L28068.5,2158.5L28278.2,2055.5L28352.8,1952.1L28437.6,1929.7L28738.6,1959.8L28762.4,2022.9L28654.7,2115.2L28725.5,2151.6L28762.0,2231.1L28736.2,2386.9L28861.9,2456.6L28812.8,2532.7L28590.0,2694.2L28720.2,2711.0L28765.3,2670.0L28890.6,2640.9L28920.9,2584.5L29019.2,2530.4L28952.9,2465.7L29006.1,2390.6L28881.6,2381.1L28854.2,2318.0L28945.1,2203.6L28797.2,2110.9L29000.8,2034.3L28974.6,1953.2L29031.5,1950.7L29090.9,2013.9L29046.3,2123.6L29167.9,2144.4L29115.9,2062.4L29306.4,2017.5L29542.7,2011.6L29752.8,2076.5L29651.7,1981.7L29640.2,1860.4L29838.4,1837.5L30112.0,1842.5L30358.6,1827.7L30266.1,1768.2L30397.5,1693.4L30528.2,1690.4L30749.4,1633.9L31050.0,1618.7L31088.1,1587.5L31386.7,1576.9L31479.7,1602.5L31735.3,1542.1L31944.2,1544.0L31975.7,1494.9L32084.3,1446.4L32353.0,1399.8L32548.0,1436.5L32393.1,1464.7L32650.8,1482.0L32681.5,1538.2L32785.5,1510.7L33118.1,1512.0L33374.5,1567.7L33465.9,1610.2L33437.6,1669.4L33311.9,1703.1L33012.9,1766.2L32927.3,1799.9L33068.6,1815.9L33236.5,1844.6L33338.9,1823.0L33397.1,1896.0L33447.0,1866.6L33628.9,1848.6L33994.3,1867.3L34021.7,1920.5L34497.7,1937.4L34503.8,1850.6L34745.5,1870.4L34926.9,1869.8L35110.9,1929.9L35163.3,2002.7L35095.7,2050.3L35238.6,2139.8L35417.6,2186.0L35527.4,2066.6L35710.1,2117.9L35903.8,2087.2L36124.2,2122.3L36207.8,2090.3L36394.1,2106.3L36311.8,2000.6L36462.1,1951.3L37489.8,2025.2L37586.5,2092.8L37884.3,2179.7L38343.9,2158.1L38570.4,2177.0L38665.0,2224.0L38651.5,2307.2L38791.6,2339.5L38943.9,2316.2L39145.5,2313.3L39360.5,2335.7L39575.9,2323.0L39774.2,2424.3L39915.1,2387.9L39823.3,2315.1L39873.7,2264.4L40236.6,2296.4L40473.4,2289.5L40800.7,2343.8L0.0,2393.4ZM26067.6,5543.0L26125.4,5623.7L26178.6,5629.1L26213.4,5659.7L26120.0,5668.8L26100.0,5757.2L26080.7,5797.0L26038.9,5823.6L26041.8,5880.0L26077.9,5964.0L26185.6,5987.7L26264.6,6044.7L26426.4,6064.3L26604.2,6034.3L26615.3,6007.5L26594.0,5927.2L26610.3,5808.2L26521.9,5769.7L26550.9,5691.7L26475.6,5685.1L26500.6,5589.2L26607.9,5617.2L26707.8,5580.8L26625.1,5512.4L26592.3,5447.3L26500.6,5476.4L26489.1,5559.8L26453.5,5486.0L26447.3,5458.3L26475.2,5410.9L26453.5,5371.2L26321.6,5332.3L26270.4,5230.3L26207.3,5201.4L26203.6,5164.4L26314.2,5175.2L26318.7,5092.0L26415.4,5073.5L26514.9,5090.5L26535.4,4979.5L26514.9,4909.3L26401.0,4914.6L26304.4,4886.9L26172.9,4937.0L26066.8,4960.9L26014.8,5028.3L25904.6,5046.9L25791.5,5164.4L25894.8,5272.4L25883.7,5349.1L26007.8,5483.1L26067.6,5543.0ZM9597.4,2377.1L9526.6,2416.9L9373.4,2382.5L9280.8,2395.0L9125.2,2343.8L9225.5,2308.5L9305.0,2259.2L9425.8,2291.6L9493.8,2312.0L9528.2,2333.6L9597.4,2377.1ZM0.0,2103.0L40960.0,2180.8L40835.1,2186.6L40815.0,2150.6L0.0,2103.0ZM0.0,2103.0L14.7,2098.4L111.0,2098.6L275.7,2131.2L265.8,2146.8L148.7,2173.9L0.0,2180.8L0.0,2103.0ZM10177.8,2332.8L10177.4,2449.1L10329.4,2359.9L10465.4,2433.1L10431.4,2517.5L10541.6,2594.3L10660.4,2512.1L10743.1,2413.9L10749.6,2289.1L10911.0,2297.7L11079.4,2314.5L11232.2,2370.9L11239.1,2427.3L11154.3,2488.0L11234.6,2548.9L11219.9,2604.3L10997.1,2683.8L10838.9,2701.4L10721.4,2667.1L10687.4,2724.3L10577.6,2820.2L10544.4,2869.9L10412.5,2946.9L10249.9,2954.4L10159.8,3002.6L10152.4,3076.5L10020.1,3090.8L9880.9,3183.0L9757.6,3311.1L9713.4,3400.8L9707.2,3532.9L9874.3,3552.0L9925.5,3658.5L9978.8,3744.7L10137.7,3722.2L10349.5,3771.5L10462.9,3814.8L10544.4,3868.6L10687.0,3899.8L10807.4,3947.7L10995.4,3954.3L11119.1,3965.4L11100.7,4063.8L11135.9,4178.2L11218.2,4305.5L11387.8,4413.6L11475.5,4376.6L11536.9,4259.7L11477.5,4079.8L11397.2,4019.9L11579.5,3966.8L11708.1,3886.9L11771.2,3807.7L11762.2,3731.7L11684.8,3635.0L11546.3,3549.3L11680.7,3430.1L11631.1,3327.0L11593.0,3149.5L11672.5,3123.1L11867.5,3154.1L11984.6,3165.1L12078.8,3135.2L12184.5,3173.8L12324.6,3239.8L12359.4,3283.9L12562.1,3292.6L12558.9,3388.1L12596.6,3532.0L12700.6,3549.7L12782.9,3616.7L12947.6,3553.5L13056.5,3428.0L13131.9,3375.2L13220.4,3476.7L13368.7,3621.9L13494.4,3758.4L13448.5,3829.9L13600.1,3894.0L13702.5,3959.1L13883.5,3988.4L13956.8,4024.8L14001.9,4121.0L14090.4,4136.1L14136.3,4179.0L14144.4,4306.9L14061.7,4349.6L13980.2,4389.5L13792.6,4429.9L13649.6,4523.5L13457.1,4542.0L13213.8,4517.9L13043.0,4517.2L12925.5,4525.1L12830.0,4606.7L12685.0,4657.2L12520.8,4807.8L12389.7,4912.7L12486.4,4894.0L12669.1,4744.6L12907.9,4649.7L13078.2,4638.3L13178.6,4694.1L13071.3,4770.6L13107.3,4893.3L13144.6,4979.2L13292.5,5036.0L13480.5,5019.4L13594.4,4891.5L13602.1,4974.1L13675.9,5015.4L13535.0,5089.9L13283.1,5157.5L13170.0,5203.5L13043.0,5285.5L12956.6,5277.1L12952.1,5180.8L13149.9,5086.8L12967.7,5090.5L12841.1,5104.3L12860.7,5141.7L12739.5,5196.8L12622.4,5236.1L12502.3,5269.8L12437.2,5344.1L12422.9,5363.0L12421.7,5423.2L12459.3,5483.5L12506.4,5486.4L12494.6,5444.8L12528.6,5470.0L12519.5,5502.6L12442.5,5521.1L12388.1,5518.8L12304.1,5538.8L12254.5,5544.4L12188.2,5549.9L12093.6,5582.9L12260.7,5561.5L12294.3,5583.1L12134.9,5617.2L12062.4,5617.4L12065.7,5603.5L12031.3,5635.1L12064.9,5640.3L12040.3,5721.9L11957.2,5809.5L11949.0,5780.3L11924.0,5774.3L11886.7,5746.0L11910.1,5807.2L11937.1,5827.6L11940.4,5870.4L11903.9,5914.7L11839.6,6005.6L11829.4,6001.0L11864.6,5923.5L11806.4,5880.0L11792.9,5785.7L11771.2,5834.8L11795.4,5907.0L11723.7,5890.0L11798.6,5925.9L11803.6,6034.1L11835.9,6042.0L11847.8,6081.3L11863.8,6195.1L11791.7,6279.6L11673.7,6313.3L11599.2,6379.9L11542.2,6387.3L11484.5,6429.1L11468.5,6467.4L11343.6,6541.1L11279.3,6595.2L11225.6,6662.8L11208.0,6743.5L11228.5,6822.7L11266.2,6919.9L11317.0,7000.4L11317.4,7049.7L11371.4,7181.6L11367.7,7258.3L11362.8,7302.6L11334.6,7372.1L11300.6,7386.3L11244.5,7372.7L11226.4,7322.8L11183.0,7296.6L11122.8,7198.8L11070.0,7111.7L11052.8,7067.3L11076.1,6991.6L11044.6,6929.0L10955.7,6833.9L10911.4,6816.3L10796.3,6868.1L10776.3,6862.4L10721.0,6809.2L10649.7,6781.1L10521.1,6795.5L10419.9,6782.8L10333.1,6790.7L10284.7,6806.7L10306.9,6838.7L10304.8,6884.9L10329.0,6907.4L10307.3,6922.2L10265.1,6905.5L10222.5,6927.1L10139.7,6923.6L10055.0,6863.3L9955.8,6877.6L9873.1,6851.2L9802.2,6859.3L9706.4,6885.8L9602.8,6970.2L9489.7,7019.3L9427.4,7073.6L9401.6,7124.8L9400.4,7203.2L9406.1,7257.9L9427.4,7296.6L9427.9,7296.8L9427.4,7297.0L9383.6,7396.4L9363.5,7478.4L9355.4,7630.7L9344.3,7686.4L9364.0,7748.4L9399.2,7803.9L9422.1,7892.1L9497.5,7976.8L9524.1,8041.7L9568.8,8097.7L9689.6,8128.0L9736.3,8175.5L9836.2,8143.7L9923.1,8132.2L10008.3,8111.8L10079.9,8092.3L10152.0,8045.9L10179.5,7979.5L10188.5,7884.0L10208.2,7850.6L10285.2,7820.8L10405.6,7794.4L10506.3,7798.5L10575.6,7788.8L10602.6,7812.9L10598.9,7867.8L10537.9,7935.4L10510.9,8004.7L10531.7,8024.5L10514.5,8073.7L10486.3,8162.4L10457.2,8133.2L10433.4,8135.1L10433.8,8151.8L10455.6,8152.4L10453.5,8183.2L10435.1,8232.5L10444.9,8250.1L10433.0,8290.9L10440.4,8301.7L10427.3,8359.2L10404.8,8389.3L10384.3,8392.9L10361.8,8432.4L10398.6,8453.0L10408.4,8436.1L10442.0,8450.5L10453.9,8455.0L10478.9,8434.9L10511.3,8433.4L10521.9,8442.6L10539.5,8437.0L10592.4,8447.2L10644.8,8444.2L10681.7,8431.6L10694.8,8418.9L10731.2,8424.9L10758.3,8432.6L10788.2,8429.9L10810.7,8420.1L10862.7,8435.9L10880.7,8438.4L10915.5,8459.6L10948.3,8485.0L10989.7,8502.5L11019.6,8533.7L11009.7,8544.7L11004.0,8570.1L11015.9,8611.7L10989.7,8650.6L10977.4,8696.2L10973.7,8746.5L10979.8,8775.8L10982.7,8827.0L10965.1,8838.2L10954.5,8886.9L10962.2,8916.9L10939.3,8946.0L10944.2,8976.6L10961.8,8995.3L10990.5,9057.1L11034.7,9103.0L11088.0,9151.5L11128.9,9192.3L11126.5,9216.4L11172.0,9221.6L11182.6,9212.4L11214.1,9240.3L11269.8,9232.2L11318.6,9203.3L11387.4,9180.4L11426.3,9146.5L11489.0,9153.0L11484.9,9164.2L11548.4,9168.3L11599.2,9187.9L11636.0,9222.0L11679.0,9253.6L11737.6,9257.0L11823.2,9177.7L11869.9,9165.6L11871.1,9128.0L11892.0,9031.7L11957.2,8978.9L12028.8,8976.8L12037.9,8953.1L12127.1,8962.6L12216.4,8905.2L12261.1,8879.8L12316.0,8824.9L12356.1,8831.8L12386.0,8861.9L12363.9,8900.2L12360.6,8927.0L12293.9,8940.2L12331.1,8991.9L12329.9,9051.4L12279.5,9117.4L12322.5,9207.7L12371.7,9200.4L12397.1,9118.2L12361.9,9078.1L12356.1,8992.0L12497.8,8945.6L12482.3,8892.1L12522.0,8856.3L12563.0,8936.2L12642.8,8937.9L12716.6,9001.5L12721.1,9039.0L12823.1,9040.2L12944.7,9028.4L13009.8,9079.3L13097.1,9093.3L13160.6,9057.9L13162.2,9029.2L13303.1,9022.5L13439.5,9020.7L13342.9,9054.4L13381.8,9108.2L13472.7,9116.6L13558.7,9172.7L13577.1,9263.8L13636.1,9261.3L13680.8,9288.0L13755.7,9329.8L13825.8,9404.0L13829.1,9462.5L13872.1,9465.2L13933.1,9520.9L13977.7,9560.3L14114.1,9583.3L14126.4,9562.6L14218.6,9554.4L14340.6,9585.0L14379.6,9597.5L14463.1,9624.5L14583.5,9720.6L14602.4,9767.2L14641.3,9761.8L14669.6,9824.7L14733.0,10023.7L14794.1,10042.4L14796.9,10120.9L14711.8,10214.7L14747.0,10249.0L14948.1,10266.7L14952.2,10380.9L15038.6,10306.2L15181.6,10347.0L15370.8,10416.5L15426.1,10483.2L15407.7,10546.1L15540.0,10511.1L15761.2,10571.4L15931.1,10566.9L16099.5,10661.1L16244.9,10788.6L16332.6,10821.3L16429.6,10825.9L16471.0,10861.8L16509.5,11006.6L16528.3,11075.5L16483.3,11263.7L16425.1,11337.8L16265.0,11496.1L16192.5,11624.7L16108.1,11723.5L16079.8,11725.7L16047.9,11809.4L16056.1,12022.6L16024.5,12197.9L16012.2,12273.0L15976.2,12317.8L15956.1,12470.0L15840.6,12618.4L15821.4,12735.9L15729.2,12785.2L15702.6,12853.6L15578.9,12853.2L15399.9,12896.9L15320.0,12947.5L15192.6,12980.9L15058.7,13071.4L14962.4,13184.2L14945.6,13269.1L14964.5,13331.9L14943.6,13446.9L14917.8,13502.5L14837.9,13565.1L14711.8,13765.4L14611.8,13855.5L14534.4,13908.9L14482.4,14017.1L14407.4,14082.0L14357.9,14153.6L14229.6,14216.8L14145.7,14194.1L14083.8,14206.2L13979.0,14157.5L13901.6,14161.2L13832.3,14098.2L13824.5,14157.5L13969.1,14254.9L13953.6,14333.5L14024.4,14383.0L14018.7,14438.7L13909.3,14584.4L13740.6,14645.5L13512.4,14669.2L13387.5,14657.8L13411.7,14725.6L13388.3,14810.7L13409.2,14868.1L13340.8,14908.2L13224.5,14923.9L13115.1,14882.4L13070.9,14912.2L13086.9,15025.2L13163.9,15059.5L13226.1,15023.7L13259.7,15082.8L13155.3,15118.1L13063.9,15188.7L13047.1,15303.3L13020.1,15364.2L12912.8,15364.6L12823.5,15422.7L12790.7,15508.0L12902.9,15591.4L13011.5,15614.3L12972.2,15716.6L12837.8,15780.7L12764.1,15914.0L12660.0,15959.0L12613.8,16012.2L12650.2,16130.4L12726.0,16196.3L12678.1,16190.5L12576.9,16189.7L12522.0,16217.7L12419.6,16258.7L12401.2,16365.0L12352.8,16367.7L12224.6,16330.7L12094.4,16251.4L11952.7,16186.3L11917.0,16114.3L11949.4,16047.6L11892.0,15971.9L11877.3,15778.0L11926.0,15668.6L12046.0,15580.6L11873.2,15547.5L11981.7,15447.0L12020.2,15257.9L12146.8,15297.9L12206.2,15062.2L12130.0,15032.0L12094.4,15174.1L12022.7,15158.1L12058.3,14995.4L12097.2,14784.5L12149.3,14706.7L12116.9,14595.8L12107.5,14467.5L12155.4,14463.9L12225.0,14280.2L12303.7,14098.2L12352.0,13928.5L12325.8,13758.1L12359.8,13664.3L12345.9,13523.7L12412.6,13384.9L12433.1,13164.8L12469.6,12928.5L12505.2,12674.1L12497.0,12487.9L12473.3,12327.6L12359.0,12262.2L12349.2,12215.6L12123.5,12101.4L11919.5,11977.0L11831.8,11906.7L11784.7,11812.7L11803.6,11780.0L11706.9,11630.7L11594.7,11420.8L11487.3,11194.1L11440.7,11142.3L11405.0,11058.6L11316.5,10984.2L11235.4,10938.2L11272.3,10887.4L11217.4,10779.0L11252.6,10699.2L11343.2,10627.4L11403.8,10542.3L11379.2,10492.6L11335.8,10545.6L11267.8,10495.7L11290.7,10463.5L11271.5,10360.3L11311.2,10343.2L11332.5,10272.3L11375.5,10198.9L11367.3,10152.5L11430.0,10128.2L11507.8,10082.8L11492.7,10047.6L11534.9,10039.1L11529.9,9982.1L11556.6,9940.9L11613.1,9933.2L11661.0,9861.7L11704.4,9802.0L11662.7,9774.9L11684.0,9708.8L11658.6,9604.8L11682.7,9575.0L11664.7,9478.7L11618.8,9418.0L11580.7,9385.3L11556.6,9323.9L11584.4,9293.4L11555.8,9285.7L11534.5,9248.2L11477.9,9216.4L11428.0,9223.7L11405.0,9263.2L11359.1,9291.9L11334.2,9295.7L11323.1,9319.4L11377.2,9381.2L11346.4,9395.9L11330.1,9412.6L11276.8,9418.4L11257.1,9350.4L11242.4,9369.9L11204.7,9363.1L11181.8,9317.3L11135.1,9309.8L11105.6,9296.5L11056.9,9296.7L11053.6,9321.3L11040.5,9304.2L10978.6,9279.0L10955.7,9255.1L10968.8,9235.3L10964.3,9210.2L10932.7,9182.9L10888.1,9160.5L10849.2,9145.9L10841.4,9112.6L10811.5,9092.4L10818.9,9125.5L10796.3,9152.7L10770.1,9121.1L10733.7,9109.9L10718.1,9086.8L10718.9,9052.3L10733.7,9016.3L10701.7,9000.3L10727.9,8978.4L10688.6,8942.6L10635.4,8896.7L10610.4,8858.2L10562.5,8822.6L10505.1,8771.2L10517.8,8753.4L10536.7,8770.6L10545.3,8762.7L10525.6,8727.1L10491.2,8717.0L10478.5,8744.0L10412.5,8742.3L10371.6,8731.3L10324.5,8708.8L10261.4,8701.6L10229.0,8677.2L10170.9,8657.3L10099.6,8655.2L10047.6,8632.7L9986.6,8585.7L9857.9,8463.2L9799.0,8426.3L9706.4,8396.6L9642.5,8404.9L9551.1,8447.8L9493.8,8459.0L9413.5,8429.0L9328.3,8407.4L9221.8,8355.2L9136.6,8339.2L9008.0,8286.3L8912.6,8231.9L8883.9,8201.5L8820.4,8194.8L8704.1,8158.8L8656.6,8106.8L8534.1,8042.3L8477.2,7970.4L8450.1,7915.0L8488.2,7904.0L8476.3,7871.4L8502.6,7842.0L8503.0,7802.7L8464.9,7751.5L8454.6,7706.2L8416.1,7648.8L8316.2,7535.8L8201.5,7446.8L8146.2,7376.0L8048.7,7329.5L8027.8,7301.6L8045.0,7231.3L7986.9,7204.9L7919.7,7149.5L7891.4,7070.1L7830.4,7060.9L7764.0,7001.0L7710.8,6945.5L7705.9,6910.1L7644.9,6824.2L7604.3,6737.2L7606.3,6693.5L7524.0,6648.2L7485.9,6653.2L7420.8,6621.8L7402.8,6668.0L7421.6,6722.7L7432.7,6808.2L7471.6,6855.0L7556.0,6933.4L7574.8,6960.2L7592.0,6968.3L7607.2,7007.4L7627.2,7005.8L7650.2,7079.2L7685.0,7108.1L7709.2,7148.5L7780.4,7206.3L7818.1,7312.2L7852.1,7362.1L7883.7,7415.4L7889.8,7475.3L7944.7,7479.2L7990.6,7530.8L8031.5,7581.6L8029.1,7602.0L7981.1,7643.8L7961.1,7643.2L7930.8,7574.1L7856.2,7509.2L7774.3,7454.1L7716.1,7425.3L7719.8,7342.1L7702.6,7280.4L7648.5,7245.2L7570.3,7194.4L7555.1,7209.0L7526.5,7179.3L7456.4,7151.8L7389.3,7085.7L7397.4,7077.3L7444.6,7083.6L7486.7,7041.1L7490.8,6989.8L7403.2,6908.6L7336.4,6877.2L7294.6,6806.1L7252.5,6731.4L7199.6,6640.5L7153.3,6538.2L7134.5,6480.1L7060.8,6414.6L7007.5,6400.9L6995.2,6368.4L6931.3,6362.6L6890.4,6332.0L6784.7,6320.6L6756.0,6302.3L6742.1,6239.9L6631.5,6125.6L6536.9,5967.5L6541.0,5941.1L6490.6,5903.5L6402.5,5808.2L6387.0,5715.4L6326.3,5653.2L6351.3,5559.0L6347.2,5461.4L6310.8,5374.1L6355.4,5266.9L6382.9,5060.4L6362.4,4907.9L6326.3,4810.5L6293.6,4757.7L6307.1,4735.5L6471.7,4774.1L6532.4,4881.5L6560.2,4851.5L6542.2,4758.1L6503.7,4664.9L6488.1,4664.7L6268.2,4552.8L6186.7,4503.7L5980.6,4456.5L5917.1,4355.8L5933.5,4286.1L5787.7,4237.5L5768.0,4145.9L5630.4,4063.3L5628.0,4004.7L5565.3,3961.8L5464.9,3925.6L5433.0,3826.4L5286.4,3734.3L5224.9,3626.9L5115.5,3619.6L4934.9,3616.7L4801.4,3583.9L4566.3,3465.9L4457.3,3444.3L4258.2,3403.7L4100.5,3413.3L3876.9,3361.1L3741.7,3312.6L3615.2,3336.7L3638.9,3415.8L3575.8,3423.1L3444.4,3446.8L3344.0,3485.2L3218.3,3509.4L3201.9,3442.4L3253.1,3330.7L3373.9,3295.7L3342.8,3267.2L3197.8,3330.5L3120.0,3406.4L2956.1,3487.3L3039.3,3542.5L2931.9,3624.2L2809.5,3671.8L2695.6,3706.6L2667.3,3756.9L2489.6,3815.6L2453.9,3869.1L2320.8,3917.7L2242.6,3909.0L2136.5,3940.8L2021.0,3979.5L1926.4,4017.4L1731.0,4050.0L1713.4,4030.9L1837.9,3977.8L1948.9,3942.7L2070.1,3880.3L2211.5,3867.6L2267.6,3820.8L2425.3,3752.8L2450.7,3729.9L2534.6,3689.9L2554.3,3603.6L2612.0,3536.4L2481.0,3570.9L2444.1,3551.2L2382.7,3592.6L2308.5,3534.8L2277.8,3575.7L2235.2,3519.0L2121.3,3564.5L2051.7,3564.5L2041.9,3496.7L2062.4,3454.9L1989.0,3414.5L1841.2,3436.2L1744.9,3382.9L1667.1,3355.6L1666.7,3291.2L1579.0,3242.7L1623.3,3177.2L1715.8,3113.7L1756.4,3055.3L1848.5,3047.0L1926.8,3065.1L2018.5,3010.3L2100.9,3020.1L2187.7,2984.8L2166.4,2932.8L2102.9,2912.4L2186.9,2868.5L2117.2,2869.9L1996.4,2894.5L1961.6,2919.8L1871.9,2894.5L1711.3,2907.4L1544.6,2880.1L1496.7,2834.2L1352.9,2768.2L1512.7,2720.6L1766.6,2665.0L1860.0,2665.0L1844.4,2721.8L2084.5,2717.5L1992.3,2647.1L1852.2,2603.5L1771.5,2546.7L1662.2,2498.2L1506.1,2462.2L1569.6,2402.7L1771.5,2399.0L1914.9,2347.0L1941.9,2291.8L2058.3,2237.6L2169.3,2224.6L2384.7,2174.1L2489.6,2181.8L2664.5,2121.1L2836.9,2145.0L2919.2,2196.2L2969.6,2174.3L3161.7,2181.0L3155.2,2207.2L3329.3,2226.7L3445.2,2215.3L3684.8,2251.1L3903.5,2261.9L3991.2,2276.7L4142.7,2258.3L4315.2,2292.3L4438.9,2308.3L4651.1,2335.7L4830.5,2390.4L4948.8,2401.0L5048.8,2353.4L5186.4,2318.0L5355.6,2331.8L5526.0,2281.9L5712.3,2253.4L5790.6,2300.6L5875.4,2274.0L5900.8,2220.5L5979.4,2232.6L6171.9,2334.7L6323.1,2257.5L6338.6,2343.8L6478.3,2325.3L6521.3,2292.0L6659.3,2298.5L6833.0,2346.3L7099.3,2388.1L7256.1,2407.3L7367.5,2400.0L7521.2,2457.8L7361.0,2514.2L7566.6,2538.6L7873.8,2525.2L7970.5,2505.3L8091.7,2573.5L8215.4,2515.9L8099.5,2467.6L8172.8,2428.7L8311.3,2423.5L8402.6,2412.1L8494.4,2439.3L8608.6,2501.1L8735.6,2492.0L8936.7,2543.3L9113.3,2525.2L9279.2,2527.9L9266.1,2457.2L9367.2,2437.4L9543.8,2475.9L9543.0,2583.5L9615.5,2492.8L9706.8,2495.9L9758.4,2381.5L9636.3,2311.4L9503.6,2265.4L9512.6,2139.6L9647.4,2057.0L9797.3,2075.3L9912.4,2125.6L10067.2,2253.8L9966.1,2309.7L10177.8,2332.8ZM7490.4,1920.5L7433.5,1973.8L7686.6,1939.4L7844.7,1996.7L7973.4,1938.6L8077.4,1975.9L8170.4,2087.6L8227.7,2040.6L8147.0,1923.9L8247.0,1907.4L8360.0,1925.5L8487.4,1971.5L8559.1,2082.2L8594.3,2162.5L8785.2,2219.0L8990.8,2272.7L8978.1,2322.8L8791.3,2332.0L8864.2,2375.7L8825.7,2417.5L8619.7,2399.6L8423.9,2368.8L8292.0,2375.7L8078.2,2414.4L7740.7,2434.3L7587.5,2442.2L7525.7,2388.4L7370.4,2357.4L7269.7,2370.1L7129.2,2280.0L7204.9,2268.1L7380.7,2248.6L7541.2,2253.6L7689.5,2233.8L7469.5,2207.2L7226.2,2216.3L7064.9,2214.0L7005.0,2172.2L7268.8,2126.5L7093.5,2128.3L6894.9,2098.2L6990.3,2012.9L7069.4,1967.7L7374.1,1898.5L7490.4,1920.5ZM8590.2,1886.4L8490.3,1961.5L8312.5,1882.0L8351.4,1866.0L8503.8,1861.4L8590.2,1886.4ZM11794.1,1922.6L11804.4,1954.0L11683.1,1950.7L11560.7,1948.2L11436.1,1963.6L11403.4,1956.7L11278.0,1896.4L11283.0,1855.4L11337.4,1847.9L11597.9,1860.0L11794.1,1922.6ZM10631.3,1916.2L10721.0,1987.3L10825.8,1895.4L11114.2,1848.8L11309.6,1966.5L11292.4,2041.0L11517.7,2007.9L11625.4,1962.7L11877.7,2020.2L12034.6,2074.5L12049.3,2124.2L12260.3,2098.4L12379.1,2170.8L12653.5,2215.9L12752.6,2261.7L12860.3,2368.2L12651.4,2421.2L12919.3,2495.5L13100.0,2520.5L13263.8,2625.1L13442.8,2632.6L13407.2,2712.3L13207.7,2844.6L13067.6,2795.9L12888.6,2686.5L12741.6,2700.8L12727.2,2765.9L12846.8,2832.1L13001.2,2884.5L13047.9,2914.7L13122.1,3027.2L13082.8,3109.1L12939.4,3078.2L12653.9,2987.2L12814.9,3085.2L12933.2,3153.9L12951.7,3193.6L12643.2,3148.1L12399.1,3082.1L12261.1,3026.8L12300.8,2994.7L12131.2,2936.1L11965.4,2881.0L11967.4,2914.0L11638.5,2932.1L11542.2,2893.0L11617.2,2809.2L11831.0,2807.3L12064.9,2792.7L12027.2,2752.0L12066.5,2695.4L12214.0,2584.5L12182.4,2534.2L12138.6,2495.1L11964.5,2440.0L11733.9,2401.3L11806.8,2372.5L11686.4,2301.8L11586.1,2295.2L11496.4,2256.5L11435.3,2290.2L11229.3,2304.9L10815.2,2279.4L10574.3,2245.9L10390.0,2228.8L10295.4,2188.9L10414.2,2136.9L10252.8,2136.5L10216.8,2021.2L10304.0,1919.5L10421.1,1873.1L10714.8,1842.7L10631.3,1916.2ZM9061.7,1838.2L9197.3,1862.1L9400.4,1847.7L9429.9,1880.8L9323.8,1935.3L9495.9,1984.2L9475.4,2086.7L9289.0,2130.8L9179.2,2121.1L9100.6,2077.8L8818.0,1990.0L8820.0,1953.6L9052.3,1967.7L8926.9,1893.3L9061.7,1838.2ZM36818.9,1910.1L36646.5,1910.8L36413.4,1898.1L36393.3,1892.2L36501.0,1847.1L36643.6,1836.7L36805.0,1880.2L36818.9,1910.1ZM9876.4,1960.1L9754.3,2045.3L9624.5,2041.0L9553.6,1941.1L9555.2,1884.5L9614.6,1836.1L9727.7,1805.1L9964.8,1809.0L10181.9,1836.7L10012.0,1938.0L9876.4,1960.1ZM6774.4,2116.3L6475.0,2172.9L6414.8,2123.1L6152.3,2063.0L6190.3,2025.8L6279.6,1931.6L6378.4,1856.9L6266.9,1787.2L6651.6,1769.3L6814.2,1793.0L7104.6,1799.3L7215.2,1832.3L7337.2,1880.2L7194.3,1908.9L6915.3,1988.8L6774.4,2068.6L6774.4,2116.3ZM37629.9,1697.1L37498.4,1742.2L37316.6,1731.9L37105.2,1687.1L37132.2,1650.1L37344.4,1667.2L37629.9,1697.1ZM9828.9,1709.0L9767.0,1753.1L9601.9,1744.7L9463.9,1714.8L9524.5,1663.6L9688.0,1633.0L9787.5,1673.0L9828.9,1709.0ZM36987.7,1642.6L36898.0,1727.1L36478.9,1724.1L36290.1,1750.8L36064.8,1676.9L36125.9,1598.7L36275.8,1577.3L36576.4,1582.3L36987.7,1642.6ZM9273.0,1511.1L9359.9,1563.6L9363.5,1622.0L9311.5,1706.7L9123.9,1718.3L9001.9,1700.2L9003.9,1633.7L8817.5,1642.6L8810.2,1554.6L8932.6,1558.1L9104.3,1519.3L9264.0,1525.9L9273.0,1511.1ZM8167.9,1570.0L8212.6,1610.4L8313.7,1591.4L8432.9,1596.4L8453.0,1652.0L8383.8,1706.1L7998.7,1723.7L7711.6,1773.0L7538.4,1775.7L7524.0,1738.5L7760.4,1688.2L7246.3,1701.7L7087.0,1681.3L7242.2,1570.2L7349.5,1538.4L7669.8,1576.7L7871.8,1644.1L8070.4,1652.8L7907.8,1544.0L8012.3,1502.6L8129.4,1515.7L8167.9,1570.0ZM27026.1,2193.5L26958.9,2203.6L26587.4,2188.7L26557.1,2138.3L26351.1,2107.9L26334.7,2046.2L26451.0,2022.0L26446.9,1959.8L26672.6,1862.9L26568.2,1848.8L26840.5,1749.1L26809.8,1697.5L27064.2,1637.4L27439.8,1564.2L27818.7,1543.0L28013.2,1500.7L28234.8,1486.0L28313.9,1530.9L28237.3,1566.3L27834.2,1622.8L27486.9,1677.1L27133.4,1785.3L26963.8,1896.4L26785.7,2005.8L26808.6,2100.3L27026.1,2193.5ZM9707.2,1467.9L9833.4,1504.5L10057.4,1504.3L10155.7,1541.7L10129.5,1584.4L10260.2,1610.2L10332.7,1637.2L10485.9,1642.2L10652.2,1651.8L10832.8,1627.2L11064.6,1617.4L11249.4,1625.5L11371.4,1668.4L11396.8,1715.4L11325.6,1745.6L11156.0,1770.1L11010.6,1756.2L10684.1,1773.7L10450.6,1775.9L10266.7,1761.8L9964.4,1725.2L9925.1,1662.6L9911.2,1606.2L9796.9,1556.5L9561.8,1542.6L9429.9,1507.4L9472.5,1460.8L9707.2,1467.9ZM7259.0,1405.7L7243.4,1493.2L7155.8,1532.6L7049.7,1538.2L6837.9,1586.7L6656.1,1604.3L6501.6,1579.6L6695.0,1494.5L6928.5,1420.7L7102.9,1422.5L7259.0,1405.7ZM9803.1,1420.0L9751.4,1423.2L9538.0,1415.9L9507.7,1384.2L9736.7,1385.9L9816.6,1406.9L9803.1,1420.0ZM7943.0,1399.8L7730.9,1432.5L7562.5,1395.7L7654.3,1359.5L7820.6,1348.0L7981.1,1365.7L7943.0,1399.8ZM23293.0,1382.0L23039.0,1428.4L22838.3,1402.1L22916.5,1372.8L22848.1,1336.4L23083.6,1313.5L23128.7,1356.2L23293.0,1382.0ZM8002.8,1296.9L7864.0,1319.1L7675.2,1318.9L7677.2,1302.7L7793.9,1268.6L7855.0,1273.8L8002.8,1296.9ZM9576.5,1358.9L9408.2,1382.4L9315.6,1355.8L9266.9,1313.3L9257.9,1266.1L9405.3,1270.7L9471.7,1278.2L9607.7,1317.7L9576.5,1358.9ZM9095.3,1328.3L9139.5,1375.9L8953.9,1363.2L8766.8,1326.2L8513.2,1322.1L8623.0,1288.3L8485.8,1260.9L8477.2,1217.2L8700.8,1232.8L9008.4,1274.2L9095.3,1328.3ZM32435.3,1330.4L31793.9,1374.3L32001.5,1224.9L32095.3,1212.2L32180.5,1219.5L32468.9,1284.2L32435.3,1330.4ZM22556.5,1171.7L22931.3,1256.5L22645.0,1301.3L22581.5,1385.1L22481.9,1406.5L22427.9,1500.9L22290.7,1505.3L22045.7,1435.8L22148.9,1395.3L21978.5,1362.6L21756.9,1266.5L21668.5,1177.3L21978.5,1136.5L22040.8,1176.4L22203.0,1174.8L22246.0,1135.9L22413.1,1132.1L22556.5,1171.7ZM23375.3,1091.4L23598.5,1131.3L23429.8,1192.5L23099.6,1206.0L22764.2,1187.2L22743.7,1155.8L22580.7,1153.6L22456.1,1101.5L22807.6,1069.7L22972.6,1097.0L23087.7,1062.9L23375.3,1091.4ZM26298.2,1075.5L26145.4,1090.5L26043.0,1099.1L26027.1,1117.8L25894.4,1136.7L25771.1,1109.7L25835.8,1074.1L25582.6,1070.6L25804.6,1050.0L25977.5,1048.5L26000.8,1079.3L26066.0,1052.0L26173.3,1033.3L26342.0,1058.1L26298.2,1075.5ZM31850.8,1265.1L31602.6,1279.2L31286.0,1246.5L31096.7,1202.9L31009.5,1121.5L30854.2,1099.0L31150.0,1021.1L31395.7,995.5L31616.9,1052.7L31879.1,1162.9L31850.8,1265.1ZM10579.3,1176.6L10716.1,1213.1L10560.0,1247.0L10349.9,1332.7L10148.4,1340.8L9912.8,1326.2L9790.4,1280.0L9792.0,1238.6L9882.1,1208.3L9674.0,1209.1L9548.7,1171.4L9476.6,1119.7L9555.7,1069.3L9634.3,1034.6L9751.0,1026.5L9701.1,1000.5L9965.7,994.8L10111.1,1055.4L10302.8,1079.9L10489.1,1101.5L10579.3,1176.6ZM12686.3,784.3L12990.2,793.3L13234.7,807.8L13442.8,838.8L13437.9,869.0L13160.2,918.5L12884.9,941.4L12782.1,967.0L13029.9,966.5L12761.2,1035.4L12576.1,1067.6L12381.1,1160.6L12146.4,1179.4L12073.9,1202.6L11729.4,1214.9L11886.3,1229.1L11807.7,1249.4L11901.9,1305.6L11793.7,1344.5L11618.0,1376.6L11563.9,1421.3L11405.0,1455.2L11421.0,1481.0L11615.6,1476.6L11618.0,1504.3L11314.1,1572.7L11016.7,1541.3L10682.5,1558.8L10512.9,1545.1L10297.9,1539.2L10283.5,1484.5L10494.1,1458.9L10437.9,1376.6L10507.6,1368.7L10811.5,1417.9L10656.3,1344.9L10471.9,1323.1L10564.1,1279.0L10765.6,1251.9L10798.0,1212.2L10637.4,1167.7L10589.1,1109.2L10900.0,1114.2L10990.1,1126.5L11167.4,1084.9L10911.4,1071.8L10513.3,1079.1L10312.2,1040.4L10217.2,994.4L10084.5,961.1L10059.5,922.2L10228.6,900.6L10361.3,896.9L10584.6,878.5L10752.1,836.1L10893.0,841.9L11015.9,873.8L11102.3,812.4L11252.6,794.1L11456.6,781.6L11804.4,777.0L11865.0,789.1L12193.5,769.8L12439.7,777.2L12686.3,784.3ZM17396.7,737.3L18108.2,827.6L17898.1,871.3L17463.1,876.3L16850.3,887.5L16907.6,907.7L17310.7,895.2L17653.1,934.5L17874.3,899.6L17968.9,940.5L17844.0,1006.7L18133.6,964.3L18685.7,920.2L19026.9,942.2L19090.8,990.9L18627.2,1071.8L18562.8,1098.0L18199.1,1117.6L18462.5,1123.0L18329.8,1206.0L18238.0,1279.8L18241.7,1406.5L18378.1,1480.8L18200.3,1485.4L18013.2,1521.5L18223.3,1581.7L18249.9,1678.4L18128.3,1689.0L18275.7,1786.8L18023.0,1794.9L18154.9,1841.3L18117.6,1881.4L17957.5,1898.9L17798.5,1899.3L17941.1,1976.3L17942.7,2027.0L17717.8,1980.0L17659.3,2010.4L17812.9,2038.9L17962.0,2108.4L18005.0,2200.1L17802.2,2222.1L17714.6,2178.1L17573.7,2112.7L17612.6,2189.9L17480.7,2249.8L17780.5,2254.6L17937.4,2260.8L17632.2,2359.9L17323.0,2449.7L16990.0,2489.0L16864.6,2489.3L16746.7,2533.3L16588.6,2653.4L16344.0,2733.1L16265.4,2737.8L16113.8,2765.7L15950.4,2792.3L15852.9,2862.6L15851.3,2942.5L15793.5,3017.2L15608.0,3108.1L15653.8,3197.1L15602.6,3291.0L15544.5,3402.2L15384.3,3409.1L15216.4,3316.3L14988.6,3315.7L14878.5,3253.3L14802.3,3142.2L14605.3,3000.6L14547.5,2926.5L14531.9,2824.4L14374.6,2719.3L14415.6,2635.5L14339.4,2595.5L14452.1,2462.4L14623.3,2420.0L14668.3,2372.5L14692.1,2283.7L14561.8,2323.9L14500.0,2340.9L14398.0,2357.0L14258.3,2319.9L14250.5,2242.7L14295.2,2182.2L14400.9,2180.5L14633.1,2210.7L14437.3,2138.5L14335.3,2099.6L14222.3,2115.6L14127.2,2087.2L14254.2,1981.3L14185.0,1939.0L14094.9,1860.2L13957.7,1739.6L13813.1,1695.4L13814.3,1647.8L13509.2,1581.2L13267.5,1572.9L12963.2,1577.5L12685.8,1586.0L12553.5,1549.8L12356.1,1478.1L12654.7,1442.3L12883.7,1436.3L12397.1,1406.7L12140.3,1360.3L12156.2,1316.2L12586.7,1261.3L13003.7,1206.6L13047.5,1165.4L12740.3,1124.4L12839.9,1079.1L13233.5,999.6L13399.0,987.4L13351.9,936.4L13621.4,906.4L13971.2,888.5L14320.6,887.5L14444.7,922.9L14746.6,860.3L15018.1,902.9L15177.9,911.8L15414.2,948.7L15143.9,887.5L15159.4,838.8L15541.2,770.8L15940.6,776.0L16085.6,734.0L16487.8,723.0L17396.7,737.3Z"/>
  </g>
</svg>